G04 EAGLE Gerber RS-274X export*
G75*
%MOMM*%
%FSLAX34Y34*%
%LPD*%
%INBottom Copper*%
%IPPOS*%
%AMOC8*
5,1,8,0,0,1.08239X$1,22.5*%
G01*
%ADD10P,1.539592X8X292.500000*%
%ADD11C,1.450000*%
%ADD12C,1.930400*%
%ADD13P,1.429621X8X22.500000*%
%ADD14C,2.095500*%
%ADD15C,3.810000*%
%ADD16C,0.457200*%
%ADD17C,0.756400*%

G36*
X950862Y289577D02*
X950862Y289577D01*
X951033Y289587D01*
X951074Y289597D01*
X951116Y289601D01*
X951281Y289648D01*
X951448Y289690D01*
X951486Y289707D01*
X951526Y289719D01*
X951680Y289796D01*
X951836Y289868D01*
X951870Y289893D01*
X951907Y289912D01*
X952043Y290016D01*
X952184Y290116D01*
X952213Y290146D01*
X952246Y290172D01*
X952361Y290300D01*
X952480Y290424D01*
X952502Y290459D01*
X952531Y290491D01*
X952619Y290638D01*
X952713Y290782D01*
X952729Y290821D01*
X952751Y290857D01*
X952810Y291017D01*
X952876Y291177D01*
X952884Y291218D01*
X952899Y291257D01*
X952927Y291426D01*
X952962Y291595D01*
X952963Y291637D01*
X952970Y291678D01*
X952966Y291850D01*
X952969Y292022D01*
X952962Y292063D01*
X952961Y292105D01*
X952926Y292273D01*
X952897Y292443D01*
X952882Y292482D01*
X952873Y292523D01*
X952807Y292682D01*
X952747Y292843D01*
X952725Y292879D01*
X952709Y292918D01*
X952615Y293061D01*
X952526Y293208D01*
X952494Y293245D01*
X952474Y293274D01*
X952418Y293333D01*
X952307Y293462D01*
X949154Y296615D01*
X944107Y306520D01*
X942368Y317500D01*
X944107Y328480D01*
X949154Y338385D01*
X957015Y346246D01*
X966920Y351293D01*
X977900Y353032D01*
X988880Y351293D01*
X998849Y346214D01*
X998899Y346169D01*
X998935Y346148D01*
X998967Y346121D01*
X999117Y346038D01*
X999265Y345949D01*
X999304Y345935D01*
X999341Y345915D01*
X999504Y345861D01*
X999665Y345801D01*
X999706Y345794D01*
X999746Y345781D01*
X999917Y345759D01*
X1000086Y345730D01*
X1000128Y345731D01*
X1000170Y345726D01*
X1000341Y345735D01*
X1000513Y345739D01*
X1000555Y345747D01*
X1000596Y345750D01*
X1000763Y345791D01*
X1000931Y345827D01*
X1000970Y345843D01*
X1001011Y345853D01*
X1001167Y345925D01*
X1001326Y345991D01*
X1001361Y346014D01*
X1001399Y346031D01*
X1001539Y346131D01*
X1001683Y346226D01*
X1001713Y346255D01*
X1001747Y346279D01*
X1001866Y346403D01*
X1001989Y346523D01*
X1002014Y346557D01*
X1002043Y346587D01*
X1002136Y346731D01*
X1002236Y346871D01*
X1002253Y346910D01*
X1002276Y346945D01*
X1002342Y347103D01*
X1002413Y347260D01*
X1002423Y347301D01*
X1002439Y347340D01*
X1002474Y347508D01*
X1002515Y347675D01*
X1002518Y347723D01*
X1002525Y347758D01*
X1002527Y347839D01*
X1002539Y348009D01*
X1002539Y731491D01*
X1002523Y731662D01*
X1002513Y731834D01*
X1002503Y731874D01*
X1002499Y731916D01*
X1002452Y732082D01*
X1002410Y732248D01*
X1002393Y732286D01*
X1002381Y732326D01*
X1002304Y732480D01*
X1002232Y732636D01*
X1002207Y732670D01*
X1002188Y732707D01*
X1002084Y732844D01*
X1001984Y732984D01*
X1001954Y733013D01*
X1001928Y733046D01*
X1001800Y733161D01*
X1001676Y733280D01*
X1001641Y733303D01*
X1001609Y733331D01*
X1001462Y733419D01*
X1001318Y733513D01*
X1001279Y733529D01*
X1001243Y733551D01*
X1001083Y733610D01*
X1000923Y733676D01*
X1000882Y733684D01*
X1000843Y733699D01*
X1000673Y733727D01*
X1000505Y733762D01*
X1000463Y733763D01*
X1000422Y733770D01*
X1000249Y733766D01*
X1000078Y733769D01*
X1000037Y733762D01*
X999995Y733761D01*
X999826Y733726D01*
X999657Y733697D01*
X999618Y733682D01*
X999577Y733673D01*
X999418Y733607D01*
X999257Y733547D01*
X999221Y733525D01*
X999182Y733509D01*
X999039Y733415D01*
X998892Y733325D01*
X998855Y733294D01*
X998826Y733274D01*
X998825Y733274D01*
X988880Y728207D01*
X977900Y726468D01*
X966920Y728207D01*
X957015Y733254D01*
X949154Y741115D01*
X944107Y751020D01*
X942368Y762000D01*
X944107Y772980D01*
X949154Y782885D01*
X952207Y785938D01*
X952316Y786070D01*
X952431Y786199D01*
X952452Y786235D01*
X952479Y786267D01*
X952562Y786417D01*
X952651Y786565D01*
X952665Y786604D01*
X952686Y786641D01*
X952739Y786804D01*
X952799Y786965D01*
X952806Y787007D01*
X952819Y787047D01*
X952841Y787217D01*
X952870Y787386D01*
X952869Y787428D01*
X952874Y787470D01*
X952865Y787642D01*
X952861Y787813D01*
X952852Y787855D01*
X952850Y787897D01*
X952809Y788063D01*
X952773Y788231D01*
X952757Y788270D01*
X952747Y788311D01*
X952675Y788467D01*
X952609Y788626D01*
X952586Y788661D01*
X952568Y788699D01*
X952469Y788839D01*
X952374Y788983D01*
X952345Y789013D01*
X952321Y789047D01*
X952197Y789166D01*
X952077Y789289D01*
X952043Y789314D01*
X952013Y789343D01*
X951869Y789437D01*
X951729Y789536D01*
X951690Y789553D01*
X951655Y789576D01*
X951496Y789642D01*
X951340Y789713D01*
X951299Y789723D01*
X951260Y789739D01*
X951092Y789774D01*
X950925Y789815D01*
X950877Y789818D01*
X950842Y789825D01*
X950761Y789827D01*
X950591Y789839D01*
X205109Y789839D01*
X204938Y789823D01*
X204767Y789813D01*
X204726Y789803D01*
X204684Y789799D01*
X204519Y789752D01*
X204352Y789710D01*
X204314Y789693D01*
X204274Y789681D01*
X204120Y789604D01*
X203964Y789532D01*
X203930Y789507D01*
X203893Y789488D01*
X203757Y789384D01*
X203616Y789284D01*
X203587Y789254D01*
X203554Y789228D01*
X203439Y789100D01*
X203320Y788976D01*
X203298Y788941D01*
X203269Y788909D01*
X203181Y788762D01*
X203087Y788618D01*
X203071Y788579D01*
X203049Y788543D01*
X202990Y788383D01*
X202924Y788223D01*
X202916Y788182D01*
X202901Y788143D01*
X202873Y787974D01*
X202838Y787805D01*
X202837Y787763D01*
X202830Y787722D01*
X202834Y787550D01*
X202831Y787378D01*
X202838Y787337D01*
X202839Y787295D01*
X202874Y787127D01*
X202903Y786957D01*
X202918Y786918D01*
X202927Y786877D01*
X202993Y786718D01*
X203053Y786557D01*
X203075Y786521D01*
X203091Y786482D01*
X203185Y786339D01*
X203274Y786192D01*
X203306Y786155D01*
X203326Y786126D01*
X203382Y786067D01*
X203493Y785938D01*
X206546Y782885D01*
X211593Y772980D01*
X213332Y762000D01*
X211593Y751020D01*
X206546Y741115D01*
X198685Y733254D01*
X188780Y728207D01*
X177800Y726468D01*
X166820Y728207D01*
X156915Y733254D01*
X153762Y736407D01*
X153630Y736516D01*
X153501Y736631D01*
X153465Y736652D01*
X153433Y736679D01*
X153283Y736762D01*
X153135Y736851D01*
X153096Y736865D01*
X153059Y736886D01*
X152896Y736939D01*
X152735Y736999D01*
X152693Y737006D01*
X152653Y737019D01*
X152483Y737041D01*
X152314Y737070D01*
X152272Y737069D01*
X152230Y737074D01*
X152058Y737065D01*
X151887Y737061D01*
X151845Y737052D01*
X151803Y737050D01*
X151637Y737009D01*
X151469Y736973D01*
X151430Y736957D01*
X151389Y736947D01*
X151233Y736875D01*
X151074Y736809D01*
X151039Y736786D01*
X151001Y736768D01*
X150861Y736669D01*
X150717Y736574D01*
X150687Y736545D01*
X150653Y736521D01*
X150534Y736397D01*
X150411Y736277D01*
X150386Y736243D01*
X150357Y736213D01*
X150263Y736069D01*
X150164Y735929D01*
X150147Y735890D01*
X150124Y735855D01*
X150058Y735696D01*
X149987Y735540D01*
X149977Y735499D01*
X149961Y735460D01*
X149926Y735292D01*
X149885Y735125D01*
X149882Y735077D01*
X149875Y735042D01*
X149873Y734961D01*
X149861Y734791D01*
X149861Y344709D01*
X149877Y344538D01*
X149887Y344367D01*
X149897Y344326D01*
X149901Y344284D01*
X149948Y344119D01*
X149990Y343952D01*
X150007Y343914D01*
X150019Y343874D01*
X150096Y343720D01*
X150168Y343564D01*
X150193Y343530D01*
X150212Y343493D01*
X150316Y343357D01*
X150416Y343216D01*
X150446Y343187D01*
X150472Y343154D01*
X150600Y343039D01*
X150724Y342920D01*
X150759Y342898D01*
X150791Y342869D01*
X150938Y342781D01*
X151082Y342687D01*
X151121Y342671D01*
X151157Y342649D01*
X151317Y342590D01*
X151477Y342524D01*
X151518Y342516D01*
X151557Y342501D01*
X151726Y342473D01*
X151895Y342438D01*
X151937Y342437D01*
X151978Y342430D01*
X152150Y342434D01*
X152322Y342431D01*
X152363Y342438D01*
X152405Y342439D01*
X152573Y342474D01*
X152743Y342503D01*
X152782Y342518D01*
X152823Y342527D01*
X152982Y342593D01*
X153143Y342653D01*
X153179Y342675D01*
X153218Y342691D01*
X153361Y342785D01*
X153508Y342874D01*
X153545Y342906D01*
X153574Y342926D01*
X153633Y342982D01*
X153762Y343093D01*
X156915Y346246D01*
X166820Y351293D01*
X177800Y353032D01*
X188780Y351293D01*
X198685Y346246D01*
X206546Y338385D01*
X211593Y328480D01*
X213332Y317500D01*
X211593Y306520D01*
X206546Y296615D01*
X203393Y293462D01*
X203284Y293330D01*
X203169Y293201D01*
X203148Y293165D01*
X203121Y293133D01*
X203038Y292983D01*
X202949Y292835D01*
X202935Y292796D01*
X202914Y292759D01*
X202861Y292596D01*
X202801Y292435D01*
X202794Y292393D01*
X202781Y292353D01*
X202759Y292183D01*
X202730Y292014D01*
X202731Y291972D01*
X202726Y291930D01*
X202735Y291758D01*
X202739Y291587D01*
X202748Y291545D01*
X202750Y291503D01*
X202791Y291337D01*
X202827Y291169D01*
X202843Y291130D01*
X202853Y291089D01*
X202925Y290933D01*
X202991Y290774D01*
X203014Y290739D01*
X203032Y290701D01*
X203131Y290561D01*
X203226Y290417D01*
X203255Y290387D01*
X203279Y290353D01*
X203403Y290234D01*
X203523Y290111D01*
X203557Y290086D01*
X203587Y290057D01*
X203731Y289963D01*
X203871Y289864D01*
X203910Y289847D01*
X203945Y289824D01*
X204104Y289758D01*
X204260Y289687D01*
X204301Y289677D01*
X204340Y289661D01*
X204508Y289626D01*
X204675Y289585D01*
X204723Y289582D01*
X204758Y289575D01*
X204839Y289573D01*
X205009Y289561D01*
X950691Y289561D01*
X950862Y289577D01*
G37*
%LPC*%
G36*
X646942Y364489D02*
X646942Y364489D01*
X645541Y365069D01*
X644469Y366141D01*
X643889Y367542D01*
X643889Y546858D01*
X644469Y548259D01*
X655920Y559709D01*
X655976Y559777D01*
X656039Y559838D01*
X656112Y559941D01*
X656192Y560038D01*
X656235Y560115D01*
X656286Y560187D01*
X656338Y560302D01*
X656399Y560412D01*
X656426Y560495D01*
X656463Y560576D01*
X656493Y560698D01*
X656532Y560818D01*
X656544Y560905D01*
X656565Y560991D01*
X656577Y561161D01*
X656588Y561241D01*
X656586Y561277D01*
X656589Y561325D01*
X656589Y575568D01*
X656581Y575656D01*
X656582Y575744D01*
X656561Y575868D01*
X656549Y575994D01*
X656525Y576078D01*
X656510Y576165D01*
X656466Y576283D01*
X656431Y576404D01*
X656391Y576483D01*
X656360Y576565D01*
X656295Y576673D01*
X656238Y576785D01*
X656185Y576855D01*
X656139Y576930D01*
X656028Y577059D01*
X655978Y577124D01*
X655952Y577148D01*
X655920Y577184D01*
X652271Y580833D01*
X652271Y587567D01*
X657033Y592329D01*
X663767Y592329D01*
X665388Y590708D01*
X665520Y590598D01*
X665649Y590484D01*
X665685Y590462D01*
X665717Y590435D01*
X665867Y590352D01*
X666015Y590264D01*
X666054Y590249D01*
X666091Y590229D01*
X666254Y590175D01*
X666415Y590115D01*
X666457Y590108D01*
X666497Y590095D01*
X666667Y590073D01*
X666836Y590044D01*
X666878Y590045D01*
X666920Y590040D01*
X667092Y590050D01*
X667263Y590053D01*
X667305Y590062D01*
X667347Y590064D01*
X667513Y590106D01*
X667681Y590141D01*
X667720Y590157D01*
X667761Y590167D01*
X667917Y590239D01*
X668076Y590305D01*
X668111Y590328D01*
X668149Y590346D01*
X668289Y590445D01*
X668433Y590540D01*
X668463Y590569D01*
X668497Y590593D01*
X668616Y590717D01*
X668739Y590837D01*
X668764Y590871D01*
X668793Y590901D01*
X668887Y591045D01*
X668986Y591186D01*
X669003Y591224D01*
X669026Y591259D01*
X669092Y591418D01*
X669163Y591574D01*
X669173Y591615D01*
X669189Y591654D01*
X669224Y591822D01*
X669265Y591989D01*
X669268Y592038D01*
X669275Y592072D01*
X669277Y592154D01*
X669289Y592324D01*
X669289Y616204D01*
X669277Y616333D01*
X669275Y616463D01*
X669257Y616546D01*
X669249Y616629D01*
X669213Y616754D01*
X669187Y616881D01*
X669154Y616959D01*
X669131Y617040D01*
X669072Y617156D01*
X669022Y617276D01*
X668976Y617346D01*
X668938Y617421D01*
X668859Y617524D01*
X668788Y617633D01*
X668729Y617693D01*
X668678Y617760D01*
X668581Y617846D01*
X668491Y617939D01*
X668422Y617988D01*
X668359Y618044D01*
X668248Y618111D01*
X668142Y618186D01*
X668065Y618221D01*
X667993Y618264D01*
X667872Y618309D01*
X667753Y618363D01*
X667672Y618383D01*
X667593Y618412D01*
X667465Y618434D01*
X667338Y618465D01*
X667237Y618472D01*
X667172Y618483D01*
X667106Y618482D01*
X667004Y618489D01*
X621542Y618489D01*
X620141Y619069D01*
X606369Y632841D01*
X605789Y634242D01*
X605789Y694133D01*
X605779Y694241D01*
X605779Y694351D01*
X605759Y694454D01*
X605749Y694558D01*
X605719Y694663D01*
X605699Y694770D01*
X605660Y694868D01*
X605631Y694969D01*
X605582Y695066D01*
X605542Y695167D01*
X605486Y695256D01*
X605438Y695350D01*
X605372Y695436D01*
X605314Y695528D01*
X605242Y695605D01*
X605178Y695688D01*
X605097Y695761D01*
X605022Y695841D01*
X604938Y695903D01*
X604859Y695973D01*
X604766Y696029D01*
X604678Y696093D01*
X604559Y696153D01*
X604493Y696193D01*
X604445Y696211D01*
X604379Y696244D01*
X602801Y696898D01*
X599425Y700274D01*
X597598Y704685D01*
X597598Y730415D01*
X599425Y734826D01*
X602801Y738203D01*
X607213Y740030D01*
X611987Y740030D01*
X616399Y738203D01*
X619775Y734826D01*
X621602Y730415D01*
X621602Y704685D01*
X619775Y700274D01*
X616399Y696898D01*
X614821Y696244D01*
X614725Y696193D01*
X614624Y696151D01*
X614537Y696094D01*
X614444Y696045D01*
X614359Y695977D01*
X614267Y695917D01*
X614192Y695844D01*
X614110Y695778D01*
X614039Y695696D01*
X613961Y695620D01*
X613900Y695534D01*
X613832Y695454D01*
X613777Y695360D01*
X613714Y695271D01*
X613671Y695175D01*
X613618Y695084D01*
X613582Y694981D01*
X613537Y694882D01*
X613512Y694780D01*
X613477Y694681D01*
X613461Y694573D01*
X613435Y694467D01*
X613426Y694335D01*
X613414Y694259D01*
X613416Y694207D01*
X613411Y694133D01*
X613411Y637525D01*
X613419Y637437D01*
X613418Y637349D01*
X613439Y637225D01*
X613451Y637100D01*
X613475Y637015D01*
X613490Y636928D01*
X613534Y636810D01*
X613569Y636689D01*
X613609Y636611D01*
X613640Y636528D01*
X613705Y636420D01*
X613762Y636308D01*
X613815Y636238D01*
X613861Y636163D01*
X613972Y636034D01*
X614022Y635970D01*
X614048Y635946D01*
X614080Y635909D01*
X623209Y626780D01*
X623277Y626724D01*
X623338Y626661D01*
X623441Y626588D01*
X623538Y626508D01*
X623615Y626465D01*
X623687Y626414D01*
X623802Y626362D01*
X623912Y626301D01*
X623995Y626274D01*
X624076Y626237D01*
X624198Y626207D01*
X624318Y626168D01*
X624405Y626156D01*
X624491Y626135D01*
X624661Y626123D01*
X624741Y626112D01*
X624777Y626114D01*
X624825Y626111D01*
X673858Y626111D01*
X675259Y625531D01*
X676331Y624459D01*
X676911Y623058D01*
X676911Y507242D01*
X676331Y505841D01*
X664880Y494391D01*
X664824Y494323D01*
X664761Y494262D01*
X664688Y494159D01*
X664608Y494062D01*
X664565Y493985D01*
X664514Y493913D01*
X664462Y493798D01*
X664401Y493688D01*
X664374Y493605D01*
X664337Y493524D01*
X664307Y493402D01*
X664268Y493282D01*
X664256Y493195D01*
X664235Y493109D01*
X664223Y492939D01*
X664212Y492859D01*
X664214Y492823D01*
X664211Y492775D01*
X664211Y387096D01*
X664223Y386967D01*
X664225Y386837D01*
X664243Y386754D01*
X664251Y386671D01*
X664287Y386546D01*
X664313Y386419D01*
X664346Y386341D01*
X664369Y386260D01*
X664428Y386144D01*
X664478Y386024D01*
X664524Y385954D01*
X664562Y385879D01*
X664641Y385776D01*
X664712Y385667D01*
X664771Y385607D01*
X664822Y385540D01*
X664919Y385454D01*
X665009Y385361D01*
X665078Y385312D01*
X665141Y385256D01*
X665252Y385189D01*
X665358Y385114D01*
X665435Y385079D01*
X665507Y385036D01*
X665628Y384991D01*
X665747Y384937D01*
X665828Y384917D01*
X665907Y384888D01*
X666035Y384866D01*
X666162Y384835D01*
X666263Y384828D01*
X666328Y384817D01*
X666394Y384818D01*
X666496Y384811D01*
X717804Y384811D01*
X717933Y384823D01*
X718063Y384825D01*
X718146Y384843D01*
X718229Y384851D01*
X718354Y384887D01*
X718481Y384913D01*
X718559Y384946D01*
X718640Y384969D01*
X718756Y385028D01*
X718876Y385078D01*
X718946Y385124D01*
X719021Y385162D01*
X719124Y385241D01*
X719233Y385312D01*
X719293Y385371D01*
X719360Y385422D01*
X719446Y385519D01*
X719539Y385609D01*
X719588Y385678D01*
X719644Y385741D01*
X719711Y385852D01*
X719786Y385958D01*
X719821Y386035D01*
X719864Y386107D01*
X719909Y386228D01*
X719963Y386347D01*
X719983Y386428D01*
X720012Y386507D01*
X720034Y386635D01*
X720065Y386762D01*
X720072Y386863D01*
X720083Y386928D01*
X720082Y386994D01*
X720089Y387096D01*
X720089Y546858D01*
X720669Y548259D01*
X732120Y559709D01*
X732176Y559777D01*
X732239Y559838D01*
X732312Y559941D01*
X732392Y560038D01*
X732435Y560115D01*
X732486Y560187D01*
X732538Y560302D01*
X732599Y560412D01*
X732626Y560495D01*
X732663Y560576D01*
X732693Y560698D01*
X732732Y560818D01*
X732744Y560905D01*
X732765Y560991D01*
X732777Y561161D01*
X732788Y561241D01*
X732786Y561277D01*
X732789Y561325D01*
X732789Y575568D01*
X732781Y575656D01*
X732782Y575744D01*
X732761Y575868D01*
X732749Y575994D01*
X732725Y576078D01*
X732710Y576165D01*
X732666Y576283D01*
X732631Y576404D01*
X732591Y576483D01*
X732560Y576565D01*
X732495Y576673D01*
X732438Y576785D01*
X732385Y576855D01*
X732339Y576930D01*
X732228Y577059D01*
X732178Y577124D01*
X732152Y577148D01*
X732120Y577184D01*
X729584Y579720D01*
X729517Y579776D01*
X729455Y579839D01*
X729352Y579912D01*
X729255Y579992D01*
X729178Y580035D01*
X729106Y580086D01*
X728992Y580138D01*
X728882Y580199D01*
X728798Y580226D01*
X728718Y580263D01*
X728595Y580293D01*
X728476Y580332D01*
X728388Y580344D01*
X728303Y580365D01*
X728133Y580377D01*
X728052Y580388D01*
X728017Y580386D01*
X727968Y580389D01*
X723142Y580389D01*
X721741Y580969D01*
X707969Y594741D01*
X707389Y596142D01*
X707389Y686558D01*
X707969Y687959D01*
X709041Y689031D01*
X710442Y689611D01*
X927858Y689611D01*
X929259Y689031D01*
X930331Y687959D01*
X930911Y686558D01*
X930911Y600068D01*
X930921Y599960D01*
X930921Y599851D01*
X930941Y599748D01*
X930951Y599643D01*
X930981Y599538D01*
X931001Y599431D01*
X931040Y599334D01*
X931069Y599233D01*
X931118Y599135D01*
X931158Y599034D01*
X931214Y598945D01*
X931262Y598852D01*
X931328Y598765D01*
X931386Y598673D01*
X931458Y598596D01*
X931522Y598513D01*
X931603Y598440D01*
X931678Y598361D01*
X931762Y598298D01*
X931841Y598229D01*
X931934Y598172D01*
X932022Y598108D01*
X932141Y598048D01*
X932207Y598008D01*
X932255Y597991D01*
X932321Y597957D01*
X938755Y595292D01*
X944542Y589505D01*
X947675Y581943D01*
X947675Y573757D01*
X944542Y566195D01*
X938755Y560408D01*
X931193Y557275D01*
X923007Y557275D01*
X915445Y560408D01*
X909658Y566195D01*
X906525Y573757D01*
X906525Y581943D01*
X909658Y589505D01*
X915445Y595292D01*
X921879Y597957D01*
X921975Y598008D01*
X922076Y598050D01*
X922163Y598108D01*
X922256Y598157D01*
X922341Y598225D01*
X922433Y598285D01*
X922508Y598358D01*
X922590Y598423D01*
X922661Y598506D01*
X922739Y598582D01*
X922800Y598667D01*
X922868Y598747D01*
X922923Y598841D01*
X922986Y598931D01*
X923029Y599026D01*
X923082Y599117D01*
X923118Y599220D01*
X923163Y599319D01*
X923188Y599421D01*
X923223Y599520D01*
X923239Y599628D01*
X923265Y599734D01*
X923274Y599867D01*
X923286Y599943D01*
X923284Y599994D01*
X923289Y600068D01*
X923289Y679704D01*
X923277Y679833D01*
X923275Y679963D01*
X923257Y680046D01*
X923249Y680129D01*
X923213Y680254D01*
X923187Y680381D01*
X923154Y680459D01*
X923131Y680540D01*
X923072Y680656D01*
X923022Y680776D01*
X922976Y680846D01*
X922938Y680921D01*
X922859Y681024D01*
X922788Y681133D01*
X922729Y681193D01*
X922678Y681260D01*
X922581Y681346D01*
X922491Y681439D01*
X922422Y681488D01*
X922359Y681544D01*
X922248Y681611D01*
X922142Y681686D01*
X922065Y681721D01*
X921993Y681764D01*
X921872Y681809D01*
X921753Y681863D01*
X921672Y681883D01*
X921593Y681912D01*
X921465Y681934D01*
X921338Y681965D01*
X921237Y681972D01*
X921172Y681983D01*
X921106Y681982D01*
X921004Y681989D01*
X717296Y681989D01*
X717167Y681977D01*
X717037Y681975D01*
X716954Y681957D01*
X716871Y681949D01*
X716746Y681913D01*
X716619Y681887D01*
X716541Y681854D01*
X716460Y681831D01*
X716344Y681772D01*
X716224Y681722D01*
X716154Y681676D01*
X716079Y681638D01*
X715976Y681559D01*
X715867Y681488D01*
X715807Y681429D01*
X715740Y681378D01*
X715654Y681281D01*
X715561Y681191D01*
X715512Y681122D01*
X715456Y681059D01*
X715389Y680948D01*
X715314Y680842D01*
X715279Y680765D01*
X715236Y680693D01*
X715191Y680572D01*
X715137Y680453D01*
X715117Y680372D01*
X715088Y680293D01*
X715066Y680165D01*
X715035Y680038D01*
X715028Y679937D01*
X715017Y679872D01*
X715018Y679806D01*
X715011Y679704D01*
X715011Y599425D01*
X715019Y599337D01*
X715018Y599249D01*
X715039Y599125D01*
X715051Y599000D01*
X715075Y598915D01*
X715090Y598828D01*
X715134Y598710D01*
X715169Y598589D01*
X715209Y598511D01*
X715240Y598428D01*
X715305Y598320D01*
X715362Y598208D01*
X715415Y598138D01*
X715461Y598063D01*
X715572Y597934D01*
X715622Y597870D01*
X715648Y597846D01*
X715680Y597809D01*
X724809Y588680D01*
X724877Y588624D01*
X724938Y588561D01*
X725041Y588488D01*
X725138Y588408D01*
X725215Y588365D01*
X725287Y588314D01*
X725402Y588262D01*
X725512Y588201D01*
X725595Y588174D01*
X725676Y588137D01*
X725798Y588107D01*
X725918Y588068D01*
X726005Y588056D01*
X726091Y588035D01*
X726261Y588023D01*
X726341Y588012D01*
X726377Y588014D01*
X726425Y588011D01*
X727968Y588011D01*
X728056Y588019D01*
X728144Y588018D01*
X728268Y588039D01*
X728394Y588051D01*
X728478Y588075D01*
X728565Y588090D01*
X728683Y588134D01*
X728804Y588169D01*
X728883Y588209D01*
X728965Y588240D01*
X729073Y588305D01*
X729185Y588362D01*
X729255Y588415D01*
X729330Y588461D01*
X729459Y588572D01*
X729524Y588622D01*
X729548Y588648D01*
X729584Y588680D01*
X732120Y591216D01*
X732176Y591283D01*
X732239Y591345D01*
X732312Y591448D01*
X732392Y591545D01*
X732435Y591622D01*
X732486Y591694D01*
X732538Y591808D01*
X732599Y591918D01*
X732626Y592002D01*
X732663Y592082D01*
X732693Y592205D01*
X732732Y592324D01*
X732744Y592412D01*
X732765Y592497D01*
X732777Y592667D01*
X732788Y592748D01*
X732786Y592783D01*
X732789Y592832D01*
X732789Y661158D01*
X733369Y662559D01*
X734441Y663631D01*
X735842Y664211D01*
X826258Y664211D01*
X827659Y663631D01*
X828731Y662559D01*
X829311Y661158D01*
X829311Y545342D01*
X828731Y543941D01*
X827659Y542869D01*
X826258Y542289D01*
X780796Y542289D01*
X780667Y542277D01*
X780537Y542275D01*
X780454Y542257D01*
X780371Y542249D01*
X780246Y542213D01*
X780119Y542187D01*
X780041Y542154D01*
X779960Y542131D01*
X779844Y542072D01*
X779724Y542022D01*
X779654Y541976D01*
X779579Y541938D01*
X779476Y541859D01*
X779367Y541788D01*
X779307Y541729D01*
X779240Y541678D01*
X779154Y541581D01*
X779061Y541491D01*
X779012Y541422D01*
X778956Y541359D01*
X778889Y541248D01*
X778814Y541142D01*
X778779Y541065D01*
X778736Y540993D01*
X778691Y540872D01*
X778637Y540753D01*
X778617Y540672D01*
X778588Y540593D01*
X778566Y540465D01*
X778535Y540338D01*
X778528Y540237D01*
X778517Y540172D01*
X778518Y540106D01*
X778511Y540004D01*
X778511Y453946D01*
X778521Y453838D01*
X778521Y453729D01*
X778541Y453625D01*
X778551Y453521D01*
X778581Y453416D01*
X778601Y453309D01*
X778640Y453212D01*
X778669Y453111D01*
X778718Y453013D01*
X778758Y452912D01*
X778814Y452823D01*
X778862Y452729D01*
X778928Y452643D01*
X778986Y452551D01*
X779058Y452474D01*
X779122Y452391D01*
X779203Y452318D01*
X779278Y452238D01*
X779362Y452176D01*
X779441Y452106D01*
X779534Y452050D01*
X779622Y451986D01*
X779626Y451984D01*
X782139Y449471D01*
X783475Y446245D01*
X783475Y442755D01*
X782139Y439529D01*
X779671Y437061D01*
X776445Y435725D01*
X772955Y435725D01*
X769729Y437061D01*
X767261Y439529D01*
X765925Y442755D01*
X765925Y446245D01*
X767261Y449471D01*
X769790Y452000D01*
X769856Y452034D01*
X769941Y452103D01*
X770033Y452162D01*
X770108Y452235D01*
X770190Y452301D01*
X770261Y452384D01*
X770339Y452459D01*
X770400Y452545D01*
X770468Y452625D01*
X770523Y452719D01*
X770586Y452808D01*
X770629Y452904D01*
X770682Y452995D01*
X770718Y453098D01*
X770763Y453197D01*
X770788Y453299D01*
X770823Y453398D01*
X770839Y453506D01*
X770865Y453612D01*
X770874Y453744D01*
X770886Y453820D01*
X770884Y453872D01*
X770889Y453946D01*
X770889Y546858D01*
X771469Y548259D01*
X772541Y549331D01*
X773942Y549911D01*
X819404Y549911D01*
X819533Y549923D01*
X819663Y549925D01*
X819746Y549943D01*
X819829Y549951D01*
X819954Y549987D01*
X820081Y550013D01*
X820159Y550046D01*
X820240Y550069D01*
X820356Y550128D01*
X820476Y550178D01*
X820546Y550224D01*
X820621Y550262D01*
X820724Y550341D01*
X820833Y550412D01*
X820893Y550471D01*
X820960Y550522D01*
X821046Y550619D01*
X821139Y550709D01*
X821188Y550778D01*
X821244Y550841D01*
X821311Y550952D01*
X821386Y551058D01*
X821421Y551135D01*
X821464Y551207D01*
X821509Y551328D01*
X821563Y551447D01*
X821583Y551528D01*
X821612Y551607D01*
X821634Y551735D01*
X821665Y551862D01*
X821672Y551963D01*
X821683Y552028D01*
X821682Y552094D01*
X821689Y552196D01*
X821689Y654304D01*
X821677Y654433D01*
X821675Y654563D01*
X821657Y654646D01*
X821649Y654729D01*
X821613Y654854D01*
X821587Y654981D01*
X821554Y655059D01*
X821531Y655140D01*
X821472Y655256D01*
X821422Y655376D01*
X821376Y655446D01*
X821338Y655521D01*
X821259Y655624D01*
X821188Y655733D01*
X821129Y655793D01*
X821078Y655860D01*
X820981Y655946D01*
X820891Y656039D01*
X820822Y656088D01*
X820759Y656144D01*
X820648Y656211D01*
X820542Y656286D01*
X820465Y656321D01*
X820393Y656364D01*
X820272Y656409D01*
X820153Y656463D01*
X820072Y656483D01*
X819993Y656512D01*
X819865Y656534D01*
X819738Y656565D01*
X819637Y656572D01*
X819572Y656583D01*
X819506Y656582D01*
X819404Y656589D01*
X742696Y656589D01*
X742567Y656577D01*
X742437Y656575D01*
X742354Y656557D01*
X742271Y656549D01*
X742146Y656513D01*
X742019Y656487D01*
X741941Y656454D01*
X741860Y656431D01*
X741744Y656372D01*
X741624Y656322D01*
X741554Y656276D01*
X741479Y656238D01*
X741376Y656159D01*
X741267Y656088D01*
X741207Y656029D01*
X741140Y655978D01*
X741054Y655881D01*
X740961Y655791D01*
X740912Y655722D01*
X740856Y655659D01*
X740789Y655548D01*
X740714Y655442D01*
X740679Y655365D01*
X740636Y655293D01*
X740591Y655172D01*
X740537Y655053D01*
X740517Y654972D01*
X740488Y654893D01*
X740466Y654765D01*
X740435Y654638D01*
X740428Y654537D01*
X740417Y654472D01*
X740418Y654406D01*
X740411Y654304D01*
X740411Y612810D01*
X740427Y612639D01*
X740437Y612468D01*
X740447Y612427D01*
X740451Y612385D01*
X740498Y612220D01*
X740540Y612053D01*
X740557Y612015D01*
X740569Y611975D01*
X740646Y611821D01*
X740718Y611665D01*
X740743Y611631D01*
X740762Y611594D01*
X740866Y611457D01*
X740966Y611317D01*
X740996Y611288D01*
X741022Y611255D01*
X741150Y611140D01*
X741274Y611022D01*
X741309Y610999D01*
X741341Y610971D01*
X741488Y610882D01*
X741632Y610788D01*
X741671Y610772D01*
X741707Y610750D01*
X741867Y610691D01*
X742027Y610625D01*
X742068Y610617D01*
X742107Y610602D01*
X742277Y610574D01*
X742445Y610539D01*
X742487Y610538D01*
X742528Y610531D01*
X742700Y610535D01*
X742872Y610532D01*
X742913Y610539D01*
X742955Y610540D01*
X743123Y610575D01*
X743293Y610604D01*
X743332Y610619D01*
X743373Y610628D01*
X743532Y610694D01*
X743693Y610754D01*
X743729Y610776D01*
X743768Y610792D01*
X743911Y610886D01*
X744058Y610975D01*
X744095Y611007D01*
X744124Y611027D01*
X744183Y611083D01*
X744312Y611194D01*
X745512Y612395D01*
X747015Y612395D01*
X747015Y603250D01*
X747015Y594105D01*
X745512Y594105D01*
X744312Y595306D01*
X744180Y595415D01*
X744051Y595529D01*
X744015Y595551D01*
X743983Y595578D01*
X743833Y595661D01*
X743685Y595750D01*
X743646Y595764D01*
X743609Y595784D01*
X743446Y595838D01*
X743285Y595898D01*
X743243Y595905D01*
X743203Y595918D01*
X743033Y595940D01*
X742864Y595969D01*
X742822Y595968D01*
X742780Y595973D01*
X742608Y595964D01*
X742437Y595960D01*
X742395Y595951D01*
X742353Y595949D01*
X742187Y595908D01*
X742019Y595872D01*
X741980Y595856D01*
X741939Y595846D01*
X741783Y595774D01*
X741624Y595708D01*
X741589Y595685D01*
X741551Y595667D01*
X741411Y595568D01*
X741267Y595473D01*
X741237Y595444D01*
X741203Y595420D01*
X741084Y595296D01*
X740961Y595176D01*
X740936Y595142D01*
X740907Y595112D01*
X740813Y594968D01*
X740714Y594828D01*
X740697Y594789D01*
X740674Y594754D01*
X740608Y594595D01*
X740537Y594439D01*
X740527Y594398D01*
X740511Y594359D01*
X740476Y594191D01*
X740435Y594024D01*
X740432Y593976D01*
X740425Y593941D01*
X740423Y593860D01*
X740411Y593690D01*
X740411Y592832D01*
X740419Y592744D01*
X740418Y592656D01*
X740439Y592532D01*
X740451Y592406D01*
X740475Y592322D01*
X740490Y592235D01*
X740534Y592117D01*
X740569Y591996D01*
X740609Y591917D01*
X740640Y591835D01*
X740705Y591727D01*
X740762Y591615D01*
X740815Y591545D01*
X740861Y591470D01*
X740972Y591341D01*
X741022Y591276D01*
X741048Y591252D01*
X741080Y591216D01*
X744729Y587567D01*
X744729Y580833D01*
X741080Y577184D01*
X741024Y577117D01*
X740961Y577055D01*
X740888Y576952D01*
X740808Y576855D01*
X740765Y576778D01*
X740714Y576706D01*
X740662Y576592D01*
X740601Y576482D01*
X740574Y576398D01*
X740537Y576318D01*
X740507Y576195D01*
X740468Y576076D01*
X740456Y575988D01*
X740435Y575903D01*
X740423Y575733D01*
X740412Y575652D01*
X740414Y575617D01*
X740411Y575568D01*
X740411Y558042D01*
X739831Y556641D01*
X728380Y545191D01*
X728324Y545123D01*
X728261Y545062D01*
X728188Y544959D01*
X728108Y544862D01*
X728065Y544785D01*
X728014Y544713D01*
X727962Y544598D01*
X727901Y544488D01*
X727874Y544405D01*
X727837Y544324D01*
X727807Y544202D01*
X727768Y544082D01*
X727756Y543995D01*
X727735Y543909D01*
X727723Y543739D01*
X727712Y543659D01*
X727714Y543623D01*
X727711Y543575D01*
X727711Y380242D01*
X727131Y378841D01*
X726059Y377769D01*
X724658Y377189D01*
X659642Y377189D01*
X658241Y377769D01*
X657169Y378841D01*
X656589Y380242D01*
X656589Y496058D01*
X657169Y497459D01*
X668620Y508909D01*
X668676Y508977D01*
X668739Y509038D01*
X668812Y509141D01*
X668892Y509238D01*
X668935Y509315D01*
X668986Y509387D01*
X669038Y509502D01*
X669099Y509612D01*
X669126Y509695D01*
X669163Y509776D01*
X669193Y509898D01*
X669232Y510018D01*
X669244Y510105D01*
X669265Y510191D01*
X669277Y510361D01*
X669288Y510441D01*
X669286Y510477D01*
X669289Y510525D01*
X669289Y576076D01*
X669273Y576247D01*
X669263Y576419D01*
X669253Y576460D01*
X669249Y576502D01*
X669202Y576667D01*
X669160Y576833D01*
X669143Y576872D01*
X669131Y576912D01*
X669054Y577065D01*
X668982Y577222D01*
X668957Y577256D01*
X668938Y577293D01*
X668834Y577429D01*
X668734Y577570D01*
X668704Y577599D01*
X668678Y577632D01*
X668550Y577747D01*
X668426Y577865D01*
X668391Y577888D01*
X668359Y577916D01*
X668212Y578005D01*
X668068Y578099D01*
X668029Y578115D01*
X667993Y578136D01*
X667832Y578196D01*
X667673Y578261D01*
X667632Y578270D01*
X667593Y578285D01*
X667423Y578313D01*
X667255Y578348D01*
X667213Y578349D01*
X667172Y578356D01*
X667000Y578352D01*
X666828Y578355D01*
X666787Y578348D01*
X666745Y578347D01*
X666576Y578312D01*
X666407Y578282D01*
X666368Y578268D01*
X666327Y578259D01*
X666168Y578193D01*
X666007Y578133D01*
X665971Y578111D01*
X665932Y578095D01*
X665789Y578001D01*
X665642Y577911D01*
X665605Y577880D01*
X665576Y577860D01*
X665517Y577804D01*
X665388Y577692D01*
X664880Y577184D01*
X664824Y577116D01*
X664761Y577055D01*
X664688Y576952D01*
X664608Y576855D01*
X664565Y576778D01*
X664514Y576706D01*
X664462Y576591D01*
X664401Y576481D01*
X664374Y576398D01*
X664337Y576318D01*
X664307Y576195D01*
X664268Y576076D01*
X664256Y575989D01*
X664235Y575903D01*
X664223Y575733D01*
X664212Y575652D01*
X664214Y575617D01*
X664211Y575568D01*
X664211Y558042D01*
X663631Y556641D01*
X652180Y545191D01*
X652124Y545123D01*
X652061Y545062D01*
X651988Y544959D01*
X651908Y544862D01*
X651865Y544785D01*
X651814Y544713D01*
X651762Y544598D01*
X651701Y544488D01*
X651674Y544405D01*
X651637Y544324D01*
X651607Y544202D01*
X651568Y544082D01*
X651556Y543995D01*
X651535Y543909D01*
X651523Y543739D01*
X651512Y543659D01*
X651514Y543623D01*
X651511Y543575D01*
X651511Y374396D01*
X651523Y374267D01*
X651525Y374137D01*
X651543Y374054D01*
X651551Y373971D01*
X651587Y373846D01*
X651613Y373719D01*
X651646Y373641D01*
X651669Y373560D01*
X651728Y373444D01*
X651778Y373324D01*
X651824Y373254D01*
X651862Y373179D01*
X651941Y373076D01*
X652012Y372967D01*
X652071Y372907D01*
X652122Y372840D01*
X652219Y372754D01*
X652309Y372661D01*
X652378Y372612D01*
X652441Y372556D01*
X652552Y372489D01*
X652658Y372414D01*
X652735Y372379D01*
X652807Y372336D01*
X652928Y372291D01*
X653047Y372237D01*
X653128Y372217D01*
X653207Y372188D01*
X653335Y372166D01*
X653462Y372135D01*
X653563Y372128D01*
X653628Y372117D01*
X653694Y372118D01*
X653796Y372111D01*
X730504Y372111D01*
X730633Y372123D01*
X730763Y372125D01*
X730846Y372143D01*
X730929Y372151D01*
X731054Y372187D01*
X731181Y372213D01*
X731259Y372246D01*
X731340Y372269D01*
X731456Y372328D01*
X731576Y372378D01*
X731646Y372424D01*
X731721Y372462D01*
X731824Y372541D01*
X731933Y372612D01*
X731993Y372671D01*
X732060Y372722D01*
X732146Y372819D01*
X732239Y372909D01*
X732288Y372978D01*
X732344Y373041D01*
X732411Y373152D01*
X732486Y373258D01*
X732521Y373335D01*
X732564Y373407D01*
X732609Y373528D01*
X732663Y373647D01*
X732683Y373728D01*
X732712Y373807D01*
X732734Y373935D01*
X732765Y374062D01*
X732772Y374163D01*
X732783Y374228D01*
X732782Y374294D01*
X732789Y374396D01*
X732789Y496058D01*
X733369Y497459D01*
X757520Y521609D01*
X757576Y521677D01*
X757639Y521738D01*
X757712Y521841D01*
X757792Y521938D01*
X757835Y522015D01*
X757886Y522087D01*
X757938Y522202D01*
X757999Y522312D01*
X758026Y522395D01*
X758063Y522476D01*
X758093Y522598D01*
X758132Y522718D01*
X758144Y522805D01*
X758165Y522891D01*
X758177Y523061D01*
X758188Y523141D01*
X758186Y523177D01*
X758189Y523225D01*
X758189Y575568D01*
X758181Y575656D01*
X758182Y575744D01*
X758161Y575868D01*
X758149Y575994D01*
X758125Y576078D01*
X758110Y576165D01*
X758066Y576283D01*
X758031Y576404D01*
X757991Y576483D01*
X757960Y576565D01*
X757895Y576673D01*
X757838Y576785D01*
X757785Y576855D01*
X757739Y576930D01*
X757628Y577059D01*
X757578Y577124D01*
X757552Y577148D01*
X757520Y577184D01*
X753871Y580833D01*
X753871Y587567D01*
X758633Y592329D01*
X765367Y592329D01*
X770129Y587567D01*
X770129Y580833D01*
X766480Y577184D01*
X766424Y577117D01*
X766361Y577055D01*
X766288Y576952D01*
X766208Y576855D01*
X766165Y576778D01*
X766114Y576706D01*
X766062Y576592D01*
X766001Y576482D01*
X765974Y576398D01*
X765937Y576318D01*
X765907Y576195D01*
X765868Y576076D01*
X765856Y575988D01*
X765835Y575903D01*
X765823Y575733D01*
X765812Y575652D01*
X765814Y575617D01*
X765811Y575568D01*
X765811Y519942D01*
X765231Y518541D01*
X741080Y494391D01*
X741024Y494323D01*
X740961Y494262D01*
X740888Y494159D01*
X740808Y494062D01*
X740765Y493985D01*
X740714Y493913D01*
X740662Y493798D01*
X740601Y493688D01*
X740574Y493605D01*
X740537Y493524D01*
X740507Y493402D01*
X740468Y493282D01*
X740456Y493195D01*
X740435Y493109D01*
X740423Y492939D01*
X740412Y492859D01*
X740414Y492823D01*
X740411Y492775D01*
X740411Y367542D01*
X739831Y366141D01*
X738759Y365069D01*
X737358Y364489D01*
X646942Y364489D01*
G37*
%LPD*%
%LPC*%
G36*
X494542Y364489D02*
X494542Y364489D01*
X493141Y365069D01*
X492069Y366141D01*
X491489Y367542D01*
X491489Y483358D01*
X492069Y484759D01*
X493141Y485831D01*
X494542Y486411D01*
X518175Y486411D01*
X518263Y486419D01*
X518351Y486418D01*
X518475Y486439D01*
X518600Y486451D01*
X518685Y486475D01*
X518772Y486490D01*
X518890Y486534D01*
X519011Y486569D01*
X519089Y486609D01*
X519172Y486640D01*
X519280Y486705D01*
X519392Y486762D01*
X519462Y486815D01*
X519537Y486861D01*
X519666Y486972D01*
X519730Y487022D01*
X519754Y487048D01*
X519791Y487080D01*
X528920Y496209D01*
X528976Y496277D01*
X529039Y496338D01*
X529112Y496441D01*
X529192Y496538D01*
X529235Y496615D01*
X529286Y496687D01*
X529338Y496802D01*
X529399Y496912D01*
X529426Y496995D01*
X529463Y497076D01*
X529493Y497198D01*
X529532Y497318D01*
X529544Y497405D01*
X529565Y497491D01*
X529577Y497661D01*
X529588Y497741D01*
X529586Y497777D01*
X529589Y497825D01*
X529589Y616204D01*
X529577Y616333D01*
X529575Y616463D01*
X529557Y616546D01*
X529549Y616629D01*
X529513Y616754D01*
X529487Y616881D01*
X529454Y616959D01*
X529431Y617040D01*
X529372Y617156D01*
X529322Y617276D01*
X529276Y617346D01*
X529238Y617421D01*
X529159Y617524D01*
X529088Y617633D01*
X529029Y617693D01*
X528978Y617760D01*
X528881Y617846D01*
X528791Y617939D01*
X528722Y617988D01*
X528659Y618044D01*
X528548Y618111D01*
X528442Y618186D01*
X528365Y618221D01*
X528293Y618264D01*
X528172Y618309D01*
X528053Y618363D01*
X527972Y618383D01*
X527893Y618412D01*
X527765Y618434D01*
X527638Y618465D01*
X527537Y618472D01*
X527472Y618483D01*
X527406Y618482D01*
X527304Y618489D01*
X520046Y618489D01*
X519938Y618479D01*
X519828Y618479D01*
X519725Y618459D01*
X519621Y618449D01*
X519516Y618419D01*
X519409Y618399D01*
X519312Y618360D01*
X519210Y618331D01*
X519113Y618282D01*
X519012Y618242D01*
X518923Y618186D01*
X518829Y618138D01*
X518743Y618072D01*
X518651Y618014D01*
X518574Y617942D01*
X518491Y617878D01*
X518418Y617797D01*
X518338Y617722D01*
X518276Y617638D01*
X518206Y617559D01*
X518150Y617466D01*
X518086Y617378D01*
X518026Y617259D01*
X517986Y617193D01*
X517968Y617145D01*
X517935Y617079D01*
X517475Y615969D01*
X514331Y612825D01*
X513221Y612365D01*
X513125Y612314D01*
X513024Y612272D01*
X512937Y612215D01*
X512844Y612166D01*
X512759Y612098D01*
X512667Y612038D01*
X512592Y611965D01*
X512510Y611899D01*
X512439Y611817D01*
X512361Y611741D01*
X512300Y611655D01*
X512232Y611575D01*
X512177Y611481D01*
X512114Y611392D01*
X512071Y611296D01*
X512018Y611205D01*
X511982Y611102D01*
X511937Y611003D01*
X511912Y610901D01*
X511877Y610802D01*
X511861Y610694D01*
X511835Y610588D01*
X511826Y610456D01*
X511814Y610380D01*
X511816Y610328D01*
X511811Y610254D01*
X511811Y532746D01*
X511821Y532638D01*
X511821Y532528D01*
X511841Y532425D01*
X511851Y532321D01*
X511881Y532216D01*
X511901Y532109D01*
X511940Y532011D01*
X511969Y531910D01*
X512018Y531813D01*
X512058Y531712D01*
X512114Y531623D01*
X512162Y531529D01*
X512228Y531443D01*
X512286Y531351D01*
X512358Y531274D01*
X512422Y531191D01*
X512503Y531118D01*
X512578Y531038D01*
X512662Y530976D01*
X512741Y530906D01*
X512834Y530850D01*
X512922Y530785D01*
X513041Y530726D01*
X513107Y530686D01*
X513155Y530668D01*
X513221Y530635D01*
X514331Y530175D01*
X517475Y527031D01*
X519177Y522923D01*
X519177Y518477D01*
X517475Y514369D01*
X514331Y511225D01*
X510223Y509523D01*
X505777Y509523D01*
X501669Y511225D01*
X498525Y514369D01*
X496823Y518477D01*
X496823Y522923D01*
X498525Y527031D01*
X501669Y530175D01*
X502779Y530635D01*
X502875Y530686D01*
X502976Y530728D01*
X503063Y530785D01*
X503156Y530834D01*
X503241Y530902D01*
X503333Y530962D01*
X503408Y531035D01*
X503490Y531101D01*
X503561Y531183D01*
X503639Y531259D01*
X503700Y531345D01*
X503768Y531425D01*
X503823Y531519D01*
X503886Y531608D01*
X503929Y531704D01*
X503982Y531795D01*
X504018Y531897D01*
X504063Y531997D01*
X504088Y532099D01*
X504123Y532198D01*
X504139Y532305D01*
X504165Y532412D01*
X504174Y532544D01*
X504186Y532620D01*
X504184Y532672D01*
X504189Y532746D01*
X504189Y610254D01*
X504179Y610362D01*
X504179Y610472D01*
X504159Y610575D01*
X504149Y610679D01*
X504119Y610784D01*
X504099Y610891D01*
X504060Y610988D01*
X504031Y611090D01*
X503982Y611187D01*
X503942Y611288D01*
X503886Y611377D01*
X503838Y611471D01*
X503772Y611557D01*
X503714Y611649D01*
X503642Y611726D01*
X503578Y611809D01*
X503497Y611882D01*
X503422Y611962D01*
X503338Y612024D01*
X503259Y612094D01*
X503166Y612150D01*
X503078Y612214D01*
X502959Y612274D01*
X502893Y612314D01*
X502845Y612332D01*
X502779Y612365D01*
X501669Y612825D01*
X498525Y615969D01*
X496823Y620077D01*
X496823Y624523D01*
X498525Y628631D01*
X501669Y631775D01*
X505777Y633477D01*
X510223Y633477D01*
X514331Y631775D01*
X517475Y628631D01*
X517935Y627521D01*
X517986Y627425D01*
X518028Y627324D01*
X518085Y627237D01*
X518134Y627144D01*
X518202Y627059D01*
X518262Y626967D01*
X518335Y626892D01*
X518401Y626810D01*
X518483Y626739D01*
X518559Y626661D01*
X518645Y626600D01*
X518725Y626532D01*
X518819Y626477D01*
X518908Y626414D01*
X519004Y626371D01*
X519095Y626318D01*
X519198Y626282D01*
X519297Y626237D01*
X519399Y626212D01*
X519498Y626177D01*
X519606Y626161D01*
X519712Y626135D01*
X519844Y626126D01*
X519920Y626114D01*
X519972Y626116D01*
X520046Y626111D01*
X534158Y626111D01*
X535559Y625531D01*
X536631Y624459D01*
X537211Y623058D01*
X537211Y494542D01*
X536631Y493141D01*
X522859Y479369D01*
X521458Y478789D01*
X501396Y478789D01*
X501267Y478777D01*
X501137Y478775D01*
X501054Y478757D01*
X500971Y478749D01*
X500846Y478713D01*
X500719Y478687D01*
X500641Y478654D01*
X500560Y478631D01*
X500444Y478572D01*
X500324Y478522D01*
X500254Y478476D01*
X500179Y478438D01*
X500076Y478359D01*
X499967Y478288D01*
X499907Y478229D01*
X499840Y478178D01*
X499754Y478081D01*
X499661Y477991D01*
X499612Y477922D01*
X499556Y477859D01*
X499489Y477748D01*
X499414Y477642D01*
X499379Y477565D01*
X499336Y477493D01*
X499291Y477372D01*
X499237Y477253D01*
X499217Y477172D01*
X499188Y477093D01*
X499166Y476965D01*
X499135Y476838D01*
X499128Y476737D01*
X499117Y476672D01*
X499118Y476606D01*
X499111Y476504D01*
X499111Y374396D01*
X499123Y374267D01*
X499125Y374137D01*
X499143Y374054D01*
X499151Y373971D01*
X499187Y373846D01*
X499213Y373719D01*
X499246Y373641D01*
X499269Y373560D01*
X499328Y373444D01*
X499378Y373324D01*
X499424Y373254D01*
X499462Y373179D01*
X499541Y373076D01*
X499612Y372967D01*
X499671Y372907D01*
X499722Y372840D01*
X499819Y372754D01*
X499909Y372661D01*
X499978Y372612D01*
X500041Y372556D01*
X500152Y372489D01*
X500258Y372414D01*
X500335Y372379D01*
X500407Y372336D01*
X500528Y372291D01*
X500647Y372237D01*
X500728Y372217D01*
X500807Y372188D01*
X500935Y372166D01*
X501062Y372135D01*
X501163Y372128D01*
X501228Y372117D01*
X501294Y372118D01*
X501396Y372111D01*
X628904Y372111D01*
X629033Y372123D01*
X629163Y372125D01*
X629246Y372143D01*
X629329Y372151D01*
X629454Y372187D01*
X629581Y372213D01*
X629659Y372246D01*
X629740Y372269D01*
X629856Y372328D01*
X629976Y372378D01*
X630046Y372424D01*
X630121Y372462D01*
X630224Y372541D01*
X630333Y372612D01*
X630393Y372671D01*
X630460Y372722D01*
X630546Y372819D01*
X630639Y372909D01*
X630688Y372978D01*
X630744Y373041D01*
X630811Y373152D01*
X630886Y373258D01*
X630921Y373335D01*
X630964Y373407D01*
X631009Y373528D01*
X631063Y373647D01*
X631083Y373728D01*
X631112Y373807D01*
X631134Y373935D01*
X631165Y374062D01*
X631172Y374163D01*
X631183Y374228D01*
X631182Y374294D01*
X631189Y374396D01*
X631189Y514604D01*
X631177Y514733D01*
X631175Y514863D01*
X631157Y514946D01*
X631149Y515029D01*
X631113Y515154D01*
X631087Y515281D01*
X631054Y515359D01*
X631031Y515440D01*
X630972Y515556D01*
X630922Y515676D01*
X630876Y515746D01*
X630838Y515821D01*
X630759Y515924D01*
X630688Y516033D01*
X630629Y516093D01*
X630578Y516160D01*
X630481Y516246D01*
X630391Y516339D01*
X630322Y516388D01*
X630259Y516444D01*
X630148Y516511D01*
X630042Y516586D01*
X629965Y516621D01*
X629893Y516664D01*
X629772Y516709D01*
X629653Y516763D01*
X629572Y516783D01*
X629493Y516812D01*
X629365Y516834D01*
X629238Y516865D01*
X629137Y516872D01*
X629072Y516883D01*
X629006Y516882D01*
X628904Y516889D01*
X583442Y516889D01*
X582041Y517469D01*
X580969Y518541D01*
X580389Y519942D01*
X580389Y575568D01*
X580381Y575656D01*
X580382Y575744D01*
X580361Y575868D01*
X580349Y575994D01*
X580325Y576078D01*
X580310Y576165D01*
X580266Y576283D01*
X580231Y576404D01*
X580191Y576483D01*
X580160Y576565D01*
X580095Y576673D01*
X580038Y576785D01*
X579985Y576855D01*
X579939Y576930D01*
X579828Y577059D01*
X579778Y577124D01*
X579752Y577148D01*
X579720Y577184D01*
X576071Y580833D01*
X576071Y587567D01*
X580833Y592329D01*
X587567Y592329D01*
X592329Y587567D01*
X592329Y580833D01*
X588680Y577184D01*
X588624Y577117D01*
X588561Y577055D01*
X588488Y576952D01*
X588408Y576855D01*
X588365Y576778D01*
X588314Y576706D01*
X588262Y576591D01*
X588201Y576482D01*
X588174Y576398D01*
X588137Y576318D01*
X588107Y576195D01*
X588068Y576076D01*
X588056Y575988D01*
X588035Y575903D01*
X588023Y575733D01*
X588012Y575652D01*
X588014Y575617D01*
X588011Y575568D01*
X588011Y526796D01*
X588023Y526667D01*
X588025Y526537D01*
X588043Y526454D01*
X588051Y526371D01*
X588087Y526246D01*
X588113Y526119D01*
X588146Y526041D01*
X588169Y525960D01*
X588228Y525844D01*
X588278Y525724D01*
X588324Y525654D01*
X588362Y525579D01*
X588441Y525476D01*
X588512Y525367D01*
X588571Y525307D01*
X588622Y525240D01*
X588719Y525154D01*
X588809Y525061D01*
X588878Y525012D01*
X588941Y524956D01*
X589052Y524889D01*
X589158Y524814D01*
X589235Y524779D01*
X589307Y524736D01*
X589428Y524691D01*
X589547Y524637D01*
X589628Y524617D01*
X589707Y524588D01*
X589835Y524566D01*
X589962Y524535D01*
X590063Y524528D01*
X590128Y524517D01*
X590194Y524518D01*
X590296Y524511D01*
X635758Y524511D01*
X637159Y523931D01*
X638231Y522859D01*
X638811Y521458D01*
X638811Y367542D01*
X638231Y366141D01*
X637159Y365069D01*
X635758Y364489D01*
X494542Y364489D01*
G37*
%LPD*%
%LPC*%
G36*
X199107Y531875D02*
X199107Y531875D01*
X191545Y535008D01*
X185758Y540795D01*
X182625Y548357D01*
X182625Y556543D01*
X185758Y564105D01*
X191545Y569892D01*
X197979Y572557D01*
X198075Y572608D01*
X198176Y572650D01*
X198263Y572708D01*
X198356Y572757D01*
X198441Y572825D01*
X198533Y572885D01*
X198608Y572958D01*
X198690Y573023D01*
X198761Y573106D01*
X198839Y573182D01*
X198900Y573267D01*
X198968Y573347D01*
X199023Y573441D01*
X199086Y573531D01*
X199129Y573626D01*
X199182Y573717D01*
X199218Y573820D01*
X199263Y573919D01*
X199288Y574021D01*
X199323Y574120D01*
X199339Y574228D01*
X199365Y574334D01*
X199374Y574467D01*
X199386Y574543D01*
X199384Y574594D01*
X199389Y574668D01*
X199389Y686558D01*
X199969Y687959D01*
X201041Y689031D01*
X202442Y689611D01*
X407158Y689611D01*
X408559Y689031D01*
X409631Y687959D01*
X410211Y686558D01*
X410211Y634346D01*
X410221Y634238D01*
X410221Y634128D01*
X410241Y634025D01*
X410251Y633921D01*
X410281Y633816D01*
X410301Y633709D01*
X410340Y633612D01*
X410369Y633510D01*
X410418Y633413D01*
X410458Y633312D01*
X410514Y633223D01*
X410562Y633129D01*
X410628Y633043D01*
X410686Y632951D01*
X410758Y632874D01*
X410822Y632791D01*
X410903Y632718D01*
X410978Y632638D01*
X411062Y632576D01*
X411141Y632506D01*
X411234Y632450D01*
X411322Y632386D01*
X411441Y632326D01*
X411507Y632286D01*
X411555Y632268D01*
X411621Y632235D01*
X412731Y631775D01*
X415875Y628631D01*
X417577Y624523D01*
X417577Y620077D01*
X415875Y615969D01*
X412731Y612825D01*
X408623Y611123D01*
X404177Y611123D01*
X400069Y612825D01*
X396925Y615969D01*
X396465Y617079D01*
X396414Y617175D01*
X396372Y617276D01*
X396315Y617363D01*
X396266Y617456D01*
X396198Y617541D01*
X396138Y617633D01*
X396065Y617708D01*
X395999Y617790D01*
X395917Y617861D01*
X395841Y617939D01*
X395755Y618000D01*
X395675Y618068D01*
X395581Y618123D01*
X395492Y618186D01*
X395396Y618229D01*
X395305Y618282D01*
X395202Y618318D01*
X395103Y618363D01*
X395001Y618388D01*
X394902Y618423D01*
X394794Y618439D01*
X394688Y618465D01*
X394556Y618474D01*
X394480Y618486D01*
X394428Y618484D01*
X394354Y618489D01*
X380346Y618489D01*
X380238Y618479D01*
X380128Y618479D01*
X380025Y618459D01*
X379921Y618449D01*
X379816Y618419D01*
X379709Y618399D01*
X379612Y618360D01*
X379510Y618331D01*
X379413Y618282D01*
X379312Y618242D01*
X379223Y618186D01*
X379129Y618138D01*
X379043Y618072D01*
X378951Y618014D01*
X378874Y617942D01*
X378791Y617878D01*
X378718Y617797D01*
X378638Y617722D01*
X378576Y617638D01*
X378506Y617559D01*
X378450Y617466D01*
X378386Y617378D01*
X378326Y617259D01*
X378286Y617193D01*
X378268Y617145D01*
X378235Y617079D01*
X377775Y615969D01*
X374631Y612825D01*
X370523Y611123D01*
X366077Y611123D01*
X361969Y612825D01*
X358825Y615969D01*
X357123Y620077D01*
X357123Y624523D01*
X358825Y628631D01*
X361969Y631775D01*
X366077Y633477D01*
X370523Y633477D01*
X374631Y631775D01*
X377775Y628631D01*
X378235Y627521D01*
X378286Y627425D01*
X378328Y627324D01*
X378385Y627237D01*
X378434Y627144D01*
X378502Y627059D01*
X378562Y626967D01*
X378635Y626892D01*
X378701Y626810D01*
X378783Y626739D01*
X378859Y626661D01*
X378945Y626600D01*
X379025Y626532D01*
X379119Y626477D01*
X379208Y626414D01*
X379304Y626371D01*
X379395Y626318D01*
X379498Y626282D01*
X379597Y626237D01*
X379699Y626212D01*
X379798Y626177D01*
X379906Y626161D01*
X380012Y626135D01*
X380144Y626126D01*
X380220Y626114D01*
X380272Y626116D01*
X380346Y626111D01*
X394354Y626111D01*
X394462Y626121D01*
X394572Y626121D01*
X394675Y626141D01*
X394779Y626151D01*
X394884Y626181D01*
X394991Y626201D01*
X395088Y626240D01*
X395190Y626269D01*
X395287Y626318D01*
X395388Y626358D01*
X395477Y626414D01*
X395571Y626462D01*
X395657Y626528D01*
X395749Y626586D01*
X395826Y626658D01*
X395909Y626722D01*
X395982Y626803D01*
X396062Y626878D01*
X396124Y626962D01*
X396194Y627041D01*
X396250Y627134D01*
X396314Y627222D01*
X396374Y627341D01*
X396414Y627407D01*
X396432Y627455D01*
X396465Y627521D01*
X396925Y628631D01*
X400069Y631775D01*
X401179Y632235D01*
X401275Y632286D01*
X401376Y632328D01*
X401463Y632385D01*
X401556Y632434D01*
X401641Y632502D01*
X401733Y632562D01*
X401808Y632635D01*
X401890Y632701D01*
X401961Y632783D01*
X402039Y632859D01*
X402100Y632945D01*
X402168Y633025D01*
X402223Y633119D01*
X402286Y633208D01*
X402329Y633304D01*
X402382Y633395D01*
X402418Y633498D01*
X402463Y633597D01*
X402488Y633699D01*
X402523Y633798D01*
X402539Y633906D01*
X402565Y634012D01*
X402574Y634144D01*
X402586Y634220D01*
X402584Y634272D01*
X402589Y634346D01*
X402589Y679704D01*
X402577Y679833D01*
X402575Y679963D01*
X402557Y680046D01*
X402549Y680129D01*
X402513Y680254D01*
X402487Y680381D01*
X402454Y680459D01*
X402431Y680540D01*
X402372Y680656D01*
X402322Y680776D01*
X402276Y680846D01*
X402238Y680921D01*
X402159Y681024D01*
X402088Y681133D01*
X402029Y681193D01*
X401978Y681260D01*
X401881Y681346D01*
X401791Y681439D01*
X401722Y681488D01*
X401659Y681544D01*
X401548Y681611D01*
X401442Y681686D01*
X401365Y681721D01*
X401293Y681764D01*
X401172Y681809D01*
X401053Y681863D01*
X400972Y681883D01*
X400893Y681912D01*
X400765Y681934D01*
X400638Y681965D01*
X400537Y681972D01*
X400472Y681983D01*
X400406Y681982D01*
X400304Y681989D01*
X209296Y681989D01*
X209167Y681977D01*
X209037Y681975D01*
X208954Y681957D01*
X208871Y681949D01*
X208746Y681913D01*
X208619Y681887D01*
X208541Y681854D01*
X208460Y681831D01*
X208344Y681772D01*
X208224Y681722D01*
X208154Y681676D01*
X208079Y681638D01*
X207976Y681559D01*
X207867Y681488D01*
X207807Y681429D01*
X207740Y681378D01*
X207654Y681281D01*
X207561Y681191D01*
X207512Y681122D01*
X207456Y681059D01*
X207389Y680948D01*
X207314Y680842D01*
X207279Y680765D01*
X207236Y680693D01*
X207191Y680572D01*
X207137Y680453D01*
X207117Y680372D01*
X207088Y680293D01*
X207066Y680165D01*
X207035Y680038D01*
X207028Y679937D01*
X207017Y679872D01*
X207018Y679806D01*
X207011Y679704D01*
X207011Y574668D01*
X207021Y574560D01*
X207021Y574451D01*
X207041Y574348D01*
X207051Y574243D01*
X207081Y574138D01*
X207101Y574031D01*
X207140Y573934D01*
X207169Y573833D01*
X207218Y573735D01*
X207258Y573634D01*
X207314Y573545D01*
X207362Y573452D01*
X207428Y573365D01*
X207486Y573273D01*
X207558Y573196D01*
X207622Y573113D01*
X207703Y573040D01*
X207778Y572961D01*
X207862Y572898D01*
X207941Y572829D01*
X208034Y572772D01*
X208122Y572708D01*
X208241Y572648D01*
X208307Y572608D01*
X208355Y572591D01*
X208421Y572557D01*
X214855Y569892D01*
X220642Y564105D01*
X223775Y556543D01*
X223775Y548357D01*
X220642Y540795D01*
X214855Y535008D01*
X207293Y531875D01*
X199107Y531875D01*
G37*
%LPD*%
%LPC*%
G36*
X215142Y415289D02*
X215142Y415289D01*
X213741Y415869D01*
X199969Y429641D01*
X199389Y431042D01*
X199389Y466732D01*
X199379Y466840D01*
X199379Y466949D01*
X199359Y467052D01*
X199349Y467157D01*
X199319Y467262D01*
X199299Y467369D01*
X199260Y467466D01*
X199231Y467567D01*
X199182Y467665D01*
X199142Y467766D01*
X199086Y467855D01*
X199038Y467948D01*
X198972Y468035D01*
X198914Y468127D01*
X198842Y468204D01*
X198778Y468287D01*
X198697Y468360D01*
X198622Y468439D01*
X198538Y468502D01*
X198459Y468571D01*
X198366Y468628D01*
X198278Y468692D01*
X198159Y468752D01*
X198093Y468792D01*
X198045Y468809D01*
X197979Y468843D01*
X191545Y471508D01*
X185758Y477295D01*
X182625Y484857D01*
X182625Y493043D01*
X185758Y500605D01*
X191545Y506392D01*
X199107Y509525D01*
X207293Y509525D01*
X214855Y506392D01*
X220642Y500605D01*
X223775Y493043D01*
X223775Y484857D01*
X220642Y477295D01*
X214855Y471508D01*
X208421Y468843D01*
X208325Y468792D01*
X208224Y468750D01*
X208137Y468692D01*
X208044Y468643D01*
X207959Y468575D01*
X207867Y468515D01*
X207792Y468442D01*
X207710Y468377D01*
X207639Y468294D01*
X207561Y468218D01*
X207500Y468133D01*
X207432Y468053D01*
X207377Y467959D01*
X207314Y467869D01*
X207271Y467774D01*
X207218Y467683D01*
X207182Y467580D01*
X207137Y467481D01*
X207112Y467379D01*
X207077Y467280D01*
X207061Y467172D01*
X207035Y467066D01*
X207026Y466933D01*
X207014Y466857D01*
X207016Y466806D01*
X207011Y466732D01*
X207011Y434325D01*
X207019Y434237D01*
X207018Y434149D01*
X207039Y434025D01*
X207051Y433900D01*
X207075Y433815D01*
X207090Y433728D01*
X207134Y433610D01*
X207169Y433489D01*
X207209Y433411D01*
X207240Y433328D01*
X207305Y433220D01*
X207362Y433108D01*
X207415Y433038D01*
X207461Y432963D01*
X207572Y432834D01*
X207622Y432770D01*
X207648Y432746D01*
X207680Y432709D01*
X216809Y423580D01*
X216877Y423524D01*
X216938Y423461D01*
X217041Y423388D01*
X217138Y423308D01*
X217215Y423265D01*
X217287Y423214D01*
X217402Y423162D01*
X217512Y423101D01*
X217595Y423074D01*
X217676Y423037D01*
X217798Y423007D01*
X217918Y422968D01*
X218005Y422956D01*
X218091Y422935D01*
X218261Y422923D01*
X218341Y422912D01*
X218377Y422914D01*
X218425Y422911D01*
X400304Y422911D01*
X400433Y422923D01*
X400563Y422925D01*
X400646Y422943D01*
X400729Y422951D01*
X400854Y422987D01*
X400981Y423013D01*
X401059Y423046D01*
X401140Y423069D01*
X401256Y423128D01*
X401376Y423178D01*
X401446Y423224D01*
X401521Y423262D01*
X401624Y423341D01*
X401733Y423412D01*
X401793Y423471D01*
X401860Y423522D01*
X401946Y423619D01*
X402039Y423709D01*
X402088Y423778D01*
X402144Y423841D01*
X402211Y423952D01*
X402286Y424058D01*
X402321Y424135D01*
X402364Y424207D01*
X402409Y424328D01*
X402463Y424447D01*
X402483Y424528D01*
X402512Y424607D01*
X402534Y424735D01*
X402565Y424862D01*
X402572Y424963D01*
X402583Y425028D01*
X402582Y425094D01*
X402589Y425196D01*
X402589Y508654D01*
X402579Y508762D01*
X402579Y508872D01*
X402559Y508975D01*
X402549Y509079D01*
X402519Y509184D01*
X402499Y509291D01*
X402460Y509388D01*
X402431Y509490D01*
X402382Y509587D01*
X402342Y509688D01*
X402286Y509777D01*
X402238Y509871D01*
X402172Y509957D01*
X402114Y510049D01*
X402042Y510126D01*
X401978Y510209D01*
X401897Y510282D01*
X401822Y510362D01*
X401738Y510424D01*
X401659Y510494D01*
X401566Y510550D01*
X401478Y510614D01*
X401359Y510674D01*
X401293Y510714D01*
X401245Y510732D01*
X401179Y510765D01*
X400069Y511225D01*
X396925Y514369D01*
X396465Y515479D01*
X396414Y515575D01*
X396372Y515676D01*
X396315Y515763D01*
X396266Y515856D01*
X396198Y515941D01*
X396138Y516033D01*
X396065Y516108D01*
X395999Y516190D01*
X395917Y516261D01*
X395841Y516339D01*
X395755Y516400D01*
X395675Y516468D01*
X395581Y516523D01*
X395492Y516586D01*
X395396Y516629D01*
X395305Y516682D01*
X395202Y516718D01*
X395103Y516763D01*
X395001Y516788D01*
X394902Y516823D01*
X394794Y516839D01*
X394688Y516865D01*
X394556Y516874D01*
X394480Y516886D01*
X394428Y516884D01*
X394354Y516889D01*
X380009Y516889D01*
X379901Y516879D01*
X379792Y516879D01*
X379689Y516859D01*
X379584Y516849D01*
X379479Y516819D01*
X379372Y516799D01*
X379275Y516760D01*
X379174Y516731D01*
X379076Y516682D01*
X378975Y516642D01*
X378886Y516586D01*
X378793Y516538D01*
X378706Y516472D01*
X378614Y516414D01*
X378537Y516342D01*
X378454Y516278D01*
X378381Y516197D01*
X378301Y516122D01*
X378239Y516038D01*
X378169Y515959D01*
X378113Y515866D01*
X378049Y515778D01*
X377989Y515659D01*
X377949Y515593D01*
X377931Y515545D01*
X377898Y515479D01*
X377769Y515167D01*
X374625Y512023D01*
X370517Y510321D01*
X366070Y510321D01*
X361963Y512023D01*
X358819Y515167D01*
X357117Y519275D01*
X357117Y523721D01*
X358819Y527829D01*
X361963Y530973D01*
X366070Y532675D01*
X370517Y532675D01*
X374625Y530973D01*
X377769Y527829D01*
X378559Y525921D01*
X378610Y525825D01*
X378652Y525724D01*
X378710Y525637D01*
X378759Y525544D01*
X378827Y525459D01*
X378887Y525367D01*
X378960Y525292D01*
X379025Y525210D01*
X379108Y525139D01*
X379184Y525061D01*
X379269Y525000D01*
X379349Y524932D01*
X379443Y524877D01*
X379532Y524814D01*
X379628Y524771D01*
X379719Y524718D01*
X379822Y524682D01*
X379921Y524637D01*
X380023Y524612D01*
X380122Y524577D01*
X380230Y524561D01*
X380336Y524535D01*
X380469Y524526D01*
X380545Y524514D01*
X380596Y524516D01*
X380670Y524511D01*
X394354Y524511D01*
X394462Y524521D01*
X394572Y524521D01*
X394675Y524541D01*
X394779Y524551D01*
X394884Y524581D01*
X394991Y524601D01*
X395088Y524640D01*
X395190Y524669D01*
X395287Y524718D01*
X395388Y524758D01*
X395477Y524814D01*
X395571Y524862D01*
X395657Y524928D01*
X395749Y524986D01*
X395826Y525058D01*
X395909Y525122D01*
X395982Y525203D01*
X396062Y525278D01*
X396124Y525362D01*
X396194Y525441D01*
X396250Y525534D01*
X396314Y525622D01*
X396374Y525741D01*
X396414Y525807D01*
X396432Y525855D01*
X396465Y525921D01*
X396925Y527031D01*
X400069Y530175D01*
X404177Y531877D01*
X408623Y531877D01*
X412731Y530175D01*
X415875Y527031D01*
X417577Y522923D01*
X417577Y518477D01*
X415875Y514369D01*
X412731Y511225D01*
X411621Y510765D01*
X411525Y510714D01*
X411424Y510672D01*
X411337Y510615D01*
X411244Y510566D01*
X411159Y510498D01*
X411067Y510438D01*
X410992Y510365D01*
X410910Y510299D01*
X410839Y510217D01*
X410761Y510141D01*
X410700Y510055D01*
X410632Y509975D01*
X410577Y509881D01*
X410514Y509792D01*
X410471Y509696D01*
X410418Y509605D01*
X410382Y509502D01*
X410337Y509403D01*
X410312Y509301D01*
X410277Y509202D01*
X410261Y509094D01*
X410235Y508988D01*
X410226Y508856D01*
X410214Y508780D01*
X410216Y508728D01*
X410211Y508654D01*
X410211Y418342D01*
X409631Y416941D01*
X408559Y415869D01*
X407158Y415289D01*
X215142Y415289D01*
G37*
%LPD*%
%LPC*%
G36*
X544355Y435725D02*
X544355Y435725D01*
X541129Y437061D01*
X538661Y439529D01*
X537325Y442755D01*
X537325Y446245D01*
X538661Y449471D01*
X541190Y452000D01*
X541256Y452034D01*
X541341Y452103D01*
X541433Y452162D01*
X541508Y452235D01*
X541590Y452301D01*
X541661Y452384D01*
X541739Y452459D01*
X541800Y452545D01*
X541868Y452625D01*
X541923Y452719D01*
X541986Y452808D01*
X542029Y452904D01*
X542082Y452995D01*
X542118Y453098D01*
X542163Y453197D01*
X542188Y453299D01*
X542223Y453398D01*
X542239Y453506D01*
X542265Y453612D01*
X542274Y453744D01*
X542286Y453820D01*
X542284Y453872D01*
X542289Y453946D01*
X542289Y521458D01*
X542869Y522859D01*
X550510Y530499D01*
X550566Y530567D01*
X550629Y530628D01*
X550702Y530731D01*
X550782Y530828D01*
X550825Y530905D01*
X550876Y530977D01*
X550928Y531092D01*
X550989Y531202D01*
X551016Y531285D01*
X551053Y531366D01*
X551083Y531488D01*
X551122Y531608D01*
X551134Y531695D01*
X551155Y531781D01*
X551167Y531951D01*
X551178Y532031D01*
X551176Y532067D01*
X551179Y532115D01*
X551179Y694133D01*
X551169Y694241D01*
X551169Y694351D01*
X551149Y694454D01*
X551139Y694558D01*
X551109Y694663D01*
X551089Y694770D01*
X551050Y694868D01*
X551021Y694969D01*
X550972Y695066D01*
X550932Y695167D01*
X550876Y695256D01*
X550828Y695350D01*
X550762Y695436D01*
X550704Y695528D01*
X550632Y695605D01*
X550568Y695688D01*
X550487Y695761D01*
X550412Y695841D01*
X550328Y695903D01*
X550249Y695973D01*
X550156Y696029D01*
X550068Y696093D01*
X549949Y696153D01*
X549883Y696193D01*
X549835Y696211D01*
X549769Y696244D01*
X548191Y696898D01*
X544815Y700274D01*
X542988Y704685D01*
X542988Y730415D01*
X544815Y734826D01*
X548191Y738203D01*
X552603Y740030D01*
X557377Y740030D01*
X561789Y738203D01*
X565165Y734826D01*
X566992Y730415D01*
X566992Y704685D01*
X565165Y700274D01*
X561789Y696898D01*
X560211Y696244D01*
X560115Y696193D01*
X560014Y696151D01*
X559927Y696094D01*
X559834Y696045D01*
X559749Y695977D01*
X559657Y695917D01*
X559582Y695844D01*
X559500Y695778D01*
X559429Y695696D01*
X559351Y695620D01*
X559290Y695534D01*
X559222Y695454D01*
X559167Y695360D01*
X559104Y695271D01*
X559061Y695175D01*
X559008Y695084D01*
X558972Y694981D01*
X558927Y694882D01*
X558902Y694780D01*
X558867Y694681D01*
X558851Y694573D01*
X558825Y694467D01*
X558816Y694335D01*
X558804Y694259D01*
X558806Y694207D01*
X558801Y694133D01*
X558801Y528832D01*
X558221Y527431D01*
X550580Y519791D01*
X550524Y519723D01*
X550461Y519662D01*
X550388Y519559D01*
X550308Y519462D01*
X550265Y519385D01*
X550214Y519313D01*
X550162Y519198D01*
X550101Y519088D01*
X550074Y519005D01*
X550037Y518924D01*
X550007Y518802D01*
X549968Y518682D01*
X549956Y518595D01*
X549935Y518509D01*
X549923Y518339D01*
X549912Y518259D01*
X549914Y518223D01*
X549911Y518175D01*
X549911Y453946D01*
X549921Y453838D01*
X549921Y453729D01*
X549941Y453625D01*
X549951Y453521D01*
X549981Y453416D01*
X550001Y453309D01*
X550040Y453212D01*
X550069Y453111D01*
X550118Y453013D01*
X550158Y452912D01*
X550214Y452823D01*
X550262Y452729D01*
X550328Y452643D01*
X550386Y452551D01*
X550458Y452474D01*
X550522Y452391D01*
X550603Y452318D01*
X550678Y452238D01*
X550762Y452176D01*
X550841Y452106D01*
X550934Y452050D01*
X551022Y451986D01*
X551026Y451984D01*
X553539Y449471D01*
X554875Y446245D01*
X554875Y442755D01*
X553539Y439529D01*
X551071Y437061D01*
X547845Y435725D01*
X544355Y435725D01*
G37*
%LPD*%
%LPC*%
G36*
X682223Y448563D02*
X682223Y448563D01*
X677163Y453623D01*
X677163Y460777D01*
X681320Y464934D01*
X681376Y465002D01*
X681439Y465063D01*
X681512Y465166D01*
X681592Y465263D01*
X681635Y465340D01*
X681686Y465412D01*
X681738Y465527D01*
X681799Y465637D01*
X681826Y465720D01*
X681863Y465801D01*
X681893Y465923D01*
X681932Y466043D01*
X681944Y466130D01*
X681965Y466216D01*
X681977Y466385D01*
X681988Y466466D01*
X681986Y466502D01*
X681989Y466550D01*
X681989Y693435D01*
X681981Y693523D01*
X681982Y693611D01*
X681961Y693735D01*
X681949Y693860D01*
X681925Y693945D01*
X681910Y694032D01*
X681866Y694150D01*
X681831Y694271D01*
X681791Y694349D01*
X681760Y694432D01*
X681695Y694539D01*
X681638Y694652D01*
X681585Y694722D01*
X681539Y694797D01*
X681428Y694926D01*
X681378Y694990D01*
X681352Y695014D01*
X681320Y695051D01*
X676857Y699514D01*
X676757Y699597D01*
X676663Y699687D01*
X676593Y699733D01*
X676528Y699786D01*
X676414Y699849D01*
X676305Y699920D01*
X676228Y699952D01*
X676154Y699993D01*
X676031Y700033D01*
X675910Y700083D01*
X675828Y700100D01*
X675748Y700126D01*
X675620Y700143D01*
X675492Y700169D01*
X675408Y700171D01*
X675325Y700182D01*
X675195Y700174D01*
X675065Y700176D01*
X674982Y700162D01*
X674898Y700157D01*
X674772Y700126D01*
X674644Y700104D01*
X674566Y700075D01*
X674484Y700054D01*
X674366Y700000D01*
X674244Y699954D01*
X674172Y699911D01*
X674096Y699876D01*
X673990Y699800D01*
X673879Y699733D01*
X673802Y699666D01*
X673748Y699628D01*
X673702Y699581D01*
X673625Y699514D01*
X671009Y696897D01*
X666597Y695070D01*
X661823Y695070D01*
X657411Y696897D01*
X654035Y700274D01*
X652208Y704685D01*
X652208Y730415D01*
X654035Y734826D01*
X657411Y738203D01*
X661823Y740030D01*
X666597Y740030D01*
X671009Y738203D01*
X674385Y734826D01*
X676212Y730415D01*
X676212Y711884D01*
X676220Y711796D01*
X676219Y711708D01*
X676240Y711584D01*
X676252Y711458D01*
X676277Y711374D01*
X676292Y711287D01*
X676336Y711169D01*
X676370Y711048D01*
X676410Y710969D01*
X676441Y710887D01*
X676506Y710779D01*
X676563Y710667D01*
X676617Y710597D01*
X676662Y710522D01*
X676774Y710393D01*
X676823Y710328D01*
X676850Y710304D01*
X676882Y710268D01*
X689031Y698119D01*
X689611Y696718D01*
X689611Y466550D01*
X689619Y466462D01*
X689618Y466374D01*
X689639Y466250D01*
X689651Y466125D01*
X689675Y466040D01*
X689690Y465953D01*
X689734Y465835D01*
X689769Y465714D01*
X689809Y465636D01*
X689840Y465553D01*
X689905Y465445D01*
X689962Y465333D01*
X690015Y465263D01*
X690061Y465188D01*
X690172Y465059D01*
X690222Y464994D01*
X690248Y464971D01*
X690280Y464934D01*
X694437Y460777D01*
X694437Y453623D01*
X689377Y448563D01*
X682223Y448563D01*
G37*
%LPD*%
%LPC*%
G36*
X931599Y518849D02*
X931599Y518849D01*
X931599Y535469D01*
X933086Y535130D01*
X935376Y534329D01*
X937560Y533276D01*
X939613Y531986D01*
X941510Y530474D01*
X943224Y528760D01*
X944736Y526863D01*
X946026Y524810D01*
X947079Y522626D01*
X947880Y520336D01*
X948219Y518849D01*
X931599Y518849D01*
G37*
%LPD*%
%LPC*%
G36*
X905981Y518849D02*
X905981Y518849D01*
X906320Y520336D01*
X907121Y522626D01*
X907760Y523952D01*
X908174Y524810D01*
X909464Y526863D01*
X910976Y528760D01*
X912690Y530474D01*
X914587Y531986D01*
X914844Y532148D01*
X916640Y533276D01*
X918824Y534329D01*
X921114Y535130D01*
X922601Y535469D01*
X922601Y518849D01*
X905981Y518849D01*
G37*
%LPD*%
%LPC*%
G36*
X931599Y509851D02*
X931599Y509851D01*
X948219Y509851D01*
X947880Y508364D01*
X947079Y506074D01*
X946026Y503890D01*
X944736Y501837D01*
X943224Y499940D01*
X941510Y498226D01*
X939613Y496714D01*
X937560Y495424D01*
X935376Y494371D01*
X933086Y493570D01*
X931599Y493231D01*
X931599Y509851D01*
G37*
%LPD*%
%LPC*%
G36*
X921114Y493570D02*
X921114Y493570D01*
X918824Y494371D01*
X916640Y495424D01*
X914587Y496714D01*
X912690Y498226D01*
X910976Y499940D01*
X909464Y501837D01*
X908174Y503890D01*
X907121Y506074D01*
X906320Y508364D01*
X905981Y509851D01*
X922601Y509851D01*
X922601Y493231D01*
X921114Y493570D01*
G37*
%LPD*%
%LPC*%
G36*
X269493Y625093D02*
X269493Y625093D01*
X269493Y634202D01*
X269555Y634192D01*
X271381Y633599D01*
X273090Y632728D01*
X274643Y631600D01*
X276000Y630243D01*
X277128Y628690D01*
X277999Y626981D01*
X278592Y625155D01*
X278602Y625093D01*
X269493Y625093D01*
G37*
%LPD*%
%LPC*%
G36*
X254798Y625093D02*
X254798Y625093D01*
X254808Y625155D01*
X255401Y626981D01*
X256272Y628690D01*
X257400Y630243D01*
X258757Y631600D01*
X260310Y632728D01*
X262019Y633599D01*
X263845Y634192D01*
X263907Y634202D01*
X263907Y625093D01*
X254798Y625093D01*
G37*
%LPD*%
%LPC*%
G36*
X269493Y619507D02*
X269493Y619507D01*
X278602Y619507D01*
X278592Y619445D01*
X277999Y617619D01*
X277128Y615910D01*
X276000Y614357D01*
X274643Y613000D01*
X273090Y611872D01*
X271381Y611001D01*
X269555Y610408D01*
X269493Y610398D01*
X269493Y619507D01*
G37*
%LPD*%
%LPC*%
G36*
X263845Y610408D02*
X263845Y610408D01*
X262019Y611001D01*
X260310Y611872D01*
X258757Y613000D01*
X257400Y614357D01*
X256272Y615910D01*
X255401Y617619D01*
X254808Y619445D01*
X254798Y619507D01*
X263907Y619507D01*
X263907Y610398D01*
X263845Y610408D01*
G37*
%LPD*%
%LPC*%
G36*
X269312Y531834D02*
X269312Y531834D01*
X269561Y531795D01*
X271387Y531201D01*
X273097Y530330D01*
X274649Y529202D01*
X276006Y527845D01*
X277134Y526292D01*
X278006Y524583D01*
X278558Y522882D01*
X269455Y522739D01*
X269312Y531834D01*
G37*
%LPD*%
%LPC*%
G36*
X269543Y517153D02*
X269543Y517153D01*
X278638Y517296D01*
X278599Y517047D01*
X278006Y515221D01*
X277134Y513512D01*
X276006Y511959D01*
X274649Y510602D01*
X273097Y509474D01*
X271387Y508603D01*
X269686Y508050D01*
X269543Y517153D01*
G37*
%LPD*%
%LPC*%
G36*
X263851Y508010D02*
X263851Y508010D01*
X262026Y508603D01*
X260316Y509474D01*
X258763Y510602D01*
X257406Y511959D01*
X256278Y513512D01*
X255407Y515221D01*
X254854Y516922D01*
X263957Y517065D01*
X264100Y507970D01*
X263851Y508010D01*
G37*
%LPD*%
%LPC*%
G36*
X254814Y522757D02*
X254814Y522757D01*
X255407Y524583D01*
X256278Y526292D01*
X257406Y527845D01*
X258763Y529202D01*
X260316Y530330D01*
X262026Y531201D01*
X263726Y531754D01*
X263869Y522651D01*
X254774Y522508D01*
X254814Y522757D01*
G37*
%LPD*%
%LPC*%
G36*
X688085Y434085D02*
X688085Y434085D01*
X688085Y441453D01*
X689798Y441453D01*
X695453Y435798D01*
X695453Y434085D01*
X688085Y434085D01*
G37*
%LPD*%
%LPC*%
G36*
X676147Y434085D02*
X676147Y434085D01*
X676147Y435798D01*
X681802Y441453D01*
X683515Y441453D01*
X683515Y434085D01*
X676147Y434085D01*
G37*
%LPD*%
%LPC*%
G36*
X688085Y422147D02*
X688085Y422147D01*
X688085Y429515D01*
X695453Y429515D01*
X695453Y427802D01*
X689798Y422147D01*
X688085Y422147D01*
G37*
%LPD*%
%LPC*%
G36*
X681802Y422147D02*
X681802Y422147D01*
X676147Y427802D01*
X676147Y429515D01*
X683515Y429515D01*
X683515Y422147D01*
X681802Y422147D01*
G37*
%LPD*%
%LPC*%
G36*
X599185Y446785D02*
X599185Y446785D01*
X599185Y454051D01*
X599193Y454050D01*
X600658Y453573D01*
X602031Y452874D01*
X603278Y451968D01*
X604368Y450878D01*
X605274Y449631D01*
X605973Y448258D01*
X606450Y446793D01*
X606451Y446785D01*
X599185Y446785D01*
G37*
%LPD*%
%LPC*%
G36*
X827785Y446785D02*
X827785Y446785D01*
X827785Y454051D01*
X827793Y454050D01*
X829258Y453573D01*
X830631Y452874D01*
X831878Y451968D01*
X832968Y450878D01*
X833874Y449631D01*
X834573Y448258D01*
X835050Y446793D01*
X835051Y446785D01*
X827785Y446785D01*
G37*
%LPD*%
%LPC*%
G36*
X815949Y446785D02*
X815949Y446785D01*
X815950Y446793D01*
X816427Y448258D01*
X817126Y449631D01*
X818032Y450878D01*
X819122Y451968D01*
X820369Y452874D01*
X821742Y453573D01*
X823207Y454050D01*
X823215Y454051D01*
X823215Y446785D01*
X815949Y446785D01*
G37*
%LPD*%
%LPC*%
G36*
X587349Y446785D02*
X587349Y446785D01*
X587350Y446793D01*
X587827Y448258D01*
X588526Y449631D01*
X589432Y450878D01*
X590522Y451968D01*
X591769Y452874D01*
X593142Y453573D01*
X594607Y454050D01*
X594615Y454051D01*
X594615Y446785D01*
X587349Y446785D01*
G37*
%LPD*%
%LPC*%
G36*
X827785Y442215D02*
X827785Y442215D01*
X835051Y442215D01*
X835050Y442207D01*
X834573Y440742D01*
X833874Y439369D01*
X832968Y438122D01*
X831878Y437032D01*
X830631Y436126D01*
X829258Y435427D01*
X827793Y434950D01*
X827785Y434949D01*
X827785Y442215D01*
G37*
%LPD*%
%LPC*%
G36*
X599185Y442215D02*
X599185Y442215D01*
X606451Y442215D01*
X606450Y442207D01*
X605973Y440742D01*
X605274Y439369D01*
X604368Y438122D01*
X603278Y437032D01*
X602031Y436126D01*
X600658Y435427D01*
X599193Y434950D01*
X599185Y434949D01*
X599185Y442215D01*
G37*
%LPD*%
%LPC*%
G36*
X823207Y434950D02*
X823207Y434950D01*
X821742Y435427D01*
X820369Y436126D01*
X819122Y437032D01*
X818032Y438122D01*
X817126Y439369D01*
X816427Y440742D01*
X815950Y442207D01*
X815949Y442215D01*
X823215Y442215D01*
X823215Y434949D01*
X823207Y434950D01*
G37*
%LPD*%
%LPC*%
G36*
X594607Y434950D02*
X594607Y434950D01*
X593142Y435427D01*
X591769Y436126D01*
X590522Y437032D01*
X589432Y438122D01*
X588526Y439369D01*
X587827Y440742D01*
X587350Y442207D01*
X587349Y442215D01*
X594615Y442215D01*
X594615Y434949D01*
X594607Y434950D01*
G37*
%LPD*%
%LPC*%
G36*
X751585Y605535D02*
X751585Y605535D01*
X751585Y612395D01*
X753088Y612395D01*
X758445Y607038D01*
X758445Y605535D01*
X751585Y605535D01*
G37*
%LPD*%
%LPC*%
G36*
X751585Y594105D02*
X751585Y594105D01*
X751585Y600965D01*
X758445Y600965D01*
X758445Y599462D01*
X753088Y594105D01*
X751585Y594105D01*
G37*
%LPD*%
D10*
X685800Y457200D03*
X685800Y431800D03*
D11*
X546100Y444500D03*
X596900Y444500D03*
X774700Y444500D03*
X825500Y444500D03*
D12*
X266700Y622300D03*
X368300Y622300D03*
X266706Y519902D03*
X368294Y521498D03*
X406400Y622300D03*
X508000Y622300D03*
X406400Y520700D03*
X508000Y520700D03*
D13*
X736600Y584200D03*
X749300Y603250D03*
X762000Y584200D03*
D14*
X664210Y707073D02*
X664210Y728028D01*
X609600Y728028D02*
X609600Y707073D01*
X554990Y707073D02*
X554990Y728028D01*
D13*
X584200Y584200D03*
X660400Y584200D03*
D15*
X203200Y488950D03*
X203200Y552450D03*
X927100Y577850D03*
X927100Y514350D03*
D16*
X406400Y622300D02*
X368300Y622300D01*
X203200Y685800D02*
X203200Y552450D01*
X203200Y685800D02*
X406400Y685800D01*
X406400Y622300D01*
X368294Y521498D02*
X369092Y520700D01*
X406400Y520700D01*
X203200Y488950D02*
X203200Y431800D01*
X215900Y419100D01*
X406400Y419100D01*
X406400Y520700D01*
X508000Y520700D02*
X508000Y622300D01*
X533400Y622300D01*
X533400Y495300D01*
X520700Y482600D01*
X495300Y482600D01*
X495300Y368300D01*
X635000Y368300D01*
X635000Y520700D01*
X584200Y520700D01*
X584200Y584200D01*
X660400Y584200D02*
X660400Y558800D01*
X647700Y546100D01*
X647700Y368300D01*
X736600Y368300D01*
X736600Y495300D01*
X762000Y520700D01*
X762000Y584200D01*
X554990Y529590D02*
X554990Y717550D01*
X554990Y529590D02*
X546100Y520700D01*
X546100Y444500D01*
X685800Y695960D02*
X664210Y717550D01*
X685800Y695960D02*
X685800Y457200D01*
X266700Y520700D02*
X266700Y622300D01*
D17*
X749300Y647700D03*
D16*
X609600Y635000D02*
X609600Y717550D01*
X609600Y635000D02*
X622300Y622300D01*
X673100Y622300D01*
X673100Y508000D01*
X660400Y495300D01*
X660400Y381000D01*
X723900Y381000D01*
X723900Y546100D01*
X927100Y577850D02*
X927100Y685800D01*
X711200Y685800D01*
X711200Y596900D01*
X723900Y584200D01*
X736600Y584200D01*
X736600Y558800D01*
X723900Y546100D01*
X736600Y584200D02*
X736600Y660400D01*
X825500Y660400D02*
X825500Y546100D01*
X774700Y546100D01*
X774700Y444500D01*
X736600Y660400D02*
X825500Y660400D01*
M02*
