G04 EAGLE Gerber RS-274X export*
G75*
%MOMM*%
%FSLAX34Y34*%
%LPD*%
%IN*%
%IPPOS*%
%AMOC8*
5,1,8,0,0,1.08239X$1,22.5*%
G01*
%ADD10C,0.254000*%


D10*
X139700Y279400D02*
X1012700Y279400D01*
X1012700Y800000D01*
X139700Y800000D01*
X139700Y279400D01*
X191800Y761500D02*
X191729Y760503D01*
X191586Y759513D01*
X191374Y758536D01*
X191092Y757576D01*
X190743Y756639D01*
X190327Y755729D01*
X189848Y754852D01*
X189307Y754010D01*
X188708Y753210D01*
X188053Y752454D01*
X187346Y751747D01*
X186590Y751092D01*
X185790Y750493D01*
X184948Y749952D01*
X184071Y749473D01*
X183161Y749057D01*
X182224Y748708D01*
X181265Y748426D01*
X180287Y748214D01*
X179298Y748071D01*
X178300Y748000D01*
X177300Y748000D01*
X176303Y748071D01*
X175313Y748214D01*
X174336Y748426D01*
X173376Y748708D01*
X172439Y749057D01*
X171529Y749473D01*
X170652Y749952D01*
X169810Y750493D01*
X169010Y751092D01*
X168254Y751747D01*
X167547Y752454D01*
X166892Y753210D01*
X166293Y754010D01*
X165752Y754852D01*
X165273Y755729D01*
X164857Y756639D01*
X164508Y757576D01*
X164226Y758536D01*
X164014Y759513D01*
X163871Y760503D01*
X163800Y761500D01*
X163800Y762500D01*
X163871Y763498D01*
X164014Y764487D01*
X164226Y765465D01*
X164508Y766424D01*
X164857Y767361D01*
X165273Y768271D01*
X165752Y769148D01*
X166293Y769990D01*
X166892Y770790D01*
X167547Y771546D01*
X168254Y772253D01*
X169010Y772908D01*
X169810Y773507D01*
X170652Y774048D01*
X171529Y774527D01*
X172439Y774943D01*
X173376Y775292D01*
X174336Y775574D01*
X175313Y775786D01*
X176303Y775929D01*
X177300Y776000D01*
X178300Y776000D01*
X179298Y775929D01*
X180287Y775786D01*
X181265Y775574D01*
X182224Y775292D01*
X183161Y774943D01*
X184071Y774527D01*
X184948Y774048D01*
X185790Y773507D01*
X186590Y772908D01*
X187346Y772253D01*
X188053Y771546D01*
X188708Y770790D01*
X189307Y769990D01*
X189848Y769148D01*
X190327Y768271D01*
X190743Y767361D01*
X191092Y766424D01*
X191374Y765465D01*
X191586Y764487D01*
X191729Y763498D01*
X191800Y762500D01*
X191800Y761500D01*
X191800Y317000D02*
X191729Y316003D01*
X191586Y315013D01*
X191374Y314036D01*
X191092Y313076D01*
X190743Y312139D01*
X190327Y311229D01*
X189848Y310352D01*
X189307Y309510D01*
X188708Y308710D01*
X188053Y307954D01*
X187346Y307247D01*
X186590Y306592D01*
X185790Y305993D01*
X184948Y305452D01*
X184071Y304973D01*
X183161Y304557D01*
X182224Y304208D01*
X181265Y303926D01*
X180287Y303714D01*
X179298Y303571D01*
X178300Y303500D01*
X177300Y303500D01*
X176303Y303571D01*
X175313Y303714D01*
X174336Y303926D01*
X173376Y304208D01*
X172439Y304557D01*
X171529Y304973D01*
X170652Y305452D01*
X169810Y305993D01*
X169010Y306592D01*
X168254Y307247D01*
X167547Y307954D01*
X166892Y308710D01*
X166293Y309510D01*
X165752Y310352D01*
X165273Y311229D01*
X164857Y312139D01*
X164508Y313076D01*
X164226Y314036D01*
X164014Y315013D01*
X163871Y316003D01*
X163800Y317000D01*
X163800Y318000D01*
X163871Y318998D01*
X164014Y319987D01*
X164226Y320965D01*
X164508Y321924D01*
X164857Y322861D01*
X165273Y323771D01*
X165752Y324648D01*
X166293Y325490D01*
X166892Y326290D01*
X167547Y327046D01*
X168254Y327753D01*
X169010Y328408D01*
X169810Y329007D01*
X170652Y329548D01*
X171529Y330027D01*
X172439Y330443D01*
X173376Y330792D01*
X174336Y331074D01*
X175313Y331286D01*
X176303Y331429D01*
X177300Y331500D01*
X178300Y331500D01*
X179298Y331429D01*
X180287Y331286D01*
X181265Y331074D01*
X182224Y330792D01*
X183161Y330443D01*
X184071Y330027D01*
X184948Y329548D01*
X185790Y329007D01*
X186590Y328408D01*
X187346Y327753D01*
X188053Y327046D01*
X188708Y326290D01*
X189307Y325490D01*
X189848Y324648D01*
X190327Y323771D01*
X190743Y322861D01*
X191092Y321924D01*
X191374Y320965D01*
X191586Y319987D01*
X191729Y318998D01*
X191800Y318000D01*
X191800Y317000D01*
X991900Y761500D02*
X991829Y760503D01*
X991686Y759513D01*
X991474Y758536D01*
X991192Y757576D01*
X990843Y756639D01*
X990427Y755729D01*
X989948Y754852D01*
X989407Y754010D01*
X988808Y753210D01*
X988153Y752454D01*
X987446Y751747D01*
X986690Y751092D01*
X985890Y750493D01*
X985048Y749952D01*
X984171Y749473D01*
X983261Y749057D01*
X982324Y748708D01*
X981365Y748426D01*
X980387Y748214D01*
X979398Y748071D01*
X978400Y748000D01*
X977400Y748000D01*
X976403Y748071D01*
X975413Y748214D01*
X974436Y748426D01*
X973476Y748708D01*
X972539Y749057D01*
X971629Y749473D01*
X970752Y749952D01*
X969910Y750493D01*
X969110Y751092D01*
X968354Y751747D01*
X967647Y752454D01*
X966992Y753210D01*
X966393Y754010D01*
X965852Y754852D01*
X965373Y755729D01*
X964957Y756639D01*
X964608Y757576D01*
X964326Y758536D01*
X964114Y759513D01*
X963971Y760503D01*
X963900Y761500D01*
X963900Y762500D01*
X963971Y763498D01*
X964114Y764487D01*
X964326Y765465D01*
X964608Y766424D01*
X964957Y767361D01*
X965373Y768271D01*
X965852Y769148D01*
X966393Y769990D01*
X966992Y770790D01*
X967647Y771546D01*
X968354Y772253D01*
X969110Y772908D01*
X969910Y773507D01*
X970752Y774048D01*
X971629Y774527D01*
X972539Y774943D01*
X973476Y775292D01*
X974436Y775574D01*
X975413Y775786D01*
X976403Y775929D01*
X977400Y776000D01*
X978400Y776000D01*
X979398Y775929D01*
X980387Y775786D01*
X981365Y775574D01*
X982324Y775292D01*
X983261Y774943D01*
X984171Y774527D01*
X985048Y774048D01*
X985890Y773507D01*
X986690Y772908D01*
X987446Y772253D01*
X988153Y771546D01*
X988808Y770790D01*
X989407Y769990D01*
X989948Y769148D01*
X990427Y768271D01*
X990843Y767361D01*
X991192Y766424D01*
X991474Y765465D01*
X991686Y764487D01*
X991829Y763498D01*
X991900Y762500D01*
X991900Y761500D01*
X991900Y317000D02*
X991829Y316003D01*
X991686Y315013D01*
X991474Y314036D01*
X991192Y313076D01*
X990843Y312139D01*
X990427Y311229D01*
X989948Y310352D01*
X989407Y309510D01*
X988808Y308710D01*
X988153Y307954D01*
X987446Y307247D01*
X986690Y306592D01*
X985890Y305993D01*
X985048Y305452D01*
X984171Y304973D01*
X983261Y304557D01*
X982324Y304208D01*
X981365Y303926D01*
X980387Y303714D01*
X979398Y303571D01*
X978400Y303500D01*
X977400Y303500D01*
X976403Y303571D01*
X975413Y303714D01*
X974436Y303926D01*
X973476Y304208D01*
X972539Y304557D01*
X971629Y304973D01*
X970752Y305452D01*
X969910Y305993D01*
X969110Y306592D01*
X968354Y307247D01*
X967647Y307954D01*
X966992Y308710D01*
X966393Y309510D01*
X965852Y310352D01*
X965373Y311229D01*
X964957Y312139D01*
X964608Y313076D01*
X964326Y314036D01*
X964114Y315013D01*
X963971Y316003D01*
X963900Y317000D01*
X963900Y318000D01*
X963971Y318998D01*
X964114Y319987D01*
X964326Y320965D01*
X964608Y321924D01*
X964957Y322861D01*
X965373Y323771D01*
X965852Y324648D01*
X966393Y325490D01*
X966992Y326290D01*
X967647Y327046D01*
X968354Y327753D01*
X969110Y328408D01*
X969910Y329007D01*
X970752Y329548D01*
X971629Y330027D01*
X972539Y330443D01*
X973476Y330792D01*
X974436Y331074D01*
X975413Y331286D01*
X976403Y331429D01*
X977400Y331500D01*
X978400Y331500D01*
X979398Y331429D01*
X980387Y331286D01*
X981365Y331074D01*
X982324Y330792D01*
X983261Y330443D01*
X984171Y330027D01*
X985048Y329548D01*
X985890Y329007D01*
X986690Y328408D01*
X987446Y327753D01*
X988153Y327046D01*
X988808Y326290D01*
X989407Y325490D01*
X989948Y324648D01*
X990427Y323771D01*
X990843Y322861D01*
X991192Y321924D01*
X991474Y320965D01*
X991686Y319987D01*
X991829Y318998D01*
X991900Y318000D01*
X991900Y317000D01*
M02*
