G04 EAGLE Gerber RS-274X export*
G75*
%MOMM*%
%FSLAX34Y34*%
%LPD*%
%INSilkscreen Top*%
%IPPOS*%
%AMOC8*
5,1,8,0,0,1.08239X$1,22.5*%
G01*
%ADD10C,0.152400*%
%ADD11C,0.304800*%
%ADD12C,0.127000*%
%ADD13C,0.120000*%
%ADD14C,0.101600*%
%ADD15R,0.508000X2.540000*%
%ADD16R,1.905000X0.762000*%
%ADD17R,15.748000X1.143000*%
%ADD18R,1.016000X0.381000*%
%ADD19R,2.667000X0.381000*%
%ADD20C,0.203200*%
%ADD21R,0.381000X0.508000*%
%ADD22C,0.076200*%


D10*
X679450Y466090D02*
X692150Y466090D01*
X692290Y466088D01*
X692430Y466082D01*
X692570Y466073D01*
X692709Y466059D01*
X692848Y466042D01*
X692986Y466021D01*
X693124Y465996D01*
X693261Y465967D01*
X693397Y465935D01*
X693532Y465898D01*
X693666Y465858D01*
X693799Y465815D01*
X693931Y465767D01*
X694062Y465717D01*
X694191Y465662D01*
X694318Y465604D01*
X694444Y465543D01*
X694568Y465478D01*
X694690Y465409D01*
X694810Y465338D01*
X694928Y465263D01*
X695045Y465185D01*
X695159Y465103D01*
X695270Y465019D01*
X695379Y464931D01*
X695486Y464841D01*
X695591Y464747D01*
X695692Y464651D01*
X695791Y464552D01*
X695887Y464451D01*
X695981Y464346D01*
X696071Y464239D01*
X696159Y464130D01*
X696243Y464019D01*
X696325Y463905D01*
X696403Y463788D01*
X696478Y463670D01*
X696549Y463550D01*
X696618Y463428D01*
X696683Y463304D01*
X696744Y463178D01*
X696802Y463051D01*
X696857Y462922D01*
X696907Y462791D01*
X696955Y462659D01*
X696998Y462526D01*
X697038Y462392D01*
X697075Y462257D01*
X697107Y462121D01*
X697136Y461984D01*
X697161Y461846D01*
X697182Y461708D01*
X697199Y461569D01*
X697213Y461430D01*
X697222Y461290D01*
X697228Y461150D01*
X697230Y461010D01*
X679450Y466090D02*
X679310Y466088D01*
X679170Y466082D01*
X679030Y466073D01*
X678891Y466059D01*
X678752Y466042D01*
X678614Y466021D01*
X678476Y465996D01*
X678339Y465967D01*
X678203Y465935D01*
X678068Y465898D01*
X677934Y465858D01*
X677801Y465815D01*
X677669Y465767D01*
X677538Y465717D01*
X677409Y465662D01*
X677282Y465604D01*
X677156Y465543D01*
X677032Y465478D01*
X676910Y465409D01*
X676790Y465338D01*
X676672Y465263D01*
X676555Y465185D01*
X676441Y465103D01*
X676330Y465019D01*
X676221Y464931D01*
X676114Y464841D01*
X676009Y464747D01*
X675908Y464651D01*
X675809Y464552D01*
X675713Y464451D01*
X675619Y464346D01*
X675529Y464239D01*
X675441Y464130D01*
X675357Y464019D01*
X675275Y463905D01*
X675197Y463788D01*
X675122Y463670D01*
X675051Y463550D01*
X674982Y463428D01*
X674917Y463304D01*
X674856Y463178D01*
X674798Y463051D01*
X674743Y462922D01*
X674693Y462791D01*
X674645Y462659D01*
X674602Y462526D01*
X674562Y462392D01*
X674525Y462257D01*
X674493Y462121D01*
X674464Y461984D01*
X674439Y461846D01*
X674418Y461708D01*
X674401Y461569D01*
X674387Y461430D01*
X674378Y461290D01*
X674372Y461150D01*
X674370Y461010D01*
X697230Y461010D02*
X697230Y427990D01*
X692150Y422910D02*
X679450Y422910D01*
X674370Y427990D02*
X674370Y461010D01*
X697230Y427990D02*
X697228Y427850D01*
X697222Y427710D01*
X697213Y427570D01*
X697199Y427431D01*
X697182Y427292D01*
X697161Y427154D01*
X697136Y427016D01*
X697107Y426879D01*
X697075Y426743D01*
X697038Y426608D01*
X696998Y426474D01*
X696955Y426341D01*
X696907Y426209D01*
X696857Y426078D01*
X696802Y425949D01*
X696744Y425822D01*
X696683Y425696D01*
X696618Y425572D01*
X696549Y425450D01*
X696478Y425330D01*
X696403Y425212D01*
X696325Y425095D01*
X696243Y424981D01*
X696159Y424870D01*
X696071Y424761D01*
X695981Y424654D01*
X695887Y424549D01*
X695791Y424448D01*
X695692Y424349D01*
X695591Y424253D01*
X695486Y424159D01*
X695379Y424069D01*
X695270Y423981D01*
X695159Y423897D01*
X695045Y423815D01*
X694928Y423737D01*
X694810Y423662D01*
X694690Y423591D01*
X694568Y423522D01*
X694444Y423457D01*
X694318Y423396D01*
X694191Y423338D01*
X694062Y423283D01*
X693931Y423233D01*
X693799Y423185D01*
X693666Y423142D01*
X693532Y423102D01*
X693397Y423065D01*
X693261Y423033D01*
X693124Y423004D01*
X692986Y422979D01*
X692848Y422958D01*
X692709Y422941D01*
X692570Y422927D01*
X692430Y422918D01*
X692290Y422912D01*
X692150Y422910D01*
X679450Y422910D02*
X679310Y422912D01*
X679170Y422918D01*
X679030Y422927D01*
X678891Y422941D01*
X678752Y422958D01*
X678614Y422979D01*
X678476Y423004D01*
X678339Y423033D01*
X678203Y423065D01*
X678068Y423102D01*
X677934Y423142D01*
X677801Y423185D01*
X677669Y423233D01*
X677538Y423283D01*
X677409Y423338D01*
X677282Y423396D01*
X677156Y423457D01*
X677032Y423522D01*
X676910Y423591D01*
X676790Y423662D01*
X676672Y423737D01*
X676555Y423815D01*
X676441Y423897D01*
X676330Y423981D01*
X676221Y424069D01*
X676114Y424159D01*
X676009Y424253D01*
X675908Y424349D01*
X675809Y424448D01*
X675713Y424549D01*
X675619Y424654D01*
X675529Y424761D01*
X675441Y424870D01*
X675357Y424981D01*
X675275Y425095D01*
X675197Y425212D01*
X675122Y425330D01*
X675051Y425450D01*
X674982Y425572D01*
X674917Y425696D01*
X674856Y425822D01*
X674798Y425949D01*
X674743Y426078D01*
X674693Y426209D01*
X674645Y426341D01*
X674602Y426474D01*
X674562Y426608D01*
X674525Y426743D01*
X674493Y426879D01*
X674464Y427016D01*
X674439Y427154D01*
X674418Y427292D01*
X674401Y427431D01*
X674387Y427570D01*
X674378Y427710D01*
X674372Y427850D01*
X674370Y427990D01*
D11*
X678180Y447548D02*
X693420Y447548D01*
X693420Y441198D02*
X678180Y441198D01*
D12*
X711835Y448273D02*
X711835Y450813D01*
X711835Y448273D02*
X711833Y448173D01*
X711827Y448074D01*
X711817Y447974D01*
X711804Y447876D01*
X711786Y447777D01*
X711765Y447680D01*
X711740Y447584D01*
X711711Y447488D01*
X711678Y447394D01*
X711642Y447301D01*
X711602Y447210D01*
X711558Y447120D01*
X711511Y447032D01*
X711461Y446946D01*
X711407Y446862D01*
X711350Y446780D01*
X711290Y446701D01*
X711226Y446623D01*
X711160Y446549D01*
X711091Y446477D01*
X711019Y446408D01*
X710945Y446342D01*
X710867Y446278D01*
X710788Y446218D01*
X710706Y446161D01*
X710622Y446107D01*
X710536Y446057D01*
X710448Y446010D01*
X710358Y445966D01*
X710267Y445926D01*
X710174Y445890D01*
X710080Y445857D01*
X709984Y445828D01*
X709888Y445803D01*
X709791Y445782D01*
X709692Y445764D01*
X709594Y445751D01*
X709494Y445741D01*
X709395Y445735D01*
X709295Y445733D01*
X702945Y445733D01*
X702845Y445735D01*
X702746Y445741D01*
X702646Y445751D01*
X702548Y445764D01*
X702449Y445782D01*
X702352Y445803D01*
X702256Y445828D01*
X702160Y445857D01*
X702066Y445890D01*
X701973Y445926D01*
X701882Y445966D01*
X701792Y446010D01*
X701704Y446057D01*
X701618Y446107D01*
X701534Y446161D01*
X701452Y446218D01*
X701373Y446278D01*
X701295Y446342D01*
X701221Y446408D01*
X701149Y446477D01*
X701080Y446549D01*
X701014Y446623D01*
X700950Y446701D01*
X700890Y446780D01*
X700833Y446862D01*
X700779Y446946D01*
X700729Y447032D01*
X700682Y447120D01*
X700638Y447210D01*
X700598Y447301D01*
X700562Y447394D01*
X700529Y447488D01*
X700500Y447584D01*
X700475Y447680D01*
X700454Y447777D01*
X700436Y447876D01*
X700423Y447974D01*
X700413Y448074D01*
X700407Y448173D01*
X700405Y448273D01*
X700405Y450813D01*
X702945Y455295D02*
X700405Y458470D01*
X711835Y458470D01*
X711835Y455295D02*
X711835Y461645D01*
D13*
X521500Y444500D02*
X521515Y445727D01*
X521560Y446953D01*
X521635Y448178D01*
X521741Y449401D01*
X521876Y450621D01*
X522041Y451837D01*
X522236Y453048D01*
X522461Y454255D01*
X522715Y455455D01*
X522998Y456649D01*
X523311Y457836D01*
X523653Y459014D01*
X524024Y460184D01*
X524423Y461344D01*
X524850Y462495D01*
X525306Y463634D01*
X525790Y464762D01*
X526301Y465878D01*
X526839Y466981D01*
X527404Y468070D01*
X527996Y469145D01*
X528614Y470205D01*
X529257Y471250D01*
X529927Y472279D01*
X530621Y473290D01*
X531340Y474285D01*
X532083Y475262D01*
X532849Y476220D01*
X533640Y477159D01*
X534452Y478078D01*
X535288Y478977D01*
X536145Y479855D01*
X537023Y480712D01*
X537922Y481548D01*
X538841Y482360D01*
X539780Y483151D01*
X540738Y483917D01*
X541715Y484660D01*
X542710Y485379D01*
X543721Y486073D01*
X544750Y486743D01*
X545795Y487386D01*
X546855Y488004D01*
X547930Y488596D01*
X549019Y489161D01*
X550122Y489699D01*
X551238Y490210D01*
X552366Y490694D01*
X553505Y491150D01*
X554656Y491577D01*
X555816Y491976D01*
X556986Y492347D01*
X558164Y492689D01*
X559351Y493002D01*
X560545Y493285D01*
X561745Y493539D01*
X562952Y493764D01*
X564163Y493959D01*
X565379Y494124D01*
X566599Y494259D01*
X567822Y494365D01*
X569047Y494440D01*
X570273Y494485D01*
X571500Y494500D01*
X572727Y494485D01*
X573953Y494440D01*
X575178Y494365D01*
X576401Y494259D01*
X577621Y494124D01*
X578837Y493959D01*
X580048Y493764D01*
X581255Y493539D01*
X582455Y493285D01*
X583649Y493002D01*
X584836Y492689D01*
X586014Y492347D01*
X587184Y491976D01*
X588344Y491577D01*
X589495Y491150D01*
X590634Y490694D01*
X591762Y490210D01*
X592878Y489699D01*
X593981Y489161D01*
X595070Y488596D01*
X596145Y488004D01*
X597205Y487386D01*
X598250Y486743D01*
X599279Y486073D01*
X600290Y485379D01*
X601285Y484660D01*
X602262Y483917D01*
X603220Y483151D01*
X604159Y482360D01*
X605078Y481548D01*
X605977Y480712D01*
X606855Y479855D01*
X607712Y478977D01*
X608548Y478078D01*
X609360Y477159D01*
X610151Y476220D01*
X610917Y475262D01*
X611660Y474285D01*
X612379Y473290D01*
X613073Y472279D01*
X613743Y471250D01*
X614386Y470205D01*
X615004Y469145D01*
X615596Y468070D01*
X616161Y466981D01*
X616699Y465878D01*
X617210Y464762D01*
X617694Y463634D01*
X618150Y462495D01*
X618577Y461344D01*
X618976Y460184D01*
X619347Y459014D01*
X619689Y457836D01*
X620002Y456649D01*
X620285Y455455D01*
X620539Y454255D01*
X620764Y453048D01*
X620959Y451837D01*
X621124Y450621D01*
X621259Y449401D01*
X621365Y448178D01*
X621440Y446953D01*
X621485Y445727D01*
X621500Y444500D01*
X621485Y443273D01*
X621440Y442047D01*
X621365Y440822D01*
X621259Y439599D01*
X621124Y438379D01*
X620959Y437163D01*
X620764Y435952D01*
X620539Y434745D01*
X620285Y433545D01*
X620002Y432351D01*
X619689Y431164D01*
X619347Y429986D01*
X618976Y428816D01*
X618577Y427656D01*
X618150Y426505D01*
X617694Y425366D01*
X617210Y424238D01*
X616699Y423122D01*
X616161Y422019D01*
X615596Y420930D01*
X615004Y419855D01*
X614386Y418795D01*
X613743Y417750D01*
X613073Y416721D01*
X612379Y415710D01*
X611660Y414715D01*
X610917Y413738D01*
X610151Y412780D01*
X609360Y411841D01*
X608548Y410922D01*
X607712Y410023D01*
X606855Y409145D01*
X605977Y408288D01*
X605078Y407452D01*
X604159Y406640D01*
X603220Y405849D01*
X602262Y405083D01*
X601285Y404340D01*
X600290Y403621D01*
X599279Y402927D01*
X598250Y402257D01*
X597205Y401614D01*
X596145Y400996D01*
X595070Y400404D01*
X593981Y399839D01*
X592878Y399301D01*
X591762Y398790D01*
X590634Y398306D01*
X589495Y397850D01*
X588344Y397423D01*
X587184Y397024D01*
X586014Y396653D01*
X584836Y396311D01*
X583649Y395998D01*
X582455Y395715D01*
X581255Y395461D01*
X580048Y395236D01*
X578837Y395041D01*
X577621Y394876D01*
X576401Y394741D01*
X575178Y394635D01*
X573953Y394560D01*
X572727Y394515D01*
X571500Y394500D01*
X570273Y394515D01*
X569047Y394560D01*
X567822Y394635D01*
X566599Y394741D01*
X565379Y394876D01*
X564163Y395041D01*
X562952Y395236D01*
X561745Y395461D01*
X560545Y395715D01*
X559351Y395998D01*
X558164Y396311D01*
X556986Y396653D01*
X555816Y397024D01*
X554656Y397423D01*
X553505Y397850D01*
X552366Y398306D01*
X551238Y398790D01*
X550122Y399301D01*
X549019Y399839D01*
X547930Y400404D01*
X546855Y400996D01*
X545795Y401614D01*
X544750Y402257D01*
X543721Y402927D01*
X542710Y403621D01*
X541715Y404340D01*
X540738Y405083D01*
X539780Y405849D01*
X538841Y406640D01*
X537922Y407452D01*
X537023Y408288D01*
X536145Y409145D01*
X535288Y410023D01*
X534452Y410922D01*
X533640Y411841D01*
X532849Y412780D01*
X532083Y413738D01*
X531340Y414715D01*
X530621Y415710D01*
X529927Y416721D01*
X529257Y417750D01*
X528614Y418795D01*
X527996Y419855D01*
X527404Y420930D01*
X526839Y422019D01*
X526301Y423122D01*
X525790Y424238D01*
X525306Y425366D01*
X524850Y426505D01*
X524423Y427656D01*
X524024Y428816D01*
X523653Y429986D01*
X523311Y431164D01*
X522998Y432351D01*
X522715Y433545D01*
X522461Y434745D01*
X522236Y435952D01*
X522041Y437163D01*
X521876Y438379D01*
X521741Y439599D01*
X521635Y440822D01*
X521560Y442047D01*
X521515Y443273D01*
X521500Y444500D01*
X530175Y485826D02*
X537675Y485826D01*
X533925Y489576D02*
X533925Y482076D01*
D14*
X566072Y501358D02*
X568668Y501358D01*
X566072Y501358D02*
X565973Y501360D01*
X565873Y501366D01*
X565774Y501375D01*
X565676Y501388D01*
X565578Y501405D01*
X565480Y501426D01*
X565384Y501451D01*
X565289Y501479D01*
X565195Y501511D01*
X565102Y501546D01*
X565010Y501585D01*
X564920Y501628D01*
X564832Y501673D01*
X564745Y501723D01*
X564661Y501775D01*
X564578Y501831D01*
X564498Y501889D01*
X564420Y501951D01*
X564345Y502016D01*
X564272Y502084D01*
X564202Y502154D01*
X564134Y502227D01*
X564069Y502302D01*
X564007Y502380D01*
X563949Y502460D01*
X563893Y502543D01*
X563841Y502627D01*
X563791Y502714D01*
X563746Y502802D01*
X563703Y502892D01*
X563664Y502984D01*
X563629Y503077D01*
X563597Y503171D01*
X563569Y503266D01*
X563544Y503362D01*
X563523Y503460D01*
X563506Y503558D01*
X563493Y503656D01*
X563484Y503755D01*
X563478Y503855D01*
X563476Y503954D01*
X563475Y503954D02*
X563475Y510446D01*
X563476Y510446D02*
X563478Y510545D01*
X563484Y510645D01*
X563493Y510744D01*
X563506Y510842D01*
X563523Y510940D01*
X563544Y511038D01*
X563569Y511134D01*
X563597Y511229D01*
X563629Y511323D01*
X563664Y511416D01*
X563703Y511508D01*
X563746Y511598D01*
X563791Y511686D01*
X563841Y511773D01*
X563893Y511857D01*
X563949Y511940D01*
X564007Y512020D01*
X564069Y512098D01*
X564134Y512173D01*
X564202Y512246D01*
X564272Y512316D01*
X564345Y512384D01*
X564420Y512449D01*
X564498Y512511D01*
X564578Y512569D01*
X564661Y512625D01*
X564745Y512677D01*
X564832Y512727D01*
X564920Y512772D01*
X565010Y512815D01*
X565102Y512854D01*
X565194Y512889D01*
X565289Y512921D01*
X565384Y512949D01*
X565480Y512974D01*
X565578Y512995D01*
X565676Y513012D01*
X565774Y513025D01*
X565873Y513034D01*
X565973Y513040D01*
X566072Y513042D01*
X568668Y513042D01*
X576604Y513042D02*
X576711Y513040D01*
X576817Y513034D01*
X576923Y513024D01*
X577029Y513011D01*
X577135Y512993D01*
X577239Y512972D01*
X577343Y512947D01*
X577446Y512918D01*
X577547Y512886D01*
X577647Y512849D01*
X577746Y512809D01*
X577844Y512766D01*
X577940Y512719D01*
X578034Y512668D01*
X578126Y512614D01*
X578216Y512557D01*
X578304Y512497D01*
X578389Y512433D01*
X578472Y512366D01*
X578553Y512296D01*
X578631Y512224D01*
X578707Y512148D01*
X578779Y512070D01*
X578849Y511989D01*
X578916Y511906D01*
X578980Y511821D01*
X579040Y511733D01*
X579097Y511643D01*
X579151Y511551D01*
X579202Y511457D01*
X579249Y511361D01*
X579292Y511263D01*
X579332Y511164D01*
X579369Y511064D01*
X579401Y510963D01*
X579430Y510860D01*
X579455Y510756D01*
X579476Y510652D01*
X579494Y510546D01*
X579507Y510440D01*
X579517Y510334D01*
X579523Y510228D01*
X579525Y510121D01*
X576604Y513042D02*
X576483Y513040D01*
X576362Y513034D01*
X576242Y513024D01*
X576121Y513011D01*
X576002Y512993D01*
X575882Y512972D01*
X575764Y512947D01*
X575647Y512918D01*
X575530Y512885D01*
X575415Y512849D01*
X575301Y512808D01*
X575188Y512765D01*
X575076Y512717D01*
X574967Y512666D01*
X574859Y512611D01*
X574752Y512553D01*
X574648Y512492D01*
X574546Y512427D01*
X574446Y512359D01*
X574348Y512288D01*
X574252Y512214D01*
X574159Y512137D01*
X574069Y512056D01*
X573981Y511973D01*
X573896Y511887D01*
X573813Y511798D01*
X573734Y511707D01*
X573657Y511613D01*
X573584Y511517D01*
X573514Y511419D01*
X573447Y511318D01*
X573383Y511215D01*
X573323Y511110D01*
X573266Y511003D01*
X573212Y510895D01*
X573162Y510785D01*
X573116Y510673D01*
X573073Y510560D01*
X573034Y510445D01*
X578551Y507849D02*
X578630Y507926D01*
X578706Y508007D01*
X578779Y508090D01*
X578849Y508175D01*
X578916Y508263D01*
X578980Y508353D01*
X579040Y508445D01*
X579097Y508540D01*
X579151Y508636D01*
X579202Y508734D01*
X579249Y508834D01*
X579293Y508936D01*
X579333Y509039D01*
X579369Y509143D01*
X579401Y509249D01*
X579430Y509355D01*
X579455Y509463D01*
X579477Y509571D01*
X579494Y509681D01*
X579508Y509790D01*
X579517Y509900D01*
X579523Y510011D01*
X579525Y510121D01*
X578551Y507849D02*
X573034Y501358D01*
X579525Y501358D01*
D13*
X750100Y444500D02*
X750115Y445727D01*
X750160Y446953D01*
X750235Y448178D01*
X750341Y449401D01*
X750476Y450621D01*
X750641Y451837D01*
X750836Y453048D01*
X751061Y454255D01*
X751315Y455455D01*
X751598Y456649D01*
X751911Y457836D01*
X752253Y459014D01*
X752624Y460184D01*
X753023Y461344D01*
X753450Y462495D01*
X753906Y463634D01*
X754390Y464762D01*
X754901Y465878D01*
X755439Y466981D01*
X756004Y468070D01*
X756596Y469145D01*
X757214Y470205D01*
X757857Y471250D01*
X758527Y472279D01*
X759221Y473290D01*
X759940Y474285D01*
X760683Y475262D01*
X761449Y476220D01*
X762240Y477159D01*
X763052Y478078D01*
X763888Y478977D01*
X764745Y479855D01*
X765623Y480712D01*
X766522Y481548D01*
X767441Y482360D01*
X768380Y483151D01*
X769338Y483917D01*
X770315Y484660D01*
X771310Y485379D01*
X772321Y486073D01*
X773350Y486743D01*
X774395Y487386D01*
X775455Y488004D01*
X776530Y488596D01*
X777619Y489161D01*
X778722Y489699D01*
X779838Y490210D01*
X780966Y490694D01*
X782105Y491150D01*
X783256Y491577D01*
X784416Y491976D01*
X785586Y492347D01*
X786764Y492689D01*
X787951Y493002D01*
X789145Y493285D01*
X790345Y493539D01*
X791552Y493764D01*
X792763Y493959D01*
X793979Y494124D01*
X795199Y494259D01*
X796422Y494365D01*
X797647Y494440D01*
X798873Y494485D01*
X800100Y494500D01*
X801327Y494485D01*
X802553Y494440D01*
X803778Y494365D01*
X805001Y494259D01*
X806221Y494124D01*
X807437Y493959D01*
X808648Y493764D01*
X809855Y493539D01*
X811055Y493285D01*
X812249Y493002D01*
X813436Y492689D01*
X814614Y492347D01*
X815784Y491976D01*
X816944Y491577D01*
X818095Y491150D01*
X819234Y490694D01*
X820362Y490210D01*
X821478Y489699D01*
X822581Y489161D01*
X823670Y488596D01*
X824745Y488004D01*
X825805Y487386D01*
X826850Y486743D01*
X827879Y486073D01*
X828890Y485379D01*
X829885Y484660D01*
X830862Y483917D01*
X831820Y483151D01*
X832759Y482360D01*
X833678Y481548D01*
X834577Y480712D01*
X835455Y479855D01*
X836312Y478977D01*
X837148Y478078D01*
X837960Y477159D01*
X838751Y476220D01*
X839517Y475262D01*
X840260Y474285D01*
X840979Y473290D01*
X841673Y472279D01*
X842343Y471250D01*
X842986Y470205D01*
X843604Y469145D01*
X844196Y468070D01*
X844761Y466981D01*
X845299Y465878D01*
X845810Y464762D01*
X846294Y463634D01*
X846750Y462495D01*
X847177Y461344D01*
X847576Y460184D01*
X847947Y459014D01*
X848289Y457836D01*
X848602Y456649D01*
X848885Y455455D01*
X849139Y454255D01*
X849364Y453048D01*
X849559Y451837D01*
X849724Y450621D01*
X849859Y449401D01*
X849965Y448178D01*
X850040Y446953D01*
X850085Y445727D01*
X850100Y444500D01*
X850085Y443273D01*
X850040Y442047D01*
X849965Y440822D01*
X849859Y439599D01*
X849724Y438379D01*
X849559Y437163D01*
X849364Y435952D01*
X849139Y434745D01*
X848885Y433545D01*
X848602Y432351D01*
X848289Y431164D01*
X847947Y429986D01*
X847576Y428816D01*
X847177Y427656D01*
X846750Y426505D01*
X846294Y425366D01*
X845810Y424238D01*
X845299Y423122D01*
X844761Y422019D01*
X844196Y420930D01*
X843604Y419855D01*
X842986Y418795D01*
X842343Y417750D01*
X841673Y416721D01*
X840979Y415710D01*
X840260Y414715D01*
X839517Y413738D01*
X838751Y412780D01*
X837960Y411841D01*
X837148Y410922D01*
X836312Y410023D01*
X835455Y409145D01*
X834577Y408288D01*
X833678Y407452D01*
X832759Y406640D01*
X831820Y405849D01*
X830862Y405083D01*
X829885Y404340D01*
X828890Y403621D01*
X827879Y402927D01*
X826850Y402257D01*
X825805Y401614D01*
X824745Y400996D01*
X823670Y400404D01*
X822581Y399839D01*
X821478Y399301D01*
X820362Y398790D01*
X819234Y398306D01*
X818095Y397850D01*
X816944Y397423D01*
X815784Y397024D01*
X814614Y396653D01*
X813436Y396311D01*
X812249Y395998D01*
X811055Y395715D01*
X809855Y395461D01*
X808648Y395236D01*
X807437Y395041D01*
X806221Y394876D01*
X805001Y394741D01*
X803778Y394635D01*
X802553Y394560D01*
X801327Y394515D01*
X800100Y394500D01*
X798873Y394515D01*
X797647Y394560D01*
X796422Y394635D01*
X795199Y394741D01*
X793979Y394876D01*
X792763Y395041D01*
X791552Y395236D01*
X790345Y395461D01*
X789145Y395715D01*
X787951Y395998D01*
X786764Y396311D01*
X785586Y396653D01*
X784416Y397024D01*
X783256Y397423D01*
X782105Y397850D01*
X780966Y398306D01*
X779838Y398790D01*
X778722Y399301D01*
X777619Y399839D01*
X776530Y400404D01*
X775455Y400996D01*
X774395Y401614D01*
X773350Y402257D01*
X772321Y402927D01*
X771310Y403621D01*
X770315Y404340D01*
X769338Y405083D01*
X768380Y405849D01*
X767441Y406640D01*
X766522Y407452D01*
X765623Y408288D01*
X764745Y409145D01*
X763888Y410023D01*
X763052Y410922D01*
X762240Y411841D01*
X761449Y412780D01*
X760683Y413738D01*
X759940Y414715D01*
X759221Y415710D01*
X758527Y416721D01*
X757857Y417750D01*
X757214Y418795D01*
X756596Y419855D01*
X756004Y420930D01*
X755439Y422019D01*
X754901Y423122D01*
X754390Y424238D01*
X753906Y425366D01*
X753450Y426505D01*
X753023Y427656D01*
X752624Y428816D01*
X752253Y429986D01*
X751911Y431164D01*
X751598Y432351D01*
X751315Y433545D01*
X751061Y434745D01*
X750836Y435952D01*
X750641Y437163D01*
X750476Y438379D01*
X750341Y439599D01*
X750235Y440822D01*
X750160Y442047D01*
X750115Y443273D01*
X750100Y444500D01*
X758775Y485826D02*
X766275Y485826D01*
X762525Y489576D02*
X762525Y482076D01*
D14*
X794672Y501358D02*
X797268Y501358D01*
X794672Y501358D02*
X794573Y501360D01*
X794473Y501366D01*
X794374Y501375D01*
X794276Y501388D01*
X794178Y501405D01*
X794080Y501426D01*
X793984Y501451D01*
X793889Y501479D01*
X793795Y501511D01*
X793702Y501546D01*
X793610Y501585D01*
X793520Y501628D01*
X793432Y501673D01*
X793345Y501723D01*
X793261Y501775D01*
X793178Y501831D01*
X793098Y501889D01*
X793020Y501951D01*
X792945Y502016D01*
X792872Y502084D01*
X792802Y502154D01*
X792734Y502227D01*
X792669Y502302D01*
X792607Y502380D01*
X792549Y502460D01*
X792493Y502543D01*
X792441Y502627D01*
X792391Y502714D01*
X792346Y502802D01*
X792303Y502892D01*
X792264Y502984D01*
X792229Y503077D01*
X792197Y503171D01*
X792169Y503266D01*
X792144Y503362D01*
X792123Y503460D01*
X792106Y503558D01*
X792093Y503656D01*
X792084Y503755D01*
X792078Y503855D01*
X792076Y503954D01*
X792075Y503954D02*
X792075Y510446D01*
X792076Y510446D02*
X792078Y510545D01*
X792084Y510645D01*
X792093Y510744D01*
X792106Y510842D01*
X792123Y510940D01*
X792144Y511038D01*
X792169Y511134D01*
X792197Y511229D01*
X792229Y511323D01*
X792264Y511416D01*
X792303Y511508D01*
X792346Y511598D01*
X792391Y511686D01*
X792441Y511773D01*
X792493Y511857D01*
X792549Y511940D01*
X792607Y512020D01*
X792669Y512098D01*
X792734Y512173D01*
X792802Y512246D01*
X792872Y512316D01*
X792945Y512384D01*
X793020Y512449D01*
X793098Y512511D01*
X793178Y512569D01*
X793261Y512625D01*
X793345Y512677D01*
X793432Y512727D01*
X793520Y512772D01*
X793610Y512815D01*
X793702Y512854D01*
X793794Y512889D01*
X793889Y512921D01*
X793984Y512949D01*
X794080Y512974D01*
X794178Y512995D01*
X794276Y513012D01*
X794374Y513025D01*
X794473Y513034D01*
X794573Y513040D01*
X794672Y513042D01*
X797268Y513042D01*
X801634Y501358D02*
X804879Y501358D01*
X804992Y501360D01*
X805105Y501366D01*
X805218Y501376D01*
X805331Y501390D01*
X805443Y501407D01*
X805554Y501429D01*
X805664Y501454D01*
X805774Y501484D01*
X805882Y501517D01*
X805989Y501554D01*
X806095Y501594D01*
X806199Y501639D01*
X806302Y501687D01*
X806403Y501738D01*
X806502Y501793D01*
X806599Y501851D01*
X806694Y501913D01*
X806787Y501978D01*
X806877Y502046D01*
X806965Y502117D01*
X807051Y502192D01*
X807134Y502269D01*
X807214Y502349D01*
X807291Y502432D01*
X807366Y502518D01*
X807437Y502606D01*
X807505Y502696D01*
X807570Y502789D01*
X807632Y502884D01*
X807690Y502981D01*
X807745Y503080D01*
X807796Y503181D01*
X807844Y503284D01*
X807889Y503388D01*
X807929Y503494D01*
X807966Y503601D01*
X807999Y503709D01*
X808029Y503819D01*
X808054Y503929D01*
X808076Y504040D01*
X808093Y504152D01*
X808107Y504265D01*
X808117Y504378D01*
X808123Y504491D01*
X808125Y504604D01*
X808123Y504717D01*
X808117Y504830D01*
X808107Y504943D01*
X808093Y505056D01*
X808076Y505168D01*
X808054Y505279D01*
X808029Y505389D01*
X807999Y505499D01*
X807966Y505607D01*
X807929Y505714D01*
X807889Y505820D01*
X807844Y505924D01*
X807796Y506027D01*
X807745Y506128D01*
X807690Y506227D01*
X807632Y506324D01*
X807570Y506419D01*
X807505Y506512D01*
X807437Y506602D01*
X807366Y506690D01*
X807291Y506776D01*
X807214Y506859D01*
X807134Y506939D01*
X807051Y507016D01*
X806965Y507091D01*
X806877Y507162D01*
X806787Y507230D01*
X806694Y507295D01*
X806599Y507357D01*
X806502Y507415D01*
X806403Y507470D01*
X806302Y507521D01*
X806199Y507569D01*
X806095Y507614D01*
X805989Y507654D01*
X805882Y507691D01*
X805774Y507724D01*
X805664Y507754D01*
X805554Y507779D01*
X805443Y507801D01*
X805331Y507818D01*
X805218Y507832D01*
X805105Y507842D01*
X804992Y507848D01*
X804879Y507850D01*
X805528Y513042D02*
X801634Y513042D01*
X805528Y513042D02*
X805629Y513040D01*
X805729Y513034D01*
X805829Y513024D01*
X805929Y513011D01*
X806028Y512993D01*
X806127Y512972D01*
X806224Y512947D01*
X806321Y512918D01*
X806416Y512885D01*
X806510Y512849D01*
X806602Y512809D01*
X806693Y512766D01*
X806782Y512719D01*
X806869Y512669D01*
X806955Y512615D01*
X807038Y512558D01*
X807118Y512498D01*
X807197Y512435D01*
X807273Y512368D01*
X807346Y512299D01*
X807416Y512227D01*
X807484Y512153D01*
X807549Y512076D01*
X807610Y511996D01*
X807669Y511914D01*
X807724Y511830D01*
X807776Y511744D01*
X807825Y511656D01*
X807870Y511566D01*
X807912Y511474D01*
X807950Y511381D01*
X807984Y511286D01*
X808015Y511191D01*
X808042Y511094D01*
X808065Y510996D01*
X808085Y510897D01*
X808100Y510797D01*
X808112Y510697D01*
X808120Y510597D01*
X808124Y510496D01*
X808124Y510396D01*
X808120Y510295D01*
X808112Y510195D01*
X808100Y510095D01*
X808085Y509995D01*
X808065Y509896D01*
X808042Y509798D01*
X808015Y509701D01*
X807984Y509606D01*
X807950Y509511D01*
X807912Y509418D01*
X807870Y509326D01*
X807825Y509236D01*
X807776Y509148D01*
X807724Y509062D01*
X807669Y508978D01*
X807610Y508896D01*
X807549Y508816D01*
X807484Y508739D01*
X807416Y508665D01*
X807346Y508593D01*
X807273Y508524D01*
X807197Y508457D01*
X807118Y508394D01*
X807038Y508334D01*
X806955Y508277D01*
X806869Y508223D01*
X806782Y508173D01*
X806693Y508126D01*
X806602Y508083D01*
X806510Y508043D01*
X806416Y508007D01*
X806321Y507974D01*
X806224Y507945D01*
X806127Y507920D01*
X806028Y507899D01*
X805929Y507881D01*
X805829Y507868D01*
X805729Y507858D01*
X805629Y507852D01*
X805528Y507850D01*
X805528Y507849D02*
X802932Y507849D01*
D10*
X337820Y635000D02*
X297180Y635000D01*
X297180Y609600D01*
X337820Y609600D01*
X337820Y635000D01*
X323850Y622300D02*
X317500Y622300D01*
X307340Y615950D02*
X307340Y628650D01*
X317500Y622300D01*
X302260Y622300D01*
X307340Y615950D02*
X317500Y622300D01*
X317500Y615950D01*
X317500Y622300D02*
X317500Y628650D01*
D15*
X331470Y622300D03*
D16*
X287655Y622300D03*
X347345Y622300D03*
D12*
X319024Y605155D02*
X319024Y593725D01*
X319024Y605155D02*
X322199Y605155D01*
X322310Y605153D01*
X322420Y605147D01*
X322531Y605138D01*
X322641Y605124D01*
X322750Y605107D01*
X322859Y605086D01*
X322967Y605061D01*
X323074Y605032D01*
X323180Y605000D01*
X323285Y604964D01*
X323388Y604924D01*
X323490Y604881D01*
X323591Y604834D01*
X323690Y604783D01*
X323787Y604730D01*
X323881Y604673D01*
X323974Y604612D01*
X324065Y604549D01*
X324154Y604482D01*
X324240Y604412D01*
X324323Y604339D01*
X324405Y604264D01*
X324483Y604186D01*
X324558Y604104D01*
X324631Y604021D01*
X324701Y603935D01*
X324768Y603846D01*
X324831Y603755D01*
X324892Y603662D01*
X324949Y603568D01*
X325002Y603471D01*
X325053Y603372D01*
X325100Y603271D01*
X325143Y603169D01*
X325183Y603066D01*
X325219Y602961D01*
X325251Y602855D01*
X325280Y602748D01*
X325305Y602640D01*
X325326Y602531D01*
X325343Y602422D01*
X325357Y602312D01*
X325366Y602201D01*
X325372Y602091D01*
X325374Y601980D01*
X325374Y596900D01*
X325372Y596789D01*
X325366Y596679D01*
X325357Y596568D01*
X325343Y596458D01*
X325326Y596349D01*
X325305Y596240D01*
X325280Y596132D01*
X325251Y596025D01*
X325219Y595919D01*
X325183Y595814D01*
X325143Y595711D01*
X325100Y595609D01*
X325053Y595508D01*
X325002Y595409D01*
X324949Y595313D01*
X324892Y595218D01*
X324831Y595125D01*
X324768Y595034D01*
X324701Y594945D01*
X324631Y594859D01*
X324558Y594776D01*
X324483Y594694D01*
X324405Y594616D01*
X324323Y594541D01*
X324240Y594468D01*
X324154Y594398D01*
X324065Y594331D01*
X323974Y594268D01*
X323881Y594207D01*
X323787Y594150D01*
X323690Y594097D01*
X323591Y594046D01*
X323490Y593999D01*
X323388Y593956D01*
X323285Y593916D01*
X323180Y593880D01*
X323074Y593848D01*
X322967Y593819D01*
X322859Y593794D01*
X322750Y593773D01*
X322641Y593756D01*
X322531Y593742D01*
X322420Y593733D01*
X322310Y593727D01*
X322199Y593725D01*
X319024Y593725D01*
X330835Y602615D02*
X334010Y605155D01*
X334010Y593725D01*
X330835Y593725D02*
X337185Y593725D01*
D10*
X337618Y533718D02*
X296983Y533079D01*
X297382Y507682D01*
X338017Y508321D01*
X337618Y533718D01*
X323849Y520800D02*
X317500Y520700D01*
X307242Y526890D02*
X307441Y514191D01*
X317500Y520700D02*
X307242Y526890D01*
X302262Y520461D02*
X317500Y520700D01*
X307441Y514191D01*
X317600Y514351D02*
X317500Y520700D01*
X317400Y527049D01*
D15*
G36*
X328729Y533577D02*
X333808Y533657D01*
X334207Y508261D01*
X329128Y508181D01*
X328729Y533577D01*
G37*
D16*
G36*
X278076Y523890D02*
X297122Y524190D01*
X297242Y516572D01*
X278196Y516272D01*
X278076Y523890D01*
G37*
G36*
X337758Y524828D02*
X356804Y525128D01*
X356924Y517510D01*
X337878Y517210D01*
X337758Y524828D01*
G37*
D12*
X319293Y503581D02*
X319473Y492152D01*
X319293Y503581D02*
X322468Y503631D01*
X322467Y503631D02*
X322578Y503630D01*
X322689Y503626D01*
X322799Y503618D01*
X322909Y503607D01*
X323019Y503591D01*
X323128Y503572D01*
X323237Y503548D01*
X323344Y503521D01*
X323451Y503491D01*
X323556Y503456D01*
X323660Y503418D01*
X323763Y503376D01*
X323864Y503331D01*
X323963Y503282D01*
X324061Y503230D01*
X324157Y503175D01*
X324251Y503116D01*
X324343Y503054D01*
X324432Y502988D01*
X324519Y502920D01*
X324604Y502849D01*
X324686Y502774D01*
X324766Y502697D01*
X324843Y502617D01*
X324917Y502535D01*
X324988Y502450D01*
X325056Y502362D01*
X325121Y502273D01*
X325183Y502181D01*
X325241Y502086D01*
X325297Y501990D01*
X325348Y501892D01*
X325397Y501793D01*
X325442Y501691D01*
X325483Y501589D01*
X325521Y501484D01*
X325555Y501379D01*
X325585Y501272D01*
X325612Y501165D01*
X325635Y501056D01*
X325654Y500947D01*
X325669Y500837D01*
X325680Y500727D01*
X325688Y500617D01*
X325692Y500506D01*
X325772Y495427D01*
X325771Y495316D01*
X325767Y495205D01*
X325759Y495095D01*
X325748Y494985D01*
X325732Y494875D01*
X325713Y494766D01*
X325689Y494657D01*
X325662Y494550D01*
X325632Y494443D01*
X325597Y494338D01*
X325559Y494234D01*
X325517Y494131D01*
X325472Y494030D01*
X325423Y493931D01*
X325371Y493833D01*
X325316Y493737D01*
X325257Y493643D01*
X325195Y493551D01*
X325129Y493462D01*
X325061Y493375D01*
X324990Y493290D01*
X324915Y493208D01*
X324838Y493128D01*
X324758Y493051D01*
X324676Y492977D01*
X324591Y492906D01*
X324503Y492838D01*
X324414Y492773D01*
X324322Y492711D01*
X324227Y492653D01*
X324131Y492597D01*
X324033Y492546D01*
X323934Y492497D01*
X323832Y492452D01*
X323730Y492411D01*
X323625Y492373D01*
X323520Y492339D01*
X323413Y492309D01*
X323306Y492282D01*
X323197Y492259D01*
X323088Y492240D01*
X322978Y492225D01*
X322868Y492214D01*
X322758Y492206D01*
X322647Y492202D01*
X319473Y492152D01*
X334595Y503821D02*
X334699Y503820D01*
X334804Y503816D01*
X334908Y503808D01*
X335011Y503797D01*
X335115Y503781D01*
X335217Y503762D01*
X335319Y503739D01*
X335420Y503712D01*
X335520Y503682D01*
X335619Y503648D01*
X335716Y503611D01*
X335812Y503570D01*
X335906Y503525D01*
X335999Y503477D01*
X336090Y503426D01*
X336179Y503371D01*
X336266Y503313D01*
X336350Y503252D01*
X336433Y503188D01*
X336513Y503121D01*
X336590Y503052D01*
X336665Y502979D01*
X336738Y502904D01*
X336807Y502826D01*
X336874Y502745D01*
X336937Y502663D01*
X336998Y502578D01*
X337055Y502490D01*
X337109Y502401D01*
X337160Y502310D01*
X337208Y502217D01*
X337252Y502123D01*
X337292Y502026D01*
X337329Y501929D01*
X337363Y501830D01*
X337392Y501730D01*
X337419Y501629D01*
X337441Y501527D01*
X337460Y501424D01*
X337475Y501321D01*
X337486Y501217D01*
X337493Y501113D01*
X337497Y501009D01*
X334594Y503822D02*
X334476Y503818D01*
X334358Y503810D01*
X334240Y503799D01*
X334123Y503784D01*
X334006Y503765D01*
X333890Y503742D01*
X333774Y503716D01*
X333660Y503685D01*
X333546Y503652D01*
X333434Y503614D01*
X333323Y503573D01*
X333213Y503528D01*
X333105Y503480D01*
X332999Y503429D01*
X332894Y503374D01*
X332791Y503315D01*
X332690Y503254D01*
X332591Y503189D01*
X332494Y503121D01*
X332399Y503050D01*
X332307Y502976D01*
X332217Y502898D01*
X332130Y502819D01*
X332045Y502736D01*
X331963Y502650D01*
X331884Y502562D01*
X331808Y502472D01*
X331734Y502379D01*
X331664Y502284D01*
X331597Y502186D01*
X331533Y502087D01*
X331472Y501985D01*
X331415Y501882D01*
X331361Y501777D01*
X331310Y501670D01*
X331263Y501561D01*
X331219Y501451D01*
X331179Y501340D01*
X331142Y501227D01*
X336579Y498772D02*
X336655Y498849D01*
X336728Y498929D01*
X336798Y499011D01*
X336865Y499096D01*
X336929Y499183D01*
X336990Y499272D01*
X337048Y499363D01*
X337103Y499456D01*
X337154Y499551D01*
X337202Y499648D01*
X337247Y499747D01*
X337288Y499847D01*
X337325Y499948D01*
X337359Y500051D01*
X337389Y500154D01*
X337416Y500259D01*
X337439Y500365D01*
X337458Y500471D01*
X337473Y500578D01*
X337485Y500685D01*
X337492Y500793D01*
X337496Y500901D01*
X337497Y501009D01*
X336579Y498772D02*
X331282Y492338D01*
X337631Y492438D01*
D10*
X436880Y635000D02*
X477520Y635000D01*
X436880Y635000D02*
X436880Y609600D01*
X477520Y609600D01*
X477520Y635000D01*
X463550Y622300D02*
X457200Y622300D01*
X447040Y615950D02*
X447040Y628650D01*
X457200Y622300D01*
X441960Y622300D01*
X447040Y615950D02*
X457200Y622300D01*
X457200Y615950D01*
X457200Y622300D02*
X457200Y628650D01*
D15*
X471170Y622300D03*
D16*
X427355Y622300D03*
X487045Y622300D03*
D12*
X458724Y605155D02*
X458724Y593725D01*
X458724Y605155D02*
X461899Y605155D01*
X462010Y605153D01*
X462120Y605147D01*
X462231Y605138D01*
X462341Y605124D01*
X462450Y605107D01*
X462559Y605086D01*
X462667Y605061D01*
X462774Y605032D01*
X462880Y605000D01*
X462985Y604964D01*
X463088Y604924D01*
X463190Y604881D01*
X463291Y604834D01*
X463390Y604783D01*
X463487Y604730D01*
X463581Y604673D01*
X463674Y604612D01*
X463765Y604549D01*
X463854Y604482D01*
X463940Y604412D01*
X464023Y604339D01*
X464105Y604264D01*
X464183Y604186D01*
X464258Y604104D01*
X464331Y604021D01*
X464401Y603935D01*
X464468Y603846D01*
X464531Y603755D01*
X464592Y603662D01*
X464649Y603568D01*
X464702Y603471D01*
X464753Y603372D01*
X464800Y603271D01*
X464843Y603169D01*
X464883Y603066D01*
X464919Y602961D01*
X464951Y602855D01*
X464980Y602748D01*
X465005Y602640D01*
X465026Y602531D01*
X465043Y602422D01*
X465057Y602312D01*
X465066Y602201D01*
X465072Y602091D01*
X465074Y601980D01*
X465074Y596900D01*
X465072Y596789D01*
X465066Y596679D01*
X465057Y596568D01*
X465043Y596458D01*
X465026Y596349D01*
X465005Y596240D01*
X464980Y596132D01*
X464951Y596025D01*
X464919Y595919D01*
X464883Y595814D01*
X464843Y595711D01*
X464800Y595609D01*
X464753Y595508D01*
X464702Y595409D01*
X464649Y595313D01*
X464592Y595218D01*
X464531Y595125D01*
X464468Y595034D01*
X464401Y594945D01*
X464331Y594859D01*
X464258Y594776D01*
X464183Y594694D01*
X464105Y594616D01*
X464023Y594541D01*
X463940Y594468D01*
X463854Y594398D01*
X463765Y594331D01*
X463674Y594268D01*
X463581Y594207D01*
X463487Y594150D01*
X463390Y594097D01*
X463291Y594046D01*
X463190Y593999D01*
X463088Y593956D01*
X462985Y593916D01*
X462880Y593880D01*
X462774Y593848D01*
X462667Y593819D01*
X462559Y593794D01*
X462450Y593773D01*
X462341Y593756D01*
X462231Y593742D01*
X462120Y593733D01*
X462010Y593727D01*
X461899Y593725D01*
X458724Y593725D01*
X470535Y593725D02*
X473710Y593725D01*
X473821Y593727D01*
X473931Y593733D01*
X474042Y593742D01*
X474152Y593756D01*
X474261Y593773D01*
X474370Y593794D01*
X474478Y593819D01*
X474585Y593848D01*
X474691Y593880D01*
X474796Y593916D01*
X474899Y593956D01*
X475001Y593999D01*
X475102Y594046D01*
X475201Y594097D01*
X475298Y594150D01*
X475392Y594207D01*
X475485Y594268D01*
X475576Y594331D01*
X475665Y594398D01*
X475751Y594468D01*
X475834Y594541D01*
X475916Y594616D01*
X475994Y594694D01*
X476069Y594776D01*
X476142Y594859D01*
X476212Y594945D01*
X476279Y595034D01*
X476342Y595125D01*
X476403Y595218D01*
X476460Y595313D01*
X476513Y595409D01*
X476564Y595508D01*
X476611Y595609D01*
X476654Y595711D01*
X476694Y595814D01*
X476730Y595919D01*
X476762Y596025D01*
X476791Y596132D01*
X476816Y596240D01*
X476837Y596349D01*
X476854Y596458D01*
X476868Y596568D01*
X476877Y596679D01*
X476883Y596789D01*
X476885Y596900D01*
X476883Y597011D01*
X476877Y597121D01*
X476868Y597232D01*
X476854Y597342D01*
X476837Y597451D01*
X476816Y597560D01*
X476791Y597668D01*
X476762Y597775D01*
X476730Y597881D01*
X476694Y597986D01*
X476654Y598089D01*
X476611Y598191D01*
X476564Y598292D01*
X476513Y598391D01*
X476460Y598487D01*
X476403Y598582D01*
X476342Y598675D01*
X476279Y598766D01*
X476212Y598855D01*
X476142Y598941D01*
X476069Y599024D01*
X475994Y599106D01*
X475916Y599184D01*
X475834Y599259D01*
X475751Y599332D01*
X475665Y599402D01*
X475576Y599469D01*
X475485Y599532D01*
X475392Y599593D01*
X475298Y599650D01*
X475201Y599703D01*
X475102Y599754D01*
X475001Y599801D01*
X474899Y599844D01*
X474796Y599884D01*
X474691Y599920D01*
X474585Y599952D01*
X474478Y599981D01*
X474370Y600006D01*
X474261Y600027D01*
X474152Y600044D01*
X474042Y600058D01*
X473931Y600067D01*
X473821Y600073D01*
X473710Y600075D01*
X474345Y605155D02*
X470535Y605155D01*
X474345Y605155D02*
X474445Y605153D01*
X474544Y605147D01*
X474644Y605137D01*
X474742Y605124D01*
X474841Y605106D01*
X474938Y605085D01*
X475034Y605060D01*
X475130Y605031D01*
X475224Y604998D01*
X475317Y604962D01*
X475408Y604922D01*
X475498Y604878D01*
X475586Y604831D01*
X475672Y604781D01*
X475756Y604727D01*
X475838Y604670D01*
X475917Y604610D01*
X475995Y604546D01*
X476069Y604480D01*
X476141Y604411D01*
X476210Y604339D01*
X476276Y604265D01*
X476340Y604187D01*
X476400Y604108D01*
X476457Y604026D01*
X476511Y603942D01*
X476561Y603856D01*
X476608Y603768D01*
X476652Y603678D01*
X476692Y603587D01*
X476728Y603494D01*
X476761Y603400D01*
X476790Y603304D01*
X476815Y603208D01*
X476836Y603111D01*
X476854Y603012D01*
X476867Y602914D01*
X476877Y602814D01*
X476883Y602715D01*
X476885Y602615D01*
X476883Y602515D01*
X476877Y602416D01*
X476867Y602316D01*
X476854Y602218D01*
X476836Y602119D01*
X476815Y602022D01*
X476790Y601926D01*
X476761Y601830D01*
X476728Y601736D01*
X476692Y601643D01*
X476652Y601552D01*
X476608Y601462D01*
X476561Y601374D01*
X476511Y601288D01*
X476457Y601204D01*
X476400Y601122D01*
X476340Y601043D01*
X476276Y600965D01*
X476210Y600891D01*
X476141Y600819D01*
X476069Y600750D01*
X475995Y600684D01*
X475917Y600620D01*
X475838Y600560D01*
X475756Y600503D01*
X475672Y600449D01*
X475586Y600399D01*
X475498Y600352D01*
X475408Y600308D01*
X475317Y600268D01*
X475224Y600232D01*
X475130Y600199D01*
X475034Y600170D01*
X474938Y600145D01*
X474841Y600124D01*
X474742Y600106D01*
X474644Y600093D01*
X474544Y600083D01*
X474445Y600077D01*
X474345Y600075D01*
X471805Y600075D01*
D10*
X477520Y533400D02*
X436880Y533400D01*
X436880Y508000D01*
X477520Y508000D01*
X477520Y533400D01*
X463550Y520700D02*
X457200Y520700D01*
X447040Y514350D02*
X447040Y527050D01*
X457200Y520700D01*
X441960Y520700D01*
X447040Y514350D02*
X457200Y520700D01*
X457200Y514350D01*
X457200Y520700D02*
X457200Y527050D01*
D15*
X471170Y520700D03*
D16*
X427355Y520700D03*
X487045Y520700D03*
D12*
X458724Y503555D02*
X458724Y492125D01*
X458724Y503555D02*
X461899Y503555D01*
X462010Y503553D01*
X462120Y503547D01*
X462231Y503538D01*
X462341Y503524D01*
X462450Y503507D01*
X462559Y503486D01*
X462667Y503461D01*
X462774Y503432D01*
X462880Y503400D01*
X462985Y503364D01*
X463088Y503324D01*
X463190Y503281D01*
X463291Y503234D01*
X463390Y503183D01*
X463487Y503130D01*
X463581Y503073D01*
X463674Y503012D01*
X463765Y502949D01*
X463854Y502882D01*
X463940Y502812D01*
X464023Y502739D01*
X464105Y502664D01*
X464183Y502586D01*
X464258Y502504D01*
X464331Y502421D01*
X464401Y502335D01*
X464468Y502246D01*
X464531Y502155D01*
X464592Y502062D01*
X464649Y501968D01*
X464702Y501871D01*
X464753Y501772D01*
X464800Y501671D01*
X464843Y501569D01*
X464883Y501466D01*
X464919Y501361D01*
X464951Y501255D01*
X464980Y501148D01*
X465005Y501040D01*
X465026Y500931D01*
X465043Y500822D01*
X465057Y500712D01*
X465066Y500601D01*
X465072Y500491D01*
X465074Y500380D01*
X465074Y495300D01*
X465072Y495189D01*
X465066Y495079D01*
X465057Y494968D01*
X465043Y494858D01*
X465026Y494749D01*
X465005Y494640D01*
X464980Y494532D01*
X464951Y494425D01*
X464919Y494319D01*
X464883Y494214D01*
X464843Y494111D01*
X464800Y494009D01*
X464753Y493908D01*
X464702Y493809D01*
X464649Y493712D01*
X464592Y493618D01*
X464531Y493525D01*
X464468Y493434D01*
X464401Y493345D01*
X464331Y493259D01*
X464258Y493176D01*
X464183Y493094D01*
X464105Y493016D01*
X464023Y492941D01*
X463940Y492868D01*
X463854Y492798D01*
X463765Y492731D01*
X463674Y492668D01*
X463581Y492607D01*
X463487Y492550D01*
X463390Y492497D01*
X463291Y492446D01*
X463190Y492399D01*
X463088Y492356D01*
X462985Y492316D01*
X462880Y492280D01*
X462774Y492248D01*
X462667Y492219D01*
X462559Y492194D01*
X462450Y492173D01*
X462341Y492156D01*
X462231Y492142D01*
X462120Y492133D01*
X462010Y492127D01*
X461899Y492125D01*
X458724Y492125D01*
X470535Y494665D02*
X473075Y503555D01*
X470535Y494665D02*
X476885Y494665D01*
X474980Y497205D02*
X474980Y492125D01*
D10*
X728350Y567690D02*
X727956Y568202D01*
X727574Y568724D01*
X727206Y569255D01*
X726850Y569795D01*
X726507Y570343D01*
X726178Y570899D01*
X725863Y571463D01*
X725561Y572035D01*
X725273Y572614D01*
X724999Y573199D01*
X724740Y573792D01*
X724495Y574390D01*
X724264Y574994D01*
X724049Y575603D01*
X723848Y576217D01*
X723662Y576836D01*
X723491Y577460D01*
X723335Y578087D01*
X723194Y578718D01*
X723069Y579352D01*
X722960Y579989D01*
X722865Y580629D01*
X722786Y581270D01*
X722723Y581914D01*
X722676Y582558D01*
X722644Y583204D01*
X722627Y583850D01*
X722627Y584497D01*
X722642Y585143D01*
X722672Y585788D01*
X722719Y586433D01*
X722781Y587077D01*
X722858Y587718D01*
X722951Y588358D01*
X723060Y588995D01*
X723184Y589630D01*
X723323Y590261D01*
X723477Y590889D01*
X723647Y591512D01*
X723832Y592132D01*
X724031Y592747D01*
X724246Y593356D01*
X724475Y593961D01*
X724719Y594559D01*
X724977Y595152D01*
X725250Y595738D01*
X725537Y596317D01*
X725837Y596890D01*
X726152Y597454D01*
X726480Y598011D01*
X726821Y598560D01*
X727176Y599101D01*
X727543Y599632D01*
X727924Y600155D01*
X728317Y600668D01*
X728722Y601172D01*
X729139Y601665D01*
X729569Y602149D01*
X730009Y602622D01*
X730462Y603084D01*
X730925Y603534D01*
X731399Y603974D01*
X731883Y604402D01*
X732378Y604818D01*
X732883Y605222D01*
X733397Y605613D01*
X733920Y605992D01*
X734453Y606359D01*
X734995Y606712D01*
X735544Y607052D01*
X736102Y607378D01*
X736668Y607691D01*
X737241Y607990D01*
X737821Y608276D01*
X738408Y608547D01*
X739001Y608803D01*
X739600Y609046D01*
X740205Y609273D01*
X740816Y609486D01*
X741431Y609684D01*
X757169Y609684D02*
X757784Y609486D01*
X758395Y609273D01*
X759000Y609046D01*
X759599Y608803D01*
X760192Y608547D01*
X760779Y608276D01*
X761359Y607990D01*
X761932Y607691D01*
X762498Y607378D01*
X763056Y607052D01*
X763605Y606712D01*
X764147Y606359D01*
X764680Y605992D01*
X765203Y605613D01*
X765717Y605222D01*
X766222Y604818D01*
X766717Y604402D01*
X767201Y603974D01*
X767675Y603534D01*
X768138Y603084D01*
X768591Y602622D01*
X769031Y602149D01*
X769461Y601665D01*
X769878Y601172D01*
X770283Y600668D01*
X770676Y600155D01*
X771057Y599632D01*
X771424Y599101D01*
X771779Y598560D01*
X772120Y598011D01*
X772448Y597454D01*
X772763Y596890D01*
X773063Y596317D01*
X773350Y595738D01*
X773623Y595152D01*
X773881Y594559D01*
X774125Y593961D01*
X774354Y593356D01*
X774569Y592747D01*
X774768Y592132D01*
X774953Y591512D01*
X775123Y590889D01*
X775277Y590261D01*
X775416Y589630D01*
X775540Y588995D01*
X775649Y588358D01*
X775742Y587718D01*
X775819Y587077D01*
X775881Y586433D01*
X775928Y585788D01*
X775958Y585143D01*
X775973Y584497D01*
X775973Y583850D01*
X775956Y583204D01*
X775924Y582558D01*
X775877Y581914D01*
X775814Y581270D01*
X775735Y580629D01*
X775640Y579989D01*
X775531Y579352D01*
X775406Y578718D01*
X775265Y578087D01*
X775109Y577460D01*
X774938Y576836D01*
X774752Y576217D01*
X774551Y575603D01*
X774336Y574994D01*
X774105Y574390D01*
X773860Y573792D01*
X773601Y573199D01*
X773327Y572614D01*
X773039Y572035D01*
X772737Y571463D01*
X772422Y570899D01*
X772093Y570343D01*
X771750Y569795D01*
X771394Y569255D01*
X771026Y568724D01*
X770644Y568202D01*
X770250Y567690D01*
X728350Y567690D01*
X726760Y581660D02*
X722750Y581660D01*
X746440Y581660D02*
X752160Y581660D01*
X771840Y581660D02*
X775850Y581660D01*
D12*
X775335Y601345D02*
X775335Y612775D01*
X774065Y601345D02*
X776605Y601345D01*
X776605Y612775D02*
X774065Y612775D01*
X783807Y601345D02*
X786347Y601345D01*
X783807Y601345D02*
X783707Y601347D01*
X783608Y601353D01*
X783508Y601363D01*
X783410Y601376D01*
X783311Y601394D01*
X783214Y601415D01*
X783118Y601440D01*
X783022Y601469D01*
X782928Y601502D01*
X782835Y601538D01*
X782744Y601578D01*
X782654Y601622D01*
X782566Y601669D01*
X782480Y601719D01*
X782396Y601773D01*
X782314Y601830D01*
X782235Y601890D01*
X782157Y601954D01*
X782083Y602020D01*
X782011Y602089D01*
X781942Y602161D01*
X781876Y602235D01*
X781812Y602313D01*
X781752Y602392D01*
X781695Y602474D01*
X781641Y602558D01*
X781591Y602644D01*
X781544Y602732D01*
X781500Y602822D01*
X781460Y602913D01*
X781424Y603006D01*
X781391Y603100D01*
X781362Y603196D01*
X781337Y603292D01*
X781316Y603389D01*
X781298Y603488D01*
X781285Y603586D01*
X781275Y603686D01*
X781269Y603785D01*
X781267Y603885D01*
X781267Y610235D01*
X781269Y610335D01*
X781275Y610434D01*
X781285Y610534D01*
X781298Y610632D01*
X781316Y610731D01*
X781337Y610828D01*
X781362Y610924D01*
X781391Y611020D01*
X781424Y611114D01*
X781460Y611207D01*
X781500Y611298D01*
X781544Y611388D01*
X781591Y611476D01*
X781641Y611562D01*
X781695Y611646D01*
X781752Y611728D01*
X781812Y611807D01*
X781876Y611885D01*
X781942Y611959D01*
X782011Y612031D01*
X782083Y612100D01*
X782157Y612166D01*
X782235Y612230D01*
X782314Y612290D01*
X782396Y612347D01*
X782480Y612401D01*
X782566Y612451D01*
X782654Y612498D01*
X782744Y612542D01*
X782835Y612582D01*
X782928Y612618D01*
X783022Y612651D01*
X783118Y612680D01*
X783214Y612705D01*
X783311Y612726D01*
X783410Y612744D01*
X783508Y612757D01*
X783608Y612767D01*
X783707Y612773D01*
X783807Y612775D01*
X786347Y612775D01*
X790829Y610235D02*
X794004Y612775D01*
X794004Y601345D01*
X790829Y601345D02*
X797179Y601345D01*
D10*
X539750Y736600D02*
X535940Y732790D01*
X534670Y701040D01*
X679450Y736600D02*
X683260Y732790D01*
X684530Y701040D01*
X546100Y736600D02*
X539750Y736600D01*
X563880Y736600D02*
X600710Y736600D01*
X618490Y736600D02*
X655320Y736600D01*
X673100Y736600D02*
X679450Y736600D01*
D17*
X609600Y691515D03*
D18*
X683260Y699135D03*
D19*
X636905Y699135D03*
X582295Y699135D03*
D18*
X535940Y699135D03*
D12*
X667754Y745490D02*
X667754Y750570D01*
X667756Y750681D01*
X667762Y750791D01*
X667771Y750902D01*
X667785Y751012D01*
X667802Y751121D01*
X667823Y751230D01*
X667848Y751338D01*
X667877Y751445D01*
X667909Y751551D01*
X667945Y751656D01*
X667985Y751759D01*
X668028Y751861D01*
X668075Y751962D01*
X668126Y752061D01*
X668179Y752158D01*
X668236Y752252D01*
X668297Y752345D01*
X668360Y752436D01*
X668427Y752525D01*
X668497Y752611D01*
X668570Y752694D01*
X668645Y752776D01*
X668723Y752854D01*
X668805Y752929D01*
X668888Y753002D01*
X668974Y753072D01*
X669063Y753139D01*
X669154Y753202D01*
X669247Y753263D01*
X669342Y753320D01*
X669438Y753373D01*
X669537Y753424D01*
X669638Y753471D01*
X669740Y753514D01*
X669843Y753554D01*
X669948Y753590D01*
X670054Y753622D01*
X670161Y753651D01*
X670269Y753676D01*
X670378Y753697D01*
X670487Y753714D01*
X670597Y753728D01*
X670708Y753737D01*
X670818Y753743D01*
X670929Y753745D01*
X671040Y753743D01*
X671150Y753737D01*
X671261Y753728D01*
X671371Y753714D01*
X671480Y753697D01*
X671589Y753676D01*
X671697Y753651D01*
X671804Y753622D01*
X671910Y753590D01*
X672015Y753554D01*
X672118Y753514D01*
X672220Y753471D01*
X672321Y753424D01*
X672420Y753373D01*
X672517Y753320D01*
X672611Y753263D01*
X672704Y753202D01*
X672795Y753139D01*
X672884Y753072D01*
X672970Y753002D01*
X673053Y752929D01*
X673135Y752854D01*
X673213Y752776D01*
X673288Y752694D01*
X673361Y752611D01*
X673431Y752525D01*
X673498Y752436D01*
X673561Y752345D01*
X673622Y752252D01*
X673679Y752158D01*
X673732Y752061D01*
X673783Y751962D01*
X673830Y751861D01*
X673873Y751759D01*
X673913Y751656D01*
X673949Y751551D01*
X673981Y751445D01*
X674010Y751338D01*
X674035Y751230D01*
X674056Y751121D01*
X674073Y751012D01*
X674087Y750902D01*
X674096Y750791D01*
X674102Y750681D01*
X674104Y750570D01*
X674104Y745490D01*
X674102Y745379D01*
X674096Y745269D01*
X674087Y745158D01*
X674073Y745048D01*
X674056Y744939D01*
X674035Y744830D01*
X674010Y744722D01*
X673981Y744615D01*
X673949Y744509D01*
X673913Y744404D01*
X673873Y744301D01*
X673830Y744199D01*
X673783Y744098D01*
X673732Y743999D01*
X673679Y743903D01*
X673622Y743808D01*
X673561Y743715D01*
X673498Y743624D01*
X673431Y743535D01*
X673361Y743449D01*
X673288Y743366D01*
X673213Y743284D01*
X673135Y743206D01*
X673053Y743131D01*
X672970Y743058D01*
X672884Y742988D01*
X672795Y742921D01*
X672704Y742858D01*
X672611Y742797D01*
X672517Y742740D01*
X672420Y742687D01*
X672321Y742636D01*
X672220Y742589D01*
X672118Y742546D01*
X672015Y742506D01*
X671910Y742470D01*
X671804Y742438D01*
X671697Y742409D01*
X671589Y742384D01*
X671480Y742363D01*
X671371Y742346D01*
X671261Y742332D01*
X671150Y742323D01*
X671040Y742317D01*
X670929Y742315D01*
X670818Y742317D01*
X670708Y742323D01*
X670597Y742332D01*
X670487Y742346D01*
X670378Y742363D01*
X670269Y742384D01*
X670161Y742409D01*
X670054Y742438D01*
X669948Y742470D01*
X669843Y742506D01*
X669740Y742546D01*
X669638Y742589D01*
X669537Y742636D01*
X669438Y742687D01*
X669342Y742740D01*
X669247Y742797D01*
X669154Y742858D01*
X669063Y742921D01*
X668974Y742988D01*
X668888Y743058D01*
X668805Y743131D01*
X668723Y743206D01*
X668645Y743284D01*
X668570Y743366D01*
X668497Y743449D01*
X668427Y743535D01*
X668360Y743624D01*
X668297Y743715D01*
X668236Y743808D01*
X668179Y743903D01*
X668126Y743999D01*
X668075Y744098D01*
X668028Y744199D01*
X667985Y744301D01*
X667945Y744404D01*
X667909Y744509D01*
X667877Y744615D01*
X667848Y744722D01*
X667823Y744830D01*
X667802Y744939D01*
X667785Y745048D01*
X667771Y745158D01*
X667762Y745269D01*
X667756Y745379D01*
X667754Y745490D01*
X672834Y744855D02*
X675374Y742315D01*
X678815Y751205D02*
X681990Y753745D01*
X681990Y742315D01*
X678815Y742315D02*
X685165Y742315D01*
D10*
X148590Y762000D02*
X148599Y762717D01*
X148625Y763433D01*
X148669Y764149D01*
X148731Y764863D01*
X148810Y765576D01*
X148906Y766286D01*
X149020Y766994D01*
X149151Y767699D01*
X149300Y768400D01*
X149465Y769097D01*
X149648Y769791D01*
X149848Y770479D01*
X150064Y771163D01*
X150297Y771841D01*
X150547Y772513D01*
X150813Y773178D01*
X151096Y773837D01*
X151394Y774489D01*
X151709Y775133D01*
X152039Y775769D01*
X152385Y776398D01*
X152746Y777017D01*
X153122Y777627D01*
X153513Y778228D01*
X153918Y778819D01*
X154338Y779400D01*
X154772Y779971D01*
X155220Y780531D01*
X155682Y781079D01*
X156157Y781616D01*
X156645Y782141D01*
X157145Y782655D01*
X157659Y783155D01*
X158184Y783643D01*
X158721Y784118D01*
X159269Y784580D01*
X159829Y785028D01*
X160400Y785462D01*
X160981Y785882D01*
X161572Y786287D01*
X162173Y786678D01*
X162783Y787054D01*
X163402Y787415D01*
X164031Y787761D01*
X164667Y788091D01*
X165311Y788406D01*
X165963Y788704D01*
X166622Y788987D01*
X167287Y789253D01*
X167959Y789503D01*
X168637Y789736D01*
X169321Y789952D01*
X170009Y790152D01*
X170703Y790335D01*
X171400Y790500D01*
X172101Y790649D01*
X172806Y790780D01*
X173514Y790894D01*
X174224Y790990D01*
X174937Y791069D01*
X175651Y791131D01*
X176367Y791175D01*
X177083Y791201D01*
X177800Y791210D01*
X178517Y791201D01*
X179233Y791175D01*
X179949Y791131D01*
X180663Y791069D01*
X181376Y790990D01*
X182086Y790894D01*
X182794Y790780D01*
X183499Y790649D01*
X184200Y790500D01*
X184897Y790335D01*
X185591Y790152D01*
X186279Y789952D01*
X186963Y789736D01*
X187641Y789503D01*
X188313Y789253D01*
X188978Y788987D01*
X189637Y788704D01*
X190289Y788406D01*
X190933Y788091D01*
X191569Y787761D01*
X192198Y787415D01*
X192817Y787054D01*
X193427Y786678D01*
X194028Y786287D01*
X194619Y785882D01*
X195200Y785462D01*
X195771Y785028D01*
X196331Y784580D01*
X196879Y784118D01*
X197416Y783643D01*
X197941Y783155D01*
X198455Y782655D01*
X198955Y782141D01*
X199443Y781616D01*
X199918Y781079D01*
X200380Y780531D01*
X200828Y779971D01*
X201262Y779400D01*
X201682Y778819D01*
X202087Y778228D01*
X202478Y777627D01*
X202854Y777017D01*
X203215Y776398D01*
X203561Y775769D01*
X203891Y775133D01*
X204206Y774489D01*
X204504Y773837D01*
X204787Y773178D01*
X205053Y772513D01*
X205303Y771841D01*
X205536Y771163D01*
X205752Y770479D01*
X205952Y769791D01*
X206135Y769097D01*
X206300Y768400D01*
X206449Y767699D01*
X206580Y766994D01*
X206694Y766286D01*
X206790Y765576D01*
X206869Y764863D01*
X206931Y764149D01*
X206975Y763433D01*
X207001Y762717D01*
X207010Y762000D01*
X207001Y761283D01*
X206975Y760567D01*
X206931Y759851D01*
X206869Y759137D01*
X206790Y758424D01*
X206694Y757714D01*
X206580Y757006D01*
X206449Y756301D01*
X206300Y755600D01*
X206135Y754903D01*
X205952Y754209D01*
X205752Y753521D01*
X205536Y752837D01*
X205303Y752159D01*
X205053Y751487D01*
X204787Y750822D01*
X204504Y750163D01*
X204206Y749511D01*
X203891Y748867D01*
X203561Y748231D01*
X203215Y747602D01*
X202854Y746983D01*
X202478Y746373D01*
X202087Y745772D01*
X201682Y745181D01*
X201262Y744600D01*
X200828Y744029D01*
X200380Y743469D01*
X199918Y742921D01*
X199443Y742384D01*
X198955Y741859D01*
X198455Y741345D01*
X197941Y740845D01*
X197416Y740357D01*
X196879Y739882D01*
X196331Y739420D01*
X195771Y738972D01*
X195200Y738538D01*
X194619Y738118D01*
X194028Y737713D01*
X193427Y737322D01*
X192817Y736946D01*
X192198Y736585D01*
X191569Y736239D01*
X190933Y735909D01*
X190289Y735594D01*
X189637Y735296D01*
X188978Y735013D01*
X188313Y734747D01*
X187641Y734497D01*
X186963Y734264D01*
X186279Y734048D01*
X185591Y733848D01*
X184897Y733665D01*
X184200Y733500D01*
X183499Y733351D01*
X182794Y733220D01*
X182086Y733106D01*
X181376Y733010D01*
X180663Y732931D01*
X179949Y732869D01*
X179233Y732825D01*
X178517Y732799D01*
X177800Y732790D01*
X177083Y732799D01*
X176367Y732825D01*
X175651Y732869D01*
X174937Y732931D01*
X174224Y733010D01*
X173514Y733106D01*
X172806Y733220D01*
X172101Y733351D01*
X171400Y733500D01*
X170703Y733665D01*
X170009Y733848D01*
X169321Y734048D01*
X168637Y734264D01*
X167959Y734497D01*
X167287Y734747D01*
X166622Y735013D01*
X165963Y735296D01*
X165311Y735594D01*
X164667Y735909D01*
X164031Y736239D01*
X163402Y736585D01*
X162783Y736946D01*
X162173Y737322D01*
X161572Y737713D01*
X160981Y738118D01*
X160400Y738538D01*
X159829Y738972D01*
X159269Y739420D01*
X158721Y739882D01*
X158184Y740357D01*
X157659Y740845D01*
X157145Y741345D01*
X156645Y741859D01*
X156157Y742384D01*
X155682Y742921D01*
X155220Y743469D01*
X154772Y744029D01*
X154338Y744600D01*
X153918Y745181D01*
X153513Y745772D01*
X153122Y746373D01*
X152746Y746983D01*
X152385Y747602D01*
X152039Y748231D01*
X151709Y748867D01*
X151394Y749511D01*
X151096Y750163D01*
X150813Y750822D01*
X150547Y751487D01*
X150297Y752159D01*
X150064Y752837D01*
X149848Y753521D01*
X149648Y754209D01*
X149465Y754903D01*
X149300Y755600D01*
X149151Y756301D01*
X149020Y757006D01*
X148906Y757714D01*
X148810Y758424D01*
X148731Y759137D01*
X148669Y759851D01*
X148625Y760567D01*
X148599Y761283D01*
X148590Y762000D01*
D20*
X162800Y762000D02*
X162805Y762368D01*
X162818Y762736D01*
X162841Y763103D01*
X162872Y763470D01*
X162913Y763836D01*
X162962Y764201D01*
X163021Y764564D01*
X163088Y764926D01*
X163164Y765287D01*
X163250Y765645D01*
X163343Y766001D01*
X163446Y766354D01*
X163557Y766705D01*
X163677Y767053D01*
X163805Y767398D01*
X163942Y767740D01*
X164087Y768079D01*
X164240Y768413D01*
X164402Y768744D01*
X164571Y769071D01*
X164749Y769393D01*
X164934Y769712D01*
X165127Y770025D01*
X165328Y770334D01*
X165536Y770637D01*
X165752Y770935D01*
X165975Y771228D01*
X166205Y771516D01*
X166442Y771798D01*
X166686Y772073D01*
X166936Y772343D01*
X167193Y772607D01*
X167457Y772864D01*
X167727Y773114D01*
X168002Y773358D01*
X168284Y773595D01*
X168572Y773825D01*
X168865Y774048D01*
X169163Y774264D01*
X169466Y774472D01*
X169775Y774673D01*
X170088Y774866D01*
X170407Y775051D01*
X170729Y775229D01*
X171056Y775398D01*
X171387Y775560D01*
X171721Y775713D01*
X172060Y775858D01*
X172402Y775995D01*
X172747Y776123D01*
X173095Y776243D01*
X173446Y776354D01*
X173799Y776457D01*
X174155Y776550D01*
X174513Y776636D01*
X174874Y776712D01*
X175236Y776779D01*
X175599Y776838D01*
X175964Y776887D01*
X176330Y776928D01*
X176697Y776959D01*
X177064Y776982D01*
X177432Y776995D01*
X177800Y777000D01*
X178168Y776995D01*
X178536Y776982D01*
X178903Y776959D01*
X179270Y776928D01*
X179636Y776887D01*
X180001Y776838D01*
X180364Y776779D01*
X180726Y776712D01*
X181087Y776636D01*
X181445Y776550D01*
X181801Y776457D01*
X182154Y776354D01*
X182505Y776243D01*
X182853Y776123D01*
X183198Y775995D01*
X183540Y775858D01*
X183879Y775713D01*
X184213Y775560D01*
X184544Y775398D01*
X184871Y775229D01*
X185193Y775051D01*
X185512Y774866D01*
X185825Y774673D01*
X186134Y774472D01*
X186437Y774264D01*
X186735Y774048D01*
X187028Y773825D01*
X187316Y773595D01*
X187598Y773358D01*
X187873Y773114D01*
X188143Y772864D01*
X188407Y772607D01*
X188664Y772343D01*
X188914Y772073D01*
X189158Y771798D01*
X189395Y771516D01*
X189625Y771228D01*
X189848Y770935D01*
X190064Y770637D01*
X190272Y770334D01*
X190473Y770025D01*
X190666Y769712D01*
X190851Y769393D01*
X191029Y769071D01*
X191198Y768744D01*
X191360Y768413D01*
X191513Y768079D01*
X191658Y767740D01*
X191795Y767398D01*
X191923Y767053D01*
X192043Y766705D01*
X192154Y766354D01*
X192257Y766001D01*
X192350Y765645D01*
X192436Y765287D01*
X192512Y764926D01*
X192579Y764564D01*
X192638Y764201D01*
X192687Y763836D01*
X192728Y763470D01*
X192759Y763103D01*
X192782Y762736D01*
X192795Y762368D01*
X192800Y762000D01*
X192795Y761632D01*
X192782Y761264D01*
X192759Y760897D01*
X192728Y760530D01*
X192687Y760164D01*
X192638Y759799D01*
X192579Y759436D01*
X192512Y759074D01*
X192436Y758713D01*
X192350Y758355D01*
X192257Y757999D01*
X192154Y757646D01*
X192043Y757295D01*
X191923Y756947D01*
X191795Y756602D01*
X191658Y756260D01*
X191513Y755921D01*
X191360Y755587D01*
X191198Y755256D01*
X191029Y754929D01*
X190851Y754607D01*
X190666Y754288D01*
X190473Y753975D01*
X190272Y753666D01*
X190064Y753363D01*
X189848Y753065D01*
X189625Y752772D01*
X189395Y752484D01*
X189158Y752202D01*
X188914Y751927D01*
X188664Y751657D01*
X188407Y751393D01*
X188143Y751136D01*
X187873Y750886D01*
X187598Y750642D01*
X187316Y750405D01*
X187028Y750175D01*
X186735Y749952D01*
X186437Y749736D01*
X186134Y749528D01*
X185825Y749327D01*
X185512Y749134D01*
X185193Y748949D01*
X184871Y748771D01*
X184544Y748602D01*
X184213Y748440D01*
X183879Y748287D01*
X183540Y748142D01*
X183198Y748005D01*
X182853Y747877D01*
X182505Y747757D01*
X182154Y747646D01*
X181801Y747543D01*
X181445Y747450D01*
X181087Y747364D01*
X180726Y747288D01*
X180364Y747221D01*
X180001Y747162D01*
X179636Y747113D01*
X179270Y747072D01*
X178903Y747041D01*
X178536Y747018D01*
X178168Y747005D01*
X177800Y747000D01*
X177432Y747005D01*
X177064Y747018D01*
X176697Y747041D01*
X176330Y747072D01*
X175964Y747113D01*
X175599Y747162D01*
X175236Y747221D01*
X174874Y747288D01*
X174513Y747364D01*
X174155Y747450D01*
X173799Y747543D01*
X173446Y747646D01*
X173095Y747757D01*
X172747Y747877D01*
X172402Y748005D01*
X172060Y748142D01*
X171721Y748287D01*
X171387Y748440D01*
X171056Y748602D01*
X170729Y748771D01*
X170407Y748949D01*
X170088Y749134D01*
X169775Y749327D01*
X169466Y749528D01*
X169163Y749736D01*
X168865Y749952D01*
X168572Y750175D01*
X168284Y750405D01*
X168002Y750642D01*
X167727Y750886D01*
X167457Y751136D01*
X167193Y751393D01*
X166936Y751657D01*
X166686Y751927D01*
X166442Y752202D01*
X166205Y752484D01*
X165975Y752772D01*
X165752Y753065D01*
X165536Y753363D01*
X165328Y753666D01*
X165127Y753975D01*
X164934Y754288D01*
X164749Y754607D01*
X164571Y754929D01*
X164402Y755256D01*
X164240Y755587D01*
X164087Y755921D01*
X163942Y756260D01*
X163805Y756602D01*
X163677Y756947D01*
X163557Y757295D01*
X163446Y757646D01*
X163343Y757999D01*
X163250Y758355D01*
X163164Y758713D01*
X163088Y759074D01*
X163021Y759436D01*
X162962Y759799D01*
X162913Y760164D01*
X162872Y760530D01*
X162841Y760897D01*
X162818Y761264D01*
X162805Y761632D01*
X162800Y762000D01*
D10*
X148590Y317500D02*
X148599Y318217D01*
X148625Y318933D01*
X148669Y319649D01*
X148731Y320363D01*
X148810Y321076D01*
X148906Y321786D01*
X149020Y322494D01*
X149151Y323199D01*
X149300Y323900D01*
X149465Y324597D01*
X149648Y325291D01*
X149848Y325979D01*
X150064Y326663D01*
X150297Y327341D01*
X150547Y328013D01*
X150813Y328678D01*
X151096Y329337D01*
X151394Y329989D01*
X151709Y330633D01*
X152039Y331269D01*
X152385Y331898D01*
X152746Y332517D01*
X153122Y333127D01*
X153513Y333728D01*
X153918Y334319D01*
X154338Y334900D01*
X154772Y335471D01*
X155220Y336031D01*
X155682Y336579D01*
X156157Y337116D01*
X156645Y337641D01*
X157145Y338155D01*
X157659Y338655D01*
X158184Y339143D01*
X158721Y339618D01*
X159269Y340080D01*
X159829Y340528D01*
X160400Y340962D01*
X160981Y341382D01*
X161572Y341787D01*
X162173Y342178D01*
X162783Y342554D01*
X163402Y342915D01*
X164031Y343261D01*
X164667Y343591D01*
X165311Y343906D01*
X165963Y344204D01*
X166622Y344487D01*
X167287Y344753D01*
X167959Y345003D01*
X168637Y345236D01*
X169321Y345452D01*
X170009Y345652D01*
X170703Y345835D01*
X171400Y346000D01*
X172101Y346149D01*
X172806Y346280D01*
X173514Y346394D01*
X174224Y346490D01*
X174937Y346569D01*
X175651Y346631D01*
X176367Y346675D01*
X177083Y346701D01*
X177800Y346710D01*
X178517Y346701D01*
X179233Y346675D01*
X179949Y346631D01*
X180663Y346569D01*
X181376Y346490D01*
X182086Y346394D01*
X182794Y346280D01*
X183499Y346149D01*
X184200Y346000D01*
X184897Y345835D01*
X185591Y345652D01*
X186279Y345452D01*
X186963Y345236D01*
X187641Y345003D01*
X188313Y344753D01*
X188978Y344487D01*
X189637Y344204D01*
X190289Y343906D01*
X190933Y343591D01*
X191569Y343261D01*
X192198Y342915D01*
X192817Y342554D01*
X193427Y342178D01*
X194028Y341787D01*
X194619Y341382D01*
X195200Y340962D01*
X195771Y340528D01*
X196331Y340080D01*
X196879Y339618D01*
X197416Y339143D01*
X197941Y338655D01*
X198455Y338155D01*
X198955Y337641D01*
X199443Y337116D01*
X199918Y336579D01*
X200380Y336031D01*
X200828Y335471D01*
X201262Y334900D01*
X201682Y334319D01*
X202087Y333728D01*
X202478Y333127D01*
X202854Y332517D01*
X203215Y331898D01*
X203561Y331269D01*
X203891Y330633D01*
X204206Y329989D01*
X204504Y329337D01*
X204787Y328678D01*
X205053Y328013D01*
X205303Y327341D01*
X205536Y326663D01*
X205752Y325979D01*
X205952Y325291D01*
X206135Y324597D01*
X206300Y323900D01*
X206449Y323199D01*
X206580Y322494D01*
X206694Y321786D01*
X206790Y321076D01*
X206869Y320363D01*
X206931Y319649D01*
X206975Y318933D01*
X207001Y318217D01*
X207010Y317500D01*
X207001Y316783D01*
X206975Y316067D01*
X206931Y315351D01*
X206869Y314637D01*
X206790Y313924D01*
X206694Y313214D01*
X206580Y312506D01*
X206449Y311801D01*
X206300Y311100D01*
X206135Y310403D01*
X205952Y309709D01*
X205752Y309021D01*
X205536Y308337D01*
X205303Y307659D01*
X205053Y306987D01*
X204787Y306322D01*
X204504Y305663D01*
X204206Y305011D01*
X203891Y304367D01*
X203561Y303731D01*
X203215Y303102D01*
X202854Y302483D01*
X202478Y301873D01*
X202087Y301272D01*
X201682Y300681D01*
X201262Y300100D01*
X200828Y299529D01*
X200380Y298969D01*
X199918Y298421D01*
X199443Y297884D01*
X198955Y297359D01*
X198455Y296845D01*
X197941Y296345D01*
X197416Y295857D01*
X196879Y295382D01*
X196331Y294920D01*
X195771Y294472D01*
X195200Y294038D01*
X194619Y293618D01*
X194028Y293213D01*
X193427Y292822D01*
X192817Y292446D01*
X192198Y292085D01*
X191569Y291739D01*
X190933Y291409D01*
X190289Y291094D01*
X189637Y290796D01*
X188978Y290513D01*
X188313Y290247D01*
X187641Y289997D01*
X186963Y289764D01*
X186279Y289548D01*
X185591Y289348D01*
X184897Y289165D01*
X184200Y289000D01*
X183499Y288851D01*
X182794Y288720D01*
X182086Y288606D01*
X181376Y288510D01*
X180663Y288431D01*
X179949Y288369D01*
X179233Y288325D01*
X178517Y288299D01*
X177800Y288290D01*
X177083Y288299D01*
X176367Y288325D01*
X175651Y288369D01*
X174937Y288431D01*
X174224Y288510D01*
X173514Y288606D01*
X172806Y288720D01*
X172101Y288851D01*
X171400Y289000D01*
X170703Y289165D01*
X170009Y289348D01*
X169321Y289548D01*
X168637Y289764D01*
X167959Y289997D01*
X167287Y290247D01*
X166622Y290513D01*
X165963Y290796D01*
X165311Y291094D01*
X164667Y291409D01*
X164031Y291739D01*
X163402Y292085D01*
X162783Y292446D01*
X162173Y292822D01*
X161572Y293213D01*
X160981Y293618D01*
X160400Y294038D01*
X159829Y294472D01*
X159269Y294920D01*
X158721Y295382D01*
X158184Y295857D01*
X157659Y296345D01*
X157145Y296845D01*
X156645Y297359D01*
X156157Y297884D01*
X155682Y298421D01*
X155220Y298969D01*
X154772Y299529D01*
X154338Y300100D01*
X153918Y300681D01*
X153513Y301272D01*
X153122Y301873D01*
X152746Y302483D01*
X152385Y303102D01*
X152039Y303731D01*
X151709Y304367D01*
X151394Y305011D01*
X151096Y305663D01*
X150813Y306322D01*
X150547Y306987D01*
X150297Y307659D01*
X150064Y308337D01*
X149848Y309021D01*
X149648Y309709D01*
X149465Y310403D01*
X149300Y311100D01*
X149151Y311801D01*
X149020Y312506D01*
X148906Y313214D01*
X148810Y313924D01*
X148731Y314637D01*
X148669Y315351D01*
X148625Y316067D01*
X148599Y316783D01*
X148590Y317500D01*
D20*
X162800Y317500D02*
X162805Y317868D01*
X162818Y318236D01*
X162841Y318603D01*
X162872Y318970D01*
X162913Y319336D01*
X162962Y319701D01*
X163021Y320064D01*
X163088Y320426D01*
X163164Y320787D01*
X163250Y321145D01*
X163343Y321501D01*
X163446Y321854D01*
X163557Y322205D01*
X163677Y322553D01*
X163805Y322898D01*
X163942Y323240D01*
X164087Y323579D01*
X164240Y323913D01*
X164402Y324244D01*
X164571Y324571D01*
X164749Y324893D01*
X164934Y325212D01*
X165127Y325525D01*
X165328Y325834D01*
X165536Y326137D01*
X165752Y326435D01*
X165975Y326728D01*
X166205Y327016D01*
X166442Y327298D01*
X166686Y327573D01*
X166936Y327843D01*
X167193Y328107D01*
X167457Y328364D01*
X167727Y328614D01*
X168002Y328858D01*
X168284Y329095D01*
X168572Y329325D01*
X168865Y329548D01*
X169163Y329764D01*
X169466Y329972D01*
X169775Y330173D01*
X170088Y330366D01*
X170407Y330551D01*
X170729Y330729D01*
X171056Y330898D01*
X171387Y331060D01*
X171721Y331213D01*
X172060Y331358D01*
X172402Y331495D01*
X172747Y331623D01*
X173095Y331743D01*
X173446Y331854D01*
X173799Y331957D01*
X174155Y332050D01*
X174513Y332136D01*
X174874Y332212D01*
X175236Y332279D01*
X175599Y332338D01*
X175964Y332387D01*
X176330Y332428D01*
X176697Y332459D01*
X177064Y332482D01*
X177432Y332495D01*
X177800Y332500D01*
X178168Y332495D01*
X178536Y332482D01*
X178903Y332459D01*
X179270Y332428D01*
X179636Y332387D01*
X180001Y332338D01*
X180364Y332279D01*
X180726Y332212D01*
X181087Y332136D01*
X181445Y332050D01*
X181801Y331957D01*
X182154Y331854D01*
X182505Y331743D01*
X182853Y331623D01*
X183198Y331495D01*
X183540Y331358D01*
X183879Y331213D01*
X184213Y331060D01*
X184544Y330898D01*
X184871Y330729D01*
X185193Y330551D01*
X185512Y330366D01*
X185825Y330173D01*
X186134Y329972D01*
X186437Y329764D01*
X186735Y329548D01*
X187028Y329325D01*
X187316Y329095D01*
X187598Y328858D01*
X187873Y328614D01*
X188143Y328364D01*
X188407Y328107D01*
X188664Y327843D01*
X188914Y327573D01*
X189158Y327298D01*
X189395Y327016D01*
X189625Y326728D01*
X189848Y326435D01*
X190064Y326137D01*
X190272Y325834D01*
X190473Y325525D01*
X190666Y325212D01*
X190851Y324893D01*
X191029Y324571D01*
X191198Y324244D01*
X191360Y323913D01*
X191513Y323579D01*
X191658Y323240D01*
X191795Y322898D01*
X191923Y322553D01*
X192043Y322205D01*
X192154Y321854D01*
X192257Y321501D01*
X192350Y321145D01*
X192436Y320787D01*
X192512Y320426D01*
X192579Y320064D01*
X192638Y319701D01*
X192687Y319336D01*
X192728Y318970D01*
X192759Y318603D01*
X192782Y318236D01*
X192795Y317868D01*
X192800Y317500D01*
X192795Y317132D01*
X192782Y316764D01*
X192759Y316397D01*
X192728Y316030D01*
X192687Y315664D01*
X192638Y315299D01*
X192579Y314936D01*
X192512Y314574D01*
X192436Y314213D01*
X192350Y313855D01*
X192257Y313499D01*
X192154Y313146D01*
X192043Y312795D01*
X191923Y312447D01*
X191795Y312102D01*
X191658Y311760D01*
X191513Y311421D01*
X191360Y311087D01*
X191198Y310756D01*
X191029Y310429D01*
X190851Y310107D01*
X190666Y309788D01*
X190473Y309475D01*
X190272Y309166D01*
X190064Y308863D01*
X189848Y308565D01*
X189625Y308272D01*
X189395Y307984D01*
X189158Y307702D01*
X188914Y307427D01*
X188664Y307157D01*
X188407Y306893D01*
X188143Y306636D01*
X187873Y306386D01*
X187598Y306142D01*
X187316Y305905D01*
X187028Y305675D01*
X186735Y305452D01*
X186437Y305236D01*
X186134Y305028D01*
X185825Y304827D01*
X185512Y304634D01*
X185193Y304449D01*
X184871Y304271D01*
X184544Y304102D01*
X184213Y303940D01*
X183879Y303787D01*
X183540Y303642D01*
X183198Y303505D01*
X182853Y303377D01*
X182505Y303257D01*
X182154Y303146D01*
X181801Y303043D01*
X181445Y302950D01*
X181087Y302864D01*
X180726Y302788D01*
X180364Y302721D01*
X180001Y302662D01*
X179636Y302613D01*
X179270Y302572D01*
X178903Y302541D01*
X178536Y302518D01*
X178168Y302505D01*
X177800Y302500D01*
X177432Y302505D01*
X177064Y302518D01*
X176697Y302541D01*
X176330Y302572D01*
X175964Y302613D01*
X175599Y302662D01*
X175236Y302721D01*
X174874Y302788D01*
X174513Y302864D01*
X174155Y302950D01*
X173799Y303043D01*
X173446Y303146D01*
X173095Y303257D01*
X172747Y303377D01*
X172402Y303505D01*
X172060Y303642D01*
X171721Y303787D01*
X171387Y303940D01*
X171056Y304102D01*
X170729Y304271D01*
X170407Y304449D01*
X170088Y304634D01*
X169775Y304827D01*
X169466Y305028D01*
X169163Y305236D01*
X168865Y305452D01*
X168572Y305675D01*
X168284Y305905D01*
X168002Y306142D01*
X167727Y306386D01*
X167457Y306636D01*
X167193Y306893D01*
X166936Y307157D01*
X166686Y307427D01*
X166442Y307702D01*
X166205Y307984D01*
X165975Y308272D01*
X165752Y308565D01*
X165536Y308863D01*
X165328Y309166D01*
X165127Y309475D01*
X164934Y309788D01*
X164749Y310107D01*
X164571Y310429D01*
X164402Y310756D01*
X164240Y311087D01*
X164087Y311421D01*
X163942Y311760D01*
X163805Y312102D01*
X163677Y312447D01*
X163557Y312795D01*
X163446Y313146D01*
X163343Y313499D01*
X163250Y313855D01*
X163164Y314213D01*
X163088Y314574D01*
X163021Y314936D01*
X162962Y315299D01*
X162913Y315664D01*
X162872Y316030D01*
X162841Y316397D01*
X162818Y316764D01*
X162805Y317132D01*
X162800Y317500D01*
D10*
X948690Y762000D02*
X948699Y762717D01*
X948725Y763433D01*
X948769Y764149D01*
X948831Y764863D01*
X948910Y765576D01*
X949006Y766286D01*
X949120Y766994D01*
X949251Y767699D01*
X949400Y768400D01*
X949565Y769097D01*
X949748Y769791D01*
X949948Y770479D01*
X950164Y771163D01*
X950397Y771841D01*
X950647Y772513D01*
X950913Y773178D01*
X951196Y773837D01*
X951494Y774489D01*
X951809Y775133D01*
X952139Y775769D01*
X952485Y776398D01*
X952846Y777017D01*
X953222Y777627D01*
X953613Y778228D01*
X954018Y778819D01*
X954438Y779400D01*
X954872Y779971D01*
X955320Y780531D01*
X955782Y781079D01*
X956257Y781616D01*
X956745Y782141D01*
X957245Y782655D01*
X957759Y783155D01*
X958284Y783643D01*
X958821Y784118D01*
X959369Y784580D01*
X959929Y785028D01*
X960500Y785462D01*
X961081Y785882D01*
X961672Y786287D01*
X962273Y786678D01*
X962883Y787054D01*
X963502Y787415D01*
X964131Y787761D01*
X964767Y788091D01*
X965411Y788406D01*
X966063Y788704D01*
X966722Y788987D01*
X967387Y789253D01*
X968059Y789503D01*
X968737Y789736D01*
X969421Y789952D01*
X970109Y790152D01*
X970803Y790335D01*
X971500Y790500D01*
X972201Y790649D01*
X972906Y790780D01*
X973614Y790894D01*
X974324Y790990D01*
X975037Y791069D01*
X975751Y791131D01*
X976467Y791175D01*
X977183Y791201D01*
X977900Y791210D01*
X978617Y791201D01*
X979333Y791175D01*
X980049Y791131D01*
X980763Y791069D01*
X981476Y790990D01*
X982186Y790894D01*
X982894Y790780D01*
X983599Y790649D01*
X984300Y790500D01*
X984997Y790335D01*
X985691Y790152D01*
X986379Y789952D01*
X987063Y789736D01*
X987741Y789503D01*
X988413Y789253D01*
X989078Y788987D01*
X989737Y788704D01*
X990389Y788406D01*
X991033Y788091D01*
X991669Y787761D01*
X992298Y787415D01*
X992917Y787054D01*
X993527Y786678D01*
X994128Y786287D01*
X994719Y785882D01*
X995300Y785462D01*
X995871Y785028D01*
X996431Y784580D01*
X996979Y784118D01*
X997516Y783643D01*
X998041Y783155D01*
X998555Y782655D01*
X999055Y782141D01*
X999543Y781616D01*
X1000018Y781079D01*
X1000480Y780531D01*
X1000928Y779971D01*
X1001362Y779400D01*
X1001782Y778819D01*
X1002187Y778228D01*
X1002578Y777627D01*
X1002954Y777017D01*
X1003315Y776398D01*
X1003661Y775769D01*
X1003991Y775133D01*
X1004306Y774489D01*
X1004604Y773837D01*
X1004887Y773178D01*
X1005153Y772513D01*
X1005403Y771841D01*
X1005636Y771163D01*
X1005852Y770479D01*
X1006052Y769791D01*
X1006235Y769097D01*
X1006400Y768400D01*
X1006549Y767699D01*
X1006680Y766994D01*
X1006794Y766286D01*
X1006890Y765576D01*
X1006969Y764863D01*
X1007031Y764149D01*
X1007075Y763433D01*
X1007101Y762717D01*
X1007110Y762000D01*
X1007101Y761283D01*
X1007075Y760567D01*
X1007031Y759851D01*
X1006969Y759137D01*
X1006890Y758424D01*
X1006794Y757714D01*
X1006680Y757006D01*
X1006549Y756301D01*
X1006400Y755600D01*
X1006235Y754903D01*
X1006052Y754209D01*
X1005852Y753521D01*
X1005636Y752837D01*
X1005403Y752159D01*
X1005153Y751487D01*
X1004887Y750822D01*
X1004604Y750163D01*
X1004306Y749511D01*
X1003991Y748867D01*
X1003661Y748231D01*
X1003315Y747602D01*
X1002954Y746983D01*
X1002578Y746373D01*
X1002187Y745772D01*
X1001782Y745181D01*
X1001362Y744600D01*
X1000928Y744029D01*
X1000480Y743469D01*
X1000018Y742921D01*
X999543Y742384D01*
X999055Y741859D01*
X998555Y741345D01*
X998041Y740845D01*
X997516Y740357D01*
X996979Y739882D01*
X996431Y739420D01*
X995871Y738972D01*
X995300Y738538D01*
X994719Y738118D01*
X994128Y737713D01*
X993527Y737322D01*
X992917Y736946D01*
X992298Y736585D01*
X991669Y736239D01*
X991033Y735909D01*
X990389Y735594D01*
X989737Y735296D01*
X989078Y735013D01*
X988413Y734747D01*
X987741Y734497D01*
X987063Y734264D01*
X986379Y734048D01*
X985691Y733848D01*
X984997Y733665D01*
X984300Y733500D01*
X983599Y733351D01*
X982894Y733220D01*
X982186Y733106D01*
X981476Y733010D01*
X980763Y732931D01*
X980049Y732869D01*
X979333Y732825D01*
X978617Y732799D01*
X977900Y732790D01*
X977183Y732799D01*
X976467Y732825D01*
X975751Y732869D01*
X975037Y732931D01*
X974324Y733010D01*
X973614Y733106D01*
X972906Y733220D01*
X972201Y733351D01*
X971500Y733500D01*
X970803Y733665D01*
X970109Y733848D01*
X969421Y734048D01*
X968737Y734264D01*
X968059Y734497D01*
X967387Y734747D01*
X966722Y735013D01*
X966063Y735296D01*
X965411Y735594D01*
X964767Y735909D01*
X964131Y736239D01*
X963502Y736585D01*
X962883Y736946D01*
X962273Y737322D01*
X961672Y737713D01*
X961081Y738118D01*
X960500Y738538D01*
X959929Y738972D01*
X959369Y739420D01*
X958821Y739882D01*
X958284Y740357D01*
X957759Y740845D01*
X957245Y741345D01*
X956745Y741859D01*
X956257Y742384D01*
X955782Y742921D01*
X955320Y743469D01*
X954872Y744029D01*
X954438Y744600D01*
X954018Y745181D01*
X953613Y745772D01*
X953222Y746373D01*
X952846Y746983D01*
X952485Y747602D01*
X952139Y748231D01*
X951809Y748867D01*
X951494Y749511D01*
X951196Y750163D01*
X950913Y750822D01*
X950647Y751487D01*
X950397Y752159D01*
X950164Y752837D01*
X949948Y753521D01*
X949748Y754209D01*
X949565Y754903D01*
X949400Y755600D01*
X949251Y756301D01*
X949120Y757006D01*
X949006Y757714D01*
X948910Y758424D01*
X948831Y759137D01*
X948769Y759851D01*
X948725Y760567D01*
X948699Y761283D01*
X948690Y762000D01*
D20*
X962900Y762000D02*
X962905Y762368D01*
X962918Y762736D01*
X962941Y763103D01*
X962972Y763470D01*
X963013Y763836D01*
X963062Y764201D01*
X963121Y764564D01*
X963188Y764926D01*
X963264Y765287D01*
X963350Y765645D01*
X963443Y766001D01*
X963546Y766354D01*
X963657Y766705D01*
X963777Y767053D01*
X963905Y767398D01*
X964042Y767740D01*
X964187Y768079D01*
X964340Y768413D01*
X964502Y768744D01*
X964671Y769071D01*
X964849Y769393D01*
X965034Y769712D01*
X965227Y770025D01*
X965428Y770334D01*
X965636Y770637D01*
X965852Y770935D01*
X966075Y771228D01*
X966305Y771516D01*
X966542Y771798D01*
X966786Y772073D01*
X967036Y772343D01*
X967293Y772607D01*
X967557Y772864D01*
X967827Y773114D01*
X968102Y773358D01*
X968384Y773595D01*
X968672Y773825D01*
X968965Y774048D01*
X969263Y774264D01*
X969566Y774472D01*
X969875Y774673D01*
X970188Y774866D01*
X970507Y775051D01*
X970829Y775229D01*
X971156Y775398D01*
X971487Y775560D01*
X971821Y775713D01*
X972160Y775858D01*
X972502Y775995D01*
X972847Y776123D01*
X973195Y776243D01*
X973546Y776354D01*
X973899Y776457D01*
X974255Y776550D01*
X974613Y776636D01*
X974974Y776712D01*
X975336Y776779D01*
X975699Y776838D01*
X976064Y776887D01*
X976430Y776928D01*
X976797Y776959D01*
X977164Y776982D01*
X977532Y776995D01*
X977900Y777000D01*
X978268Y776995D01*
X978636Y776982D01*
X979003Y776959D01*
X979370Y776928D01*
X979736Y776887D01*
X980101Y776838D01*
X980464Y776779D01*
X980826Y776712D01*
X981187Y776636D01*
X981545Y776550D01*
X981901Y776457D01*
X982254Y776354D01*
X982605Y776243D01*
X982953Y776123D01*
X983298Y775995D01*
X983640Y775858D01*
X983979Y775713D01*
X984313Y775560D01*
X984644Y775398D01*
X984971Y775229D01*
X985293Y775051D01*
X985612Y774866D01*
X985925Y774673D01*
X986234Y774472D01*
X986537Y774264D01*
X986835Y774048D01*
X987128Y773825D01*
X987416Y773595D01*
X987698Y773358D01*
X987973Y773114D01*
X988243Y772864D01*
X988507Y772607D01*
X988764Y772343D01*
X989014Y772073D01*
X989258Y771798D01*
X989495Y771516D01*
X989725Y771228D01*
X989948Y770935D01*
X990164Y770637D01*
X990372Y770334D01*
X990573Y770025D01*
X990766Y769712D01*
X990951Y769393D01*
X991129Y769071D01*
X991298Y768744D01*
X991460Y768413D01*
X991613Y768079D01*
X991758Y767740D01*
X991895Y767398D01*
X992023Y767053D01*
X992143Y766705D01*
X992254Y766354D01*
X992357Y766001D01*
X992450Y765645D01*
X992536Y765287D01*
X992612Y764926D01*
X992679Y764564D01*
X992738Y764201D01*
X992787Y763836D01*
X992828Y763470D01*
X992859Y763103D01*
X992882Y762736D01*
X992895Y762368D01*
X992900Y762000D01*
X992895Y761632D01*
X992882Y761264D01*
X992859Y760897D01*
X992828Y760530D01*
X992787Y760164D01*
X992738Y759799D01*
X992679Y759436D01*
X992612Y759074D01*
X992536Y758713D01*
X992450Y758355D01*
X992357Y757999D01*
X992254Y757646D01*
X992143Y757295D01*
X992023Y756947D01*
X991895Y756602D01*
X991758Y756260D01*
X991613Y755921D01*
X991460Y755587D01*
X991298Y755256D01*
X991129Y754929D01*
X990951Y754607D01*
X990766Y754288D01*
X990573Y753975D01*
X990372Y753666D01*
X990164Y753363D01*
X989948Y753065D01*
X989725Y752772D01*
X989495Y752484D01*
X989258Y752202D01*
X989014Y751927D01*
X988764Y751657D01*
X988507Y751393D01*
X988243Y751136D01*
X987973Y750886D01*
X987698Y750642D01*
X987416Y750405D01*
X987128Y750175D01*
X986835Y749952D01*
X986537Y749736D01*
X986234Y749528D01*
X985925Y749327D01*
X985612Y749134D01*
X985293Y748949D01*
X984971Y748771D01*
X984644Y748602D01*
X984313Y748440D01*
X983979Y748287D01*
X983640Y748142D01*
X983298Y748005D01*
X982953Y747877D01*
X982605Y747757D01*
X982254Y747646D01*
X981901Y747543D01*
X981545Y747450D01*
X981187Y747364D01*
X980826Y747288D01*
X980464Y747221D01*
X980101Y747162D01*
X979736Y747113D01*
X979370Y747072D01*
X979003Y747041D01*
X978636Y747018D01*
X978268Y747005D01*
X977900Y747000D01*
X977532Y747005D01*
X977164Y747018D01*
X976797Y747041D01*
X976430Y747072D01*
X976064Y747113D01*
X975699Y747162D01*
X975336Y747221D01*
X974974Y747288D01*
X974613Y747364D01*
X974255Y747450D01*
X973899Y747543D01*
X973546Y747646D01*
X973195Y747757D01*
X972847Y747877D01*
X972502Y748005D01*
X972160Y748142D01*
X971821Y748287D01*
X971487Y748440D01*
X971156Y748602D01*
X970829Y748771D01*
X970507Y748949D01*
X970188Y749134D01*
X969875Y749327D01*
X969566Y749528D01*
X969263Y749736D01*
X968965Y749952D01*
X968672Y750175D01*
X968384Y750405D01*
X968102Y750642D01*
X967827Y750886D01*
X967557Y751136D01*
X967293Y751393D01*
X967036Y751657D01*
X966786Y751927D01*
X966542Y752202D01*
X966305Y752484D01*
X966075Y752772D01*
X965852Y753065D01*
X965636Y753363D01*
X965428Y753666D01*
X965227Y753975D01*
X965034Y754288D01*
X964849Y754607D01*
X964671Y754929D01*
X964502Y755256D01*
X964340Y755587D01*
X964187Y755921D01*
X964042Y756260D01*
X963905Y756602D01*
X963777Y756947D01*
X963657Y757295D01*
X963546Y757646D01*
X963443Y757999D01*
X963350Y758355D01*
X963264Y758713D01*
X963188Y759074D01*
X963121Y759436D01*
X963062Y759799D01*
X963013Y760164D01*
X962972Y760530D01*
X962941Y760897D01*
X962918Y761264D01*
X962905Y761632D01*
X962900Y762000D01*
D10*
X948690Y317500D02*
X948699Y318217D01*
X948725Y318933D01*
X948769Y319649D01*
X948831Y320363D01*
X948910Y321076D01*
X949006Y321786D01*
X949120Y322494D01*
X949251Y323199D01*
X949400Y323900D01*
X949565Y324597D01*
X949748Y325291D01*
X949948Y325979D01*
X950164Y326663D01*
X950397Y327341D01*
X950647Y328013D01*
X950913Y328678D01*
X951196Y329337D01*
X951494Y329989D01*
X951809Y330633D01*
X952139Y331269D01*
X952485Y331898D01*
X952846Y332517D01*
X953222Y333127D01*
X953613Y333728D01*
X954018Y334319D01*
X954438Y334900D01*
X954872Y335471D01*
X955320Y336031D01*
X955782Y336579D01*
X956257Y337116D01*
X956745Y337641D01*
X957245Y338155D01*
X957759Y338655D01*
X958284Y339143D01*
X958821Y339618D01*
X959369Y340080D01*
X959929Y340528D01*
X960500Y340962D01*
X961081Y341382D01*
X961672Y341787D01*
X962273Y342178D01*
X962883Y342554D01*
X963502Y342915D01*
X964131Y343261D01*
X964767Y343591D01*
X965411Y343906D01*
X966063Y344204D01*
X966722Y344487D01*
X967387Y344753D01*
X968059Y345003D01*
X968737Y345236D01*
X969421Y345452D01*
X970109Y345652D01*
X970803Y345835D01*
X971500Y346000D01*
X972201Y346149D01*
X972906Y346280D01*
X973614Y346394D01*
X974324Y346490D01*
X975037Y346569D01*
X975751Y346631D01*
X976467Y346675D01*
X977183Y346701D01*
X977900Y346710D01*
X978617Y346701D01*
X979333Y346675D01*
X980049Y346631D01*
X980763Y346569D01*
X981476Y346490D01*
X982186Y346394D01*
X982894Y346280D01*
X983599Y346149D01*
X984300Y346000D01*
X984997Y345835D01*
X985691Y345652D01*
X986379Y345452D01*
X987063Y345236D01*
X987741Y345003D01*
X988413Y344753D01*
X989078Y344487D01*
X989737Y344204D01*
X990389Y343906D01*
X991033Y343591D01*
X991669Y343261D01*
X992298Y342915D01*
X992917Y342554D01*
X993527Y342178D01*
X994128Y341787D01*
X994719Y341382D01*
X995300Y340962D01*
X995871Y340528D01*
X996431Y340080D01*
X996979Y339618D01*
X997516Y339143D01*
X998041Y338655D01*
X998555Y338155D01*
X999055Y337641D01*
X999543Y337116D01*
X1000018Y336579D01*
X1000480Y336031D01*
X1000928Y335471D01*
X1001362Y334900D01*
X1001782Y334319D01*
X1002187Y333728D01*
X1002578Y333127D01*
X1002954Y332517D01*
X1003315Y331898D01*
X1003661Y331269D01*
X1003991Y330633D01*
X1004306Y329989D01*
X1004604Y329337D01*
X1004887Y328678D01*
X1005153Y328013D01*
X1005403Y327341D01*
X1005636Y326663D01*
X1005852Y325979D01*
X1006052Y325291D01*
X1006235Y324597D01*
X1006400Y323900D01*
X1006549Y323199D01*
X1006680Y322494D01*
X1006794Y321786D01*
X1006890Y321076D01*
X1006969Y320363D01*
X1007031Y319649D01*
X1007075Y318933D01*
X1007101Y318217D01*
X1007110Y317500D01*
X1007101Y316783D01*
X1007075Y316067D01*
X1007031Y315351D01*
X1006969Y314637D01*
X1006890Y313924D01*
X1006794Y313214D01*
X1006680Y312506D01*
X1006549Y311801D01*
X1006400Y311100D01*
X1006235Y310403D01*
X1006052Y309709D01*
X1005852Y309021D01*
X1005636Y308337D01*
X1005403Y307659D01*
X1005153Y306987D01*
X1004887Y306322D01*
X1004604Y305663D01*
X1004306Y305011D01*
X1003991Y304367D01*
X1003661Y303731D01*
X1003315Y303102D01*
X1002954Y302483D01*
X1002578Y301873D01*
X1002187Y301272D01*
X1001782Y300681D01*
X1001362Y300100D01*
X1000928Y299529D01*
X1000480Y298969D01*
X1000018Y298421D01*
X999543Y297884D01*
X999055Y297359D01*
X998555Y296845D01*
X998041Y296345D01*
X997516Y295857D01*
X996979Y295382D01*
X996431Y294920D01*
X995871Y294472D01*
X995300Y294038D01*
X994719Y293618D01*
X994128Y293213D01*
X993527Y292822D01*
X992917Y292446D01*
X992298Y292085D01*
X991669Y291739D01*
X991033Y291409D01*
X990389Y291094D01*
X989737Y290796D01*
X989078Y290513D01*
X988413Y290247D01*
X987741Y289997D01*
X987063Y289764D01*
X986379Y289548D01*
X985691Y289348D01*
X984997Y289165D01*
X984300Y289000D01*
X983599Y288851D01*
X982894Y288720D01*
X982186Y288606D01*
X981476Y288510D01*
X980763Y288431D01*
X980049Y288369D01*
X979333Y288325D01*
X978617Y288299D01*
X977900Y288290D01*
X977183Y288299D01*
X976467Y288325D01*
X975751Y288369D01*
X975037Y288431D01*
X974324Y288510D01*
X973614Y288606D01*
X972906Y288720D01*
X972201Y288851D01*
X971500Y289000D01*
X970803Y289165D01*
X970109Y289348D01*
X969421Y289548D01*
X968737Y289764D01*
X968059Y289997D01*
X967387Y290247D01*
X966722Y290513D01*
X966063Y290796D01*
X965411Y291094D01*
X964767Y291409D01*
X964131Y291739D01*
X963502Y292085D01*
X962883Y292446D01*
X962273Y292822D01*
X961672Y293213D01*
X961081Y293618D01*
X960500Y294038D01*
X959929Y294472D01*
X959369Y294920D01*
X958821Y295382D01*
X958284Y295857D01*
X957759Y296345D01*
X957245Y296845D01*
X956745Y297359D01*
X956257Y297884D01*
X955782Y298421D01*
X955320Y298969D01*
X954872Y299529D01*
X954438Y300100D01*
X954018Y300681D01*
X953613Y301272D01*
X953222Y301873D01*
X952846Y302483D01*
X952485Y303102D01*
X952139Y303731D01*
X951809Y304367D01*
X951494Y305011D01*
X951196Y305663D01*
X950913Y306322D01*
X950647Y306987D01*
X950397Y307659D01*
X950164Y308337D01*
X949948Y309021D01*
X949748Y309709D01*
X949565Y310403D01*
X949400Y311100D01*
X949251Y311801D01*
X949120Y312506D01*
X949006Y313214D01*
X948910Y313924D01*
X948831Y314637D01*
X948769Y315351D01*
X948725Y316067D01*
X948699Y316783D01*
X948690Y317500D01*
D20*
X962900Y317500D02*
X962905Y317868D01*
X962918Y318236D01*
X962941Y318603D01*
X962972Y318970D01*
X963013Y319336D01*
X963062Y319701D01*
X963121Y320064D01*
X963188Y320426D01*
X963264Y320787D01*
X963350Y321145D01*
X963443Y321501D01*
X963546Y321854D01*
X963657Y322205D01*
X963777Y322553D01*
X963905Y322898D01*
X964042Y323240D01*
X964187Y323579D01*
X964340Y323913D01*
X964502Y324244D01*
X964671Y324571D01*
X964849Y324893D01*
X965034Y325212D01*
X965227Y325525D01*
X965428Y325834D01*
X965636Y326137D01*
X965852Y326435D01*
X966075Y326728D01*
X966305Y327016D01*
X966542Y327298D01*
X966786Y327573D01*
X967036Y327843D01*
X967293Y328107D01*
X967557Y328364D01*
X967827Y328614D01*
X968102Y328858D01*
X968384Y329095D01*
X968672Y329325D01*
X968965Y329548D01*
X969263Y329764D01*
X969566Y329972D01*
X969875Y330173D01*
X970188Y330366D01*
X970507Y330551D01*
X970829Y330729D01*
X971156Y330898D01*
X971487Y331060D01*
X971821Y331213D01*
X972160Y331358D01*
X972502Y331495D01*
X972847Y331623D01*
X973195Y331743D01*
X973546Y331854D01*
X973899Y331957D01*
X974255Y332050D01*
X974613Y332136D01*
X974974Y332212D01*
X975336Y332279D01*
X975699Y332338D01*
X976064Y332387D01*
X976430Y332428D01*
X976797Y332459D01*
X977164Y332482D01*
X977532Y332495D01*
X977900Y332500D01*
X978268Y332495D01*
X978636Y332482D01*
X979003Y332459D01*
X979370Y332428D01*
X979736Y332387D01*
X980101Y332338D01*
X980464Y332279D01*
X980826Y332212D01*
X981187Y332136D01*
X981545Y332050D01*
X981901Y331957D01*
X982254Y331854D01*
X982605Y331743D01*
X982953Y331623D01*
X983298Y331495D01*
X983640Y331358D01*
X983979Y331213D01*
X984313Y331060D01*
X984644Y330898D01*
X984971Y330729D01*
X985293Y330551D01*
X985612Y330366D01*
X985925Y330173D01*
X986234Y329972D01*
X986537Y329764D01*
X986835Y329548D01*
X987128Y329325D01*
X987416Y329095D01*
X987698Y328858D01*
X987973Y328614D01*
X988243Y328364D01*
X988507Y328107D01*
X988764Y327843D01*
X989014Y327573D01*
X989258Y327298D01*
X989495Y327016D01*
X989725Y326728D01*
X989948Y326435D01*
X990164Y326137D01*
X990372Y325834D01*
X990573Y325525D01*
X990766Y325212D01*
X990951Y324893D01*
X991129Y324571D01*
X991298Y324244D01*
X991460Y323913D01*
X991613Y323579D01*
X991758Y323240D01*
X991895Y322898D01*
X992023Y322553D01*
X992143Y322205D01*
X992254Y321854D01*
X992357Y321501D01*
X992450Y321145D01*
X992536Y320787D01*
X992612Y320426D01*
X992679Y320064D01*
X992738Y319701D01*
X992787Y319336D01*
X992828Y318970D01*
X992859Y318603D01*
X992882Y318236D01*
X992895Y317868D01*
X992900Y317500D01*
X992895Y317132D01*
X992882Y316764D01*
X992859Y316397D01*
X992828Y316030D01*
X992787Y315664D01*
X992738Y315299D01*
X992679Y314936D01*
X992612Y314574D01*
X992536Y314213D01*
X992450Y313855D01*
X992357Y313499D01*
X992254Y313146D01*
X992143Y312795D01*
X992023Y312447D01*
X991895Y312102D01*
X991758Y311760D01*
X991613Y311421D01*
X991460Y311087D01*
X991298Y310756D01*
X991129Y310429D01*
X990951Y310107D01*
X990766Y309788D01*
X990573Y309475D01*
X990372Y309166D01*
X990164Y308863D01*
X989948Y308565D01*
X989725Y308272D01*
X989495Y307984D01*
X989258Y307702D01*
X989014Y307427D01*
X988764Y307157D01*
X988507Y306893D01*
X988243Y306636D01*
X987973Y306386D01*
X987698Y306142D01*
X987416Y305905D01*
X987128Y305675D01*
X986835Y305452D01*
X986537Y305236D01*
X986234Y305028D01*
X985925Y304827D01*
X985612Y304634D01*
X985293Y304449D01*
X984971Y304271D01*
X984644Y304102D01*
X984313Y303940D01*
X983979Y303787D01*
X983640Y303642D01*
X983298Y303505D01*
X982953Y303377D01*
X982605Y303257D01*
X982254Y303146D01*
X981901Y303043D01*
X981545Y302950D01*
X981187Y302864D01*
X980826Y302788D01*
X980464Y302721D01*
X980101Y302662D01*
X979736Y302613D01*
X979370Y302572D01*
X979003Y302541D01*
X978636Y302518D01*
X978268Y302505D01*
X977900Y302500D01*
X977532Y302505D01*
X977164Y302518D01*
X976797Y302541D01*
X976430Y302572D01*
X976064Y302613D01*
X975699Y302662D01*
X975336Y302721D01*
X974974Y302788D01*
X974613Y302864D01*
X974255Y302950D01*
X973899Y303043D01*
X973546Y303146D01*
X973195Y303257D01*
X972847Y303377D01*
X972502Y303505D01*
X972160Y303642D01*
X971821Y303787D01*
X971487Y303940D01*
X971156Y304102D01*
X970829Y304271D01*
X970507Y304449D01*
X970188Y304634D01*
X969875Y304827D01*
X969566Y305028D01*
X969263Y305236D01*
X968965Y305452D01*
X968672Y305675D01*
X968384Y305905D01*
X968102Y306142D01*
X967827Y306386D01*
X967557Y306636D01*
X967293Y306893D01*
X967036Y307157D01*
X966786Y307427D01*
X966542Y307702D01*
X966305Y307984D01*
X966075Y308272D01*
X965852Y308565D01*
X965636Y308863D01*
X965428Y309166D01*
X965227Y309475D01*
X965034Y309788D01*
X964849Y310107D01*
X964671Y310429D01*
X964502Y310756D01*
X964340Y311087D01*
X964187Y311421D01*
X964042Y311760D01*
X963905Y312102D01*
X963777Y312447D01*
X963657Y312795D01*
X963546Y313146D01*
X963443Y313499D01*
X963350Y313855D01*
X963264Y314213D01*
X963188Y314574D01*
X963121Y314936D01*
X963062Y315299D01*
X963013Y315664D01*
X962972Y316030D01*
X962941Y316397D01*
X962918Y316764D01*
X962905Y317132D01*
X962900Y317500D01*
D10*
X599440Y594360D02*
X599340Y594358D01*
X599241Y594352D01*
X599141Y594342D01*
X599043Y594329D01*
X598944Y594311D01*
X598847Y594290D01*
X598751Y594265D01*
X598655Y594236D01*
X598561Y594203D01*
X598468Y594167D01*
X598377Y594127D01*
X598287Y594083D01*
X598199Y594036D01*
X598113Y593986D01*
X598029Y593932D01*
X597947Y593875D01*
X597868Y593815D01*
X597790Y593751D01*
X597716Y593685D01*
X597644Y593616D01*
X597575Y593544D01*
X597509Y593470D01*
X597445Y593392D01*
X597385Y593313D01*
X597328Y593231D01*
X597274Y593147D01*
X597224Y593061D01*
X597177Y592973D01*
X597133Y592883D01*
X597093Y592792D01*
X597057Y592699D01*
X597024Y592605D01*
X596995Y592509D01*
X596970Y592413D01*
X596949Y592316D01*
X596931Y592217D01*
X596918Y592119D01*
X596908Y592019D01*
X596902Y591920D01*
X596900Y591820D01*
X596900Y576580D02*
X596902Y576480D01*
X596908Y576381D01*
X596918Y576281D01*
X596931Y576183D01*
X596949Y576084D01*
X596970Y575987D01*
X596995Y575891D01*
X597024Y575795D01*
X597057Y575701D01*
X597093Y575608D01*
X597133Y575517D01*
X597177Y575427D01*
X597224Y575339D01*
X597274Y575253D01*
X597328Y575169D01*
X597385Y575087D01*
X597445Y575008D01*
X597509Y574930D01*
X597575Y574856D01*
X597644Y574784D01*
X597716Y574715D01*
X597790Y574649D01*
X597868Y574585D01*
X597947Y574525D01*
X598029Y574468D01*
X598113Y574414D01*
X598199Y574364D01*
X598287Y574317D01*
X598377Y574273D01*
X598468Y574233D01*
X598561Y574197D01*
X598655Y574164D01*
X598751Y574135D01*
X598847Y574110D01*
X598944Y574089D01*
X599043Y574071D01*
X599141Y574058D01*
X599241Y574048D01*
X599340Y574042D01*
X599440Y574040D01*
X645160Y574040D02*
X645260Y574042D01*
X645359Y574048D01*
X645459Y574058D01*
X645557Y574071D01*
X645656Y574089D01*
X645753Y574110D01*
X645849Y574135D01*
X645945Y574164D01*
X646039Y574197D01*
X646132Y574233D01*
X646223Y574273D01*
X646313Y574317D01*
X646401Y574364D01*
X646487Y574414D01*
X646571Y574468D01*
X646653Y574525D01*
X646732Y574585D01*
X646810Y574649D01*
X646884Y574715D01*
X646956Y574784D01*
X647025Y574856D01*
X647091Y574930D01*
X647155Y575008D01*
X647215Y575087D01*
X647272Y575169D01*
X647326Y575253D01*
X647376Y575339D01*
X647423Y575427D01*
X647467Y575517D01*
X647507Y575608D01*
X647543Y575701D01*
X647576Y575795D01*
X647605Y575891D01*
X647630Y575987D01*
X647651Y576084D01*
X647669Y576183D01*
X647682Y576281D01*
X647692Y576381D01*
X647698Y576480D01*
X647700Y576580D01*
X647700Y591820D02*
X647698Y591920D01*
X647692Y592019D01*
X647682Y592119D01*
X647669Y592217D01*
X647651Y592316D01*
X647630Y592413D01*
X647605Y592509D01*
X647576Y592605D01*
X647543Y592699D01*
X647507Y592792D01*
X647467Y592883D01*
X647423Y592973D01*
X647376Y593061D01*
X647326Y593147D01*
X647272Y593231D01*
X647215Y593313D01*
X647155Y593392D01*
X647091Y593470D01*
X647025Y593544D01*
X646956Y593616D01*
X646884Y593685D01*
X646810Y593751D01*
X646732Y593815D01*
X646653Y593875D01*
X646571Y593932D01*
X646487Y593986D01*
X646401Y594036D01*
X646313Y594083D01*
X646223Y594127D01*
X646132Y594167D01*
X646039Y594203D01*
X645945Y594236D01*
X645849Y594265D01*
X645753Y594290D01*
X645656Y594311D01*
X645557Y594329D01*
X645459Y594342D01*
X645359Y594352D01*
X645260Y594358D01*
X645160Y594360D01*
X596900Y591820D02*
X596900Y576580D01*
X599440Y594360D02*
X603250Y594360D01*
X604520Y593090D01*
X603250Y574040D02*
X599440Y574040D01*
X603250Y574040D02*
X604520Y575310D01*
X640080Y593090D02*
X641350Y594360D01*
X640080Y593090D02*
X604520Y593090D01*
X640080Y575310D02*
X641350Y574040D01*
X640080Y575310D02*
X604520Y575310D01*
X641350Y594360D02*
X645160Y594360D01*
X645160Y574040D02*
X641350Y574040D01*
X647700Y576580D02*
X647700Y591820D01*
D21*
X649605Y584200D03*
X594995Y584200D03*
D14*
X597408Y597662D02*
X597408Y606552D01*
X599877Y606552D01*
X599975Y606550D01*
X600073Y606544D01*
X600171Y606534D01*
X600268Y606521D01*
X600365Y606503D01*
X600461Y606482D01*
X600555Y606457D01*
X600649Y606428D01*
X600742Y606396D01*
X600833Y606359D01*
X600923Y606320D01*
X601011Y606276D01*
X601097Y606229D01*
X601182Y606179D01*
X601264Y606126D01*
X601344Y606069D01*
X601422Y606009D01*
X601497Y605946D01*
X601570Y605880D01*
X601640Y605811D01*
X601707Y605740D01*
X601772Y605666D01*
X601833Y605589D01*
X601892Y605510D01*
X601947Y605429D01*
X601999Y605346D01*
X602047Y605260D01*
X602092Y605173D01*
X602134Y605084D01*
X602172Y604994D01*
X602206Y604902D01*
X602237Y604809D01*
X602264Y604714D01*
X602287Y604619D01*
X602307Y604522D01*
X602322Y604426D01*
X602334Y604328D01*
X602342Y604230D01*
X602346Y604132D01*
X602346Y604034D01*
X602342Y603936D01*
X602334Y603838D01*
X602322Y603740D01*
X602307Y603644D01*
X602287Y603547D01*
X602264Y603452D01*
X602237Y603357D01*
X602206Y603264D01*
X602172Y603172D01*
X602134Y603082D01*
X602092Y602993D01*
X602047Y602906D01*
X601999Y602820D01*
X601947Y602737D01*
X601892Y602656D01*
X601833Y602577D01*
X601772Y602500D01*
X601707Y602426D01*
X601640Y602355D01*
X601570Y602286D01*
X601497Y602220D01*
X601422Y602157D01*
X601344Y602097D01*
X601264Y602040D01*
X601182Y601987D01*
X601097Y601937D01*
X601011Y601890D01*
X600923Y601846D01*
X600833Y601807D01*
X600742Y601770D01*
X600649Y601738D01*
X600555Y601709D01*
X600461Y601684D01*
X600365Y601663D01*
X600268Y601645D01*
X600171Y601632D01*
X600073Y601622D01*
X599975Y601616D01*
X599877Y601614D01*
X599877Y601613D02*
X597408Y601613D01*
X600371Y601613D02*
X602347Y597662D01*
X606258Y604576D02*
X608727Y606552D01*
X608727Y597662D01*
X606258Y597662D02*
X611197Y597662D01*
D20*
X233046Y459107D02*
X203200Y459107D01*
X203200Y462917D02*
X229236Y462917D01*
X233046Y459107D01*
X233046Y522607D02*
X233046Y582296D01*
X233046Y518797D02*
X233046Y459107D01*
X229236Y526417D02*
X229236Y578486D01*
X229236Y514987D02*
X229236Y462917D01*
X229236Y514987D02*
X233046Y518797D01*
X229236Y514987D02*
X203200Y514987D01*
X203200Y518797D02*
X233046Y518797D01*
X233046Y522607D02*
X203200Y522607D01*
X203200Y526417D02*
X229236Y526417D01*
X203200Y518797D02*
X203200Y518793D01*
X229236Y526417D02*
X233046Y522607D01*
X229236Y578486D02*
X233046Y582296D01*
X229236Y578486D02*
X203200Y578486D01*
X203200Y582296D02*
X233046Y582296D01*
X202564Y518793D02*
X201837Y518767D01*
X201111Y518724D01*
X200386Y518663D01*
X199662Y518584D01*
X198941Y518488D01*
X198222Y518374D01*
X197507Y518243D01*
X196795Y518094D01*
X196086Y517928D01*
X195382Y517745D01*
X194683Y517544D01*
X193988Y517327D01*
X193300Y517093D01*
X192617Y516842D01*
X191940Y516574D01*
X191270Y516290D01*
X190607Y515990D01*
X189952Y515674D01*
X189305Y515342D01*
X188666Y514994D01*
X188035Y514631D01*
X187414Y514252D01*
X186802Y513859D01*
X186200Y513451D01*
X185608Y513028D01*
X185026Y512590D01*
X184455Y512139D01*
X183896Y511674D01*
X183348Y511196D01*
X182811Y510704D01*
X182287Y510199D01*
X181776Y509682D01*
X181277Y509152D01*
X180791Y508611D01*
X180318Y508058D01*
X179859Y507493D01*
X179414Y506917D01*
X178984Y506331D01*
X178567Y505734D01*
X178165Y505128D01*
X177779Y504512D01*
X177407Y503886D01*
X177050Y503252D01*
X176710Y502609D01*
X176385Y501958D01*
X176076Y501299D01*
X175783Y500633D01*
X175506Y499960D01*
X175246Y499281D01*
X175002Y498595D01*
X174776Y497904D01*
X174566Y497207D01*
X174373Y496506D01*
X174198Y495800D01*
X174039Y495089D01*
X173898Y494376D01*
X173775Y493659D01*
X173669Y492939D01*
X173580Y492217D01*
X173510Y491492D01*
X173456Y490767D01*
X173421Y490040D01*
X173403Y489313D01*
X173403Y488585D01*
X173421Y487858D01*
X173456Y487131D01*
X173510Y486406D01*
X173580Y485681D01*
X173669Y484959D01*
X173775Y484239D01*
X173898Y483522D01*
X174039Y482809D01*
X174198Y482098D01*
X174373Y481392D01*
X174566Y480691D01*
X174776Y479994D01*
X175002Y479303D01*
X175246Y478617D01*
X175506Y477938D01*
X175783Y477265D01*
X176076Y476599D01*
X176385Y475940D01*
X176710Y475289D01*
X177050Y474646D01*
X177407Y474012D01*
X177779Y473386D01*
X178165Y472770D01*
X178567Y472164D01*
X178984Y471567D01*
X179414Y470981D01*
X179859Y470405D01*
X180318Y469840D01*
X180791Y469287D01*
X181277Y468746D01*
X181776Y468216D01*
X182287Y467699D01*
X182811Y467194D01*
X183348Y466702D01*
X183896Y466224D01*
X184455Y465759D01*
X185026Y465308D01*
X185608Y464870D01*
X186200Y464447D01*
X186802Y464039D01*
X187414Y463646D01*
X188035Y463267D01*
X188666Y462904D01*
X189305Y462556D01*
X189952Y462224D01*
X190607Y461908D01*
X191270Y461608D01*
X191940Y461324D01*
X192617Y461056D01*
X193300Y460805D01*
X193988Y460571D01*
X194683Y460354D01*
X195382Y460153D01*
X196086Y459970D01*
X196795Y459804D01*
X197507Y459655D01*
X198222Y459524D01*
X198941Y459410D01*
X199662Y459314D01*
X200386Y459235D01*
X201111Y459174D01*
X201837Y459131D01*
X202564Y459105D01*
X202564Y522603D02*
X201837Y522629D01*
X201111Y522672D01*
X200385Y522733D01*
X199662Y522812D01*
X198941Y522908D01*
X198222Y523022D01*
X197507Y523153D01*
X196794Y523302D01*
X196086Y523468D01*
X195382Y523651D01*
X194682Y523851D01*
X193988Y524069D01*
X193299Y524303D01*
X192616Y524554D01*
X191939Y524821D01*
X191269Y525105D01*
X190607Y525406D01*
X189951Y525722D01*
X189304Y526054D01*
X188665Y526402D01*
X188034Y526765D01*
X187413Y527143D01*
X186801Y527537D01*
X186199Y527945D01*
X185606Y528368D01*
X185025Y528805D01*
X184454Y529257D01*
X183894Y529722D01*
X183346Y530200D01*
X182810Y530692D01*
X182286Y531197D01*
X181774Y531714D01*
X181275Y532244D01*
X180789Y532785D01*
X180317Y533338D01*
X179858Y533903D01*
X179413Y534479D01*
X178982Y535065D01*
X178566Y535662D01*
X178164Y536268D01*
X177777Y536885D01*
X177405Y537510D01*
X177049Y538144D01*
X176708Y538787D01*
X176383Y539438D01*
X176074Y540097D01*
X175781Y540763D01*
X175504Y541436D01*
X175244Y542116D01*
X175001Y542801D01*
X174774Y543493D01*
X174564Y544189D01*
X174371Y544891D01*
X174196Y545597D01*
X174037Y546307D01*
X173896Y547021D01*
X173773Y547738D01*
X173667Y548458D01*
X173578Y549180D01*
X173508Y549904D01*
X173454Y550630D01*
X173419Y551357D01*
X173401Y552084D01*
X173401Y552812D01*
X173419Y553539D01*
X173454Y554266D01*
X173508Y554992D01*
X173578Y555716D01*
X173667Y556438D01*
X173773Y557158D01*
X173896Y557875D01*
X174037Y558589D01*
X174196Y559299D01*
X174371Y560005D01*
X174564Y560707D01*
X174774Y561403D01*
X175001Y562095D01*
X175244Y562780D01*
X175504Y563460D01*
X175781Y564133D01*
X176074Y564799D01*
X176383Y565458D01*
X176708Y566109D01*
X177049Y566752D01*
X177405Y567386D01*
X177777Y568011D01*
X178164Y568628D01*
X178566Y569234D01*
X178982Y569831D01*
X179413Y570417D01*
X179858Y570993D01*
X180317Y571558D01*
X180789Y572111D01*
X181275Y572652D01*
X181774Y573182D01*
X182286Y573699D01*
X182810Y574204D01*
X183346Y574696D01*
X183894Y575174D01*
X184454Y575639D01*
X185025Y576091D01*
X185606Y576528D01*
X186199Y576951D01*
X186801Y577359D01*
X187413Y577753D01*
X188034Y578131D01*
X188665Y578494D01*
X189304Y578842D01*
X189951Y579174D01*
X190607Y579490D01*
X191269Y579791D01*
X191939Y580075D01*
X192616Y580342D01*
X193299Y580593D01*
X193988Y580827D01*
X194682Y581045D01*
X195382Y581245D01*
X196086Y581428D01*
X196794Y581594D01*
X197507Y581743D01*
X198222Y581874D01*
X198941Y581988D01*
X199662Y582084D01*
X200385Y582163D01*
X201111Y582224D01*
X201837Y582267D01*
X202564Y582293D01*
X202564Y514984D02*
X201926Y514960D01*
X201288Y514920D01*
X200652Y514865D01*
X200017Y514794D01*
X199384Y514707D01*
X198753Y514605D01*
X198125Y514488D01*
X197500Y514355D01*
X196879Y514207D01*
X196261Y514044D01*
X195648Y513866D01*
X195039Y513672D01*
X194435Y513464D01*
X193836Y513241D01*
X193243Y513004D01*
X192656Y512751D01*
X192075Y512485D01*
X191501Y512205D01*
X190935Y511910D01*
X190375Y511602D01*
X189823Y511280D01*
X189280Y510944D01*
X188744Y510596D01*
X188218Y510234D01*
X187700Y509859D01*
X187192Y509472D01*
X186693Y509073D01*
X186205Y508661D01*
X185726Y508238D01*
X185258Y507803D01*
X184801Y507357D01*
X184355Y506899D01*
X183921Y506431D01*
X183498Y505952D01*
X183087Y505463D01*
X182688Y504964D01*
X182301Y504456D01*
X181927Y503938D01*
X181566Y503411D01*
X181217Y502876D01*
X180882Y502332D01*
X180561Y501779D01*
X180253Y501220D01*
X179959Y500653D01*
X179679Y500078D01*
X179413Y499498D01*
X179161Y498910D01*
X178924Y498317D01*
X178702Y497718D01*
X178494Y497114D01*
X178301Y496505D01*
X178123Y495891D01*
X177961Y495274D01*
X177813Y494652D01*
X177681Y494027D01*
X177564Y493399D01*
X177463Y492768D01*
X177377Y492135D01*
X177306Y491500D01*
X177251Y490864D01*
X177212Y490226D01*
X177189Y489588D01*
X177181Y488949D01*
X177189Y488310D01*
X177212Y487672D01*
X177251Y487034D01*
X177306Y486398D01*
X177377Y485763D01*
X177463Y485130D01*
X177564Y484499D01*
X177681Y483871D01*
X177813Y483246D01*
X177961Y482624D01*
X178123Y482007D01*
X178301Y481393D01*
X178494Y480784D01*
X178702Y480180D01*
X178924Y479581D01*
X179161Y478988D01*
X179413Y478400D01*
X179679Y477820D01*
X179959Y477245D01*
X180253Y476678D01*
X180561Y476119D01*
X180882Y475566D01*
X181217Y475022D01*
X181566Y474487D01*
X181927Y473960D01*
X182301Y473442D01*
X182688Y472934D01*
X183087Y472435D01*
X183498Y471946D01*
X183921Y471467D01*
X184355Y470999D01*
X184801Y470541D01*
X185258Y470095D01*
X185726Y469660D01*
X186205Y469237D01*
X186693Y468825D01*
X187192Y468426D01*
X187700Y468039D01*
X188218Y467664D01*
X188744Y467302D01*
X189280Y466954D01*
X189823Y466618D01*
X190375Y466296D01*
X190935Y465988D01*
X191501Y465693D01*
X192075Y465413D01*
X192656Y465147D01*
X193243Y464894D01*
X193836Y464657D01*
X194435Y464434D01*
X195039Y464226D01*
X195648Y464032D01*
X196261Y463854D01*
X196879Y463691D01*
X197500Y463543D01*
X198125Y463410D01*
X198753Y463293D01*
X199384Y463191D01*
X200017Y463104D01*
X200652Y463033D01*
X201288Y462978D01*
X201926Y462938D01*
X202564Y462914D01*
X202564Y526413D02*
X201926Y526437D01*
X201289Y526477D01*
X200652Y526533D01*
X200018Y526604D01*
X199385Y526691D01*
X198755Y526794D01*
X198127Y526911D01*
X197503Y527044D01*
X196882Y527193D01*
X196264Y527356D01*
X195651Y527535D01*
X195043Y527729D01*
X194439Y527937D01*
X193841Y528160D01*
X193248Y528398D01*
X192662Y528650D01*
X192081Y528917D01*
X191508Y529198D01*
X190941Y529492D01*
X190382Y529801D01*
X189831Y530123D01*
X189288Y530459D01*
X188753Y530807D01*
X188226Y531169D01*
X187709Y531544D01*
X187201Y531931D01*
X186703Y532330D01*
X186215Y532742D01*
X185737Y533165D01*
X185269Y533600D01*
X184813Y534046D01*
X184367Y534504D01*
X183933Y534972D01*
X183510Y535451D01*
X183099Y535940D01*
X182701Y536438D01*
X182314Y536947D01*
X181941Y537465D01*
X181580Y537991D01*
X181232Y538527D01*
X180897Y539071D01*
X180576Y539623D01*
X180268Y540182D01*
X179974Y540749D01*
X179695Y541323D01*
X179429Y541904D01*
X179178Y542491D01*
X178941Y543084D01*
X178718Y543682D01*
X178511Y544286D01*
X178318Y544895D01*
X178141Y545508D01*
X177978Y546126D01*
X177831Y546747D01*
X177698Y547372D01*
X177582Y548000D01*
X177480Y548630D01*
X177394Y549263D01*
X177324Y549898D01*
X177269Y550534D01*
X177230Y551171D01*
X177207Y551809D01*
X177199Y552448D01*
X177207Y553087D01*
X177230Y553725D01*
X177269Y554362D01*
X177324Y554998D01*
X177394Y555633D01*
X177480Y556266D01*
X177582Y556896D01*
X177698Y557524D01*
X177831Y558149D01*
X177978Y558770D01*
X178141Y559388D01*
X178318Y560001D01*
X178511Y560610D01*
X178718Y561214D01*
X178941Y561812D01*
X179178Y562405D01*
X179429Y562992D01*
X179695Y563573D01*
X179974Y564147D01*
X180268Y564714D01*
X180576Y565273D01*
X180897Y565825D01*
X181232Y566369D01*
X181580Y566905D01*
X181941Y567431D01*
X182314Y567949D01*
X182701Y568458D01*
X183099Y568956D01*
X183510Y569445D01*
X183933Y569924D01*
X184367Y570392D01*
X184813Y570850D01*
X185269Y571296D01*
X185737Y571731D01*
X186215Y572154D01*
X186703Y572566D01*
X187201Y572965D01*
X187709Y573352D01*
X188226Y573727D01*
X188753Y574089D01*
X189288Y574437D01*
X189831Y574773D01*
X190382Y575095D01*
X190941Y575404D01*
X191508Y575698D01*
X192081Y575979D01*
X192662Y576246D01*
X193248Y576498D01*
X193841Y576736D01*
X194439Y576959D01*
X195043Y577167D01*
X195651Y577361D01*
X196264Y577540D01*
X196882Y577703D01*
X197503Y577852D01*
X198127Y577985D01*
X198755Y578102D01*
X199385Y578205D01*
X200018Y578292D01*
X200652Y578363D01*
X201289Y578419D01*
X201926Y578459D01*
X202564Y578483D01*
X202564Y526413D02*
X203200Y526413D01*
X203200Y522603D02*
X202564Y522603D01*
X202564Y518793D02*
X203200Y518793D01*
X203200Y514983D02*
X202564Y514983D01*
X166200Y451950D02*
X166200Y589450D01*
X191450Y589450D01*
X191700Y589450D01*
X191450Y589450D02*
X191450Y592950D01*
X214950Y592950D01*
X214950Y589450D01*
X240200Y589450D01*
X240200Y451950D01*
X214950Y451950D01*
X214950Y448450D01*
X191450Y448450D01*
X191450Y451950D01*
X166200Y451950D01*
X191450Y448200D02*
X191450Y426450D01*
X214950Y426450D01*
X214950Y448200D01*
X191450Y593200D02*
X191450Y614950D01*
X214950Y614950D01*
X214950Y593200D01*
X240700Y589450D02*
X252950Y589450D01*
X252950Y578950D01*
X241450Y578950D01*
X240950Y525950D02*
X252950Y525950D01*
X252950Y515450D01*
X240950Y515450D01*
X240450Y451950D02*
X252950Y451950D01*
X252950Y462450D01*
X241200Y462450D01*
D22*
X177419Y513009D02*
X174808Y510921D01*
X174808Y520319D01*
X172198Y520319D02*
X177419Y520319D01*
X174547Y575691D02*
X174452Y575693D01*
X174358Y575699D01*
X174264Y575708D01*
X174170Y575721D01*
X174077Y575738D01*
X173985Y575759D01*
X173893Y575784D01*
X173803Y575812D01*
X173714Y575844D01*
X173626Y575879D01*
X173540Y575918D01*
X173455Y575960D01*
X173372Y576006D01*
X173291Y576055D01*
X173212Y576107D01*
X173135Y576162D01*
X173061Y576221D01*
X172989Y576282D01*
X172919Y576346D01*
X172852Y576413D01*
X172788Y576483D01*
X172727Y576555D01*
X172668Y576629D01*
X172613Y576706D01*
X172561Y576785D01*
X172512Y576866D01*
X172466Y576949D01*
X172424Y577034D01*
X172385Y577120D01*
X172350Y577208D01*
X172318Y577297D01*
X172290Y577387D01*
X172265Y577479D01*
X172244Y577571D01*
X172227Y577664D01*
X172214Y577758D01*
X172205Y577852D01*
X172199Y577946D01*
X172197Y578041D01*
X174547Y575691D02*
X174655Y575693D01*
X174764Y575699D01*
X174872Y575709D01*
X174979Y575722D01*
X175086Y575740D01*
X175193Y575761D01*
X175298Y575786D01*
X175403Y575815D01*
X175506Y575847D01*
X175608Y575884D01*
X175709Y575924D01*
X175808Y575967D01*
X175906Y576014D01*
X176002Y576065D01*
X176096Y576119D01*
X176188Y576176D01*
X176278Y576237D01*
X176366Y576301D01*
X176451Y576367D01*
X176534Y576437D01*
X176614Y576510D01*
X176692Y576586D01*
X176767Y576664D01*
X176839Y576745D01*
X176908Y576829D01*
X176974Y576915D01*
X177037Y577003D01*
X177096Y577094D01*
X177153Y577187D01*
X177206Y577281D01*
X177255Y577378D01*
X177302Y577476D01*
X177344Y577575D01*
X177383Y577677D01*
X177418Y577779D01*
X172980Y579869D02*
X172911Y579800D01*
X172845Y579729D01*
X172781Y579656D01*
X172720Y579580D01*
X172662Y579501D01*
X172608Y579421D01*
X172556Y579338D01*
X172508Y579254D01*
X172462Y579168D01*
X172421Y579080D01*
X172382Y578990D01*
X172347Y578899D01*
X172316Y578807D01*
X172288Y578714D01*
X172264Y578620D01*
X172244Y578525D01*
X172227Y578429D01*
X172214Y578332D01*
X172205Y578235D01*
X172199Y578138D01*
X172197Y578041D01*
X172981Y579868D02*
X177419Y585089D01*
X172198Y585089D01*
D14*
X155646Y455253D02*
X146558Y455253D01*
X155646Y455252D02*
X155745Y455250D01*
X155845Y455244D01*
X155944Y455235D01*
X156042Y455222D01*
X156140Y455205D01*
X156238Y455184D01*
X156334Y455159D01*
X156429Y455131D01*
X156523Y455099D01*
X156616Y455064D01*
X156708Y455025D01*
X156798Y454982D01*
X156886Y454937D01*
X156973Y454887D01*
X157057Y454835D01*
X157140Y454779D01*
X157220Y454721D01*
X157298Y454659D01*
X157373Y454594D01*
X157446Y454526D01*
X157516Y454456D01*
X157584Y454383D01*
X157649Y454308D01*
X157711Y454230D01*
X157769Y454150D01*
X157825Y454067D01*
X157877Y453983D01*
X157927Y453896D01*
X157972Y453808D01*
X158015Y453718D01*
X158054Y453626D01*
X158089Y453533D01*
X158121Y453439D01*
X158149Y453344D01*
X158174Y453248D01*
X158195Y453150D01*
X158212Y453052D01*
X158225Y452954D01*
X158234Y452855D01*
X158240Y452755D01*
X158242Y452656D01*
X158242Y451358D01*
X146558Y464096D02*
X146560Y464203D01*
X146566Y464309D01*
X146576Y464415D01*
X146589Y464521D01*
X146607Y464627D01*
X146628Y464731D01*
X146653Y464835D01*
X146682Y464938D01*
X146714Y465039D01*
X146751Y465139D01*
X146791Y465238D01*
X146834Y465336D01*
X146881Y465432D01*
X146932Y465526D01*
X146986Y465618D01*
X147043Y465708D01*
X147103Y465796D01*
X147167Y465881D01*
X147234Y465964D01*
X147304Y466045D01*
X147376Y466123D01*
X147452Y466199D01*
X147530Y466271D01*
X147611Y466341D01*
X147694Y466408D01*
X147779Y466472D01*
X147867Y466532D01*
X147957Y466589D01*
X148049Y466643D01*
X148143Y466694D01*
X148239Y466741D01*
X148337Y466784D01*
X148436Y466824D01*
X148536Y466861D01*
X148637Y466893D01*
X148740Y466922D01*
X148844Y466947D01*
X148948Y466968D01*
X149054Y466986D01*
X149160Y466999D01*
X149266Y467009D01*
X149372Y467015D01*
X149479Y467017D01*
X146558Y464096D02*
X146560Y463975D01*
X146566Y463854D01*
X146576Y463734D01*
X146589Y463613D01*
X146607Y463494D01*
X146628Y463374D01*
X146653Y463256D01*
X146682Y463139D01*
X146715Y463022D01*
X146751Y462907D01*
X146792Y462793D01*
X146835Y462680D01*
X146883Y462568D01*
X146934Y462459D01*
X146989Y462351D01*
X147047Y462244D01*
X147108Y462140D01*
X147173Y462038D01*
X147241Y461938D01*
X147312Y461840D01*
X147386Y461744D01*
X147463Y461651D01*
X147544Y461561D01*
X147627Y461473D01*
X147713Y461388D01*
X147802Y461305D01*
X147893Y461226D01*
X147987Y461149D01*
X148083Y461076D01*
X148181Y461006D01*
X148282Y460939D01*
X148385Y460875D01*
X148490Y460815D01*
X148597Y460757D01*
X148705Y460704D01*
X148815Y460654D01*
X148927Y460608D01*
X149040Y460565D01*
X149155Y460526D01*
X151751Y466043D02*
X151673Y466122D01*
X151593Y466198D01*
X151510Y466271D01*
X151424Y466341D01*
X151337Y466408D01*
X151246Y466472D01*
X151154Y466532D01*
X151060Y466590D01*
X150963Y466644D01*
X150865Y466694D01*
X150765Y466741D01*
X150664Y466785D01*
X150561Y466825D01*
X150456Y466861D01*
X150351Y466893D01*
X150244Y466922D01*
X150137Y466947D01*
X150028Y466969D01*
X149919Y466986D01*
X149810Y467000D01*
X149700Y467009D01*
X149589Y467015D01*
X149479Y467017D01*
X151751Y466044D02*
X158242Y460526D01*
X158242Y467017D01*
D20*
X897254Y607693D02*
X927100Y607693D01*
X927100Y603883D02*
X901064Y603883D01*
X897254Y607693D01*
X897254Y544193D02*
X897254Y484504D01*
X897254Y548003D02*
X897254Y607693D01*
X901064Y540383D02*
X901064Y488314D01*
X901064Y551813D02*
X901064Y603883D01*
X901064Y551813D02*
X897254Y548003D01*
X901064Y551813D02*
X927100Y551813D01*
X927100Y548003D02*
X897254Y548003D01*
X897254Y544193D02*
X927100Y544193D01*
X927100Y540383D02*
X901064Y540383D01*
X927100Y548003D02*
X927100Y548007D01*
X901064Y540383D02*
X897254Y544193D01*
X901064Y488314D02*
X897254Y484504D01*
X901064Y488314D02*
X927100Y488314D01*
X927100Y484504D02*
X897254Y484504D01*
X927736Y548008D02*
X928463Y548034D01*
X929189Y548077D01*
X929914Y548138D01*
X930638Y548217D01*
X931359Y548313D01*
X932078Y548427D01*
X932793Y548558D01*
X933505Y548707D01*
X934214Y548873D01*
X934918Y549056D01*
X935617Y549257D01*
X936312Y549474D01*
X937000Y549708D01*
X937683Y549959D01*
X938360Y550227D01*
X939030Y550511D01*
X939693Y550811D01*
X940348Y551127D01*
X940995Y551459D01*
X941634Y551807D01*
X942265Y552170D01*
X942886Y552549D01*
X943498Y552942D01*
X944100Y553350D01*
X944692Y553773D01*
X945274Y554211D01*
X945845Y554662D01*
X946404Y555127D01*
X946952Y555605D01*
X947489Y556097D01*
X948013Y556602D01*
X948524Y557119D01*
X949023Y557649D01*
X949509Y558190D01*
X949982Y558743D01*
X950441Y559308D01*
X950886Y559884D01*
X951316Y560470D01*
X951733Y561067D01*
X952135Y561673D01*
X952521Y562289D01*
X952893Y562915D01*
X953250Y563549D01*
X953590Y564192D01*
X953915Y564843D01*
X954224Y565502D01*
X954517Y566168D01*
X954794Y566841D01*
X955054Y567520D01*
X955298Y568206D01*
X955524Y568897D01*
X955734Y569594D01*
X955927Y570295D01*
X956102Y571001D01*
X956261Y571712D01*
X956402Y572425D01*
X956525Y573142D01*
X956631Y573862D01*
X956720Y574584D01*
X956790Y575309D01*
X956844Y576034D01*
X956879Y576761D01*
X956897Y577488D01*
X956897Y578216D01*
X956879Y578943D01*
X956844Y579670D01*
X956790Y580395D01*
X956720Y581120D01*
X956631Y581842D01*
X956525Y582562D01*
X956402Y583279D01*
X956261Y583992D01*
X956102Y584703D01*
X955927Y585409D01*
X955734Y586110D01*
X955524Y586807D01*
X955298Y587498D01*
X955054Y588184D01*
X954794Y588863D01*
X954517Y589536D01*
X954224Y590202D01*
X953915Y590861D01*
X953590Y591512D01*
X953250Y592155D01*
X952893Y592789D01*
X952521Y593415D01*
X952135Y594031D01*
X951733Y594637D01*
X951316Y595234D01*
X950886Y595820D01*
X950441Y596396D01*
X949982Y596961D01*
X949509Y597514D01*
X949023Y598055D01*
X948524Y598585D01*
X948013Y599102D01*
X947489Y599607D01*
X946952Y600099D01*
X946404Y600577D01*
X945845Y601042D01*
X945274Y601493D01*
X944692Y601931D01*
X944100Y602354D01*
X943498Y602762D01*
X942886Y603155D01*
X942265Y603534D01*
X941634Y603897D01*
X940995Y604245D01*
X940348Y604577D01*
X939693Y604893D01*
X939030Y605193D01*
X938360Y605477D01*
X937683Y605745D01*
X937000Y605996D01*
X936312Y606230D01*
X935617Y606447D01*
X934918Y606648D01*
X934214Y606831D01*
X933505Y606997D01*
X932793Y607146D01*
X932078Y607277D01*
X931359Y607391D01*
X930638Y607487D01*
X929914Y607566D01*
X929189Y607627D01*
X928463Y607670D01*
X927736Y607696D01*
X927736Y544197D02*
X928463Y544171D01*
X929189Y544128D01*
X929915Y544067D01*
X930638Y543988D01*
X931359Y543892D01*
X932078Y543778D01*
X932793Y543647D01*
X933506Y543498D01*
X934214Y543332D01*
X934918Y543149D01*
X935618Y542949D01*
X936312Y542731D01*
X937001Y542497D01*
X937684Y542246D01*
X938361Y541979D01*
X939031Y541695D01*
X939693Y541394D01*
X940349Y541078D01*
X940996Y540746D01*
X941635Y540398D01*
X942266Y540035D01*
X942887Y539657D01*
X943499Y539263D01*
X944101Y538855D01*
X944694Y538432D01*
X945275Y537995D01*
X945846Y537543D01*
X946406Y537078D01*
X946954Y536600D01*
X947490Y536108D01*
X948014Y535603D01*
X948526Y535086D01*
X949025Y534556D01*
X949511Y534015D01*
X949983Y533462D01*
X950442Y532897D01*
X950887Y532321D01*
X951318Y531735D01*
X951734Y531138D01*
X952136Y530532D01*
X952523Y529915D01*
X952895Y529290D01*
X953251Y528656D01*
X953592Y528013D01*
X953917Y527362D01*
X954226Y526703D01*
X954519Y526037D01*
X954796Y525364D01*
X955056Y524684D01*
X955299Y523999D01*
X955526Y523307D01*
X955736Y522611D01*
X955929Y521909D01*
X956104Y521203D01*
X956263Y520493D01*
X956404Y519779D01*
X956527Y519062D01*
X956633Y518342D01*
X956722Y517620D01*
X956792Y516896D01*
X956846Y516170D01*
X956881Y515443D01*
X956899Y514716D01*
X956899Y513988D01*
X956881Y513261D01*
X956846Y512534D01*
X956792Y511808D01*
X956722Y511084D01*
X956633Y510362D01*
X956527Y509642D01*
X956404Y508925D01*
X956263Y508211D01*
X956104Y507501D01*
X955929Y506795D01*
X955736Y506093D01*
X955526Y505397D01*
X955299Y504705D01*
X955056Y504020D01*
X954796Y503340D01*
X954519Y502667D01*
X954226Y502001D01*
X953917Y501342D01*
X953592Y500691D01*
X953251Y500048D01*
X952895Y499414D01*
X952523Y498789D01*
X952136Y498172D01*
X951734Y497566D01*
X951318Y496969D01*
X950887Y496383D01*
X950442Y495807D01*
X949983Y495242D01*
X949511Y494689D01*
X949025Y494148D01*
X948526Y493618D01*
X948014Y493101D01*
X947490Y492596D01*
X946954Y492104D01*
X946406Y491626D01*
X945846Y491161D01*
X945275Y490709D01*
X944694Y490272D01*
X944101Y489849D01*
X943499Y489441D01*
X942887Y489047D01*
X942266Y488669D01*
X941635Y488306D01*
X940996Y487958D01*
X940349Y487626D01*
X939693Y487310D01*
X939031Y487009D01*
X938361Y486725D01*
X937684Y486458D01*
X937001Y486207D01*
X936312Y485973D01*
X935618Y485755D01*
X934918Y485555D01*
X934214Y485372D01*
X933506Y485206D01*
X932793Y485057D01*
X932078Y484926D01*
X931359Y484812D01*
X930638Y484716D01*
X929915Y484637D01*
X929189Y484576D01*
X928463Y484533D01*
X927736Y484507D01*
X927736Y551817D02*
X928374Y551841D01*
X929012Y551881D01*
X929648Y551936D01*
X930283Y552007D01*
X930916Y552094D01*
X931547Y552196D01*
X932175Y552313D01*
X932800Y552446D01*
X933421Y552594D01*
X934039Y552757D01*
X934652Y552935D01*
X935261Y553129D01*
X935865Y553337D01*
X936464Y553560D01*
X937057Y553797D01*
X937644Y554050D01*
X938225Y554316D01*
X938799Y554596D01*
X939365Y554891D01*
X939925Y555199D01*
X940477Y555521D01*
X941020Y555857D01*
X941556Y556205D01*
X942082Y556567D01*
X942600Y556942D01*
X943108Y557329D01*
X943607Y557728D01*
X944095Y558140D01*
X944574Y558563D01*
X945042Y558998D01*
X945499Y559444D01*
X945945Y559902D01*
X946379Y560370D01*
X946802Y560849D01*
X947213Y561338D01*
X947612Y561837D01*
X947999Y562345D01*
X948373Y562863D01*
X948734Y563390D01*
X949083Y563925D01*
X949418Y564469D01*
X949739Y565022D01*
X950047Y565581D01*
X950341Y566148D01*
X950621Y566723D01*
X950887Y567303D01*
X951139Y567891D01*
X951376Y568484D01*
X951598Y569083D01*
X951806Y569687D01*
X951999Y570296D01*
X952177Y570910D01*
X952339Y571527D01*
X952487Y572149D01*
X952619Y572774D01*
X952736Y573402D01*
X952837Y574033D01*
X952923Y574666D01*
X952994Y575301D01*
X953049Y575937D01*
X953088Y576575D01*
X953111Y577213D01*
X953119Y577852D01*
X953111Y578491D01*
X953088Y579129D01*
X953049Y579767D01*
X952994Y580403D01*
X952923Y581038D01*
X952837Y581671D01*
X952736Y582302D01*
X952619Y582930D01*
X952487Y583555D01*
X952339Y584177D01*
X952177Y584794D01*
X951999Y585408D01*
X951806Y586017D01*
X951598Y586621D01*
X951376Y587220D01*
X951139Y587813D01*
X950887Y588401D01*
X950621Y588981D01*
X950341Y589556D01*
X950047Y590123D01*
X949739Y590682D01*
X949418Y591235D01*
X949083Y591779D01*
X948734Y592314D01*
X948373Y592841D01*
X947999Y593359D01*
X947612Y593867D01*
X947213Y594366D01*
X946802Y594855D01*
X946379Y595334D01*
X945945Y595802D01*
X945499Y596260D01*
X945042Y596706D01*
X944574Y597141D01*
X944095Y597564D01*
X943607Y597976D01*
X943108Y598375D01*
X942600Y598762D01*
X942082Y599137D01*
X941556Y599499D01*
X941020Y599847D01*
X940477Y600183D01*
X939925Y600505D01*
X939365Y600813D01*
X938799Y601108D01*
X938225Y601388D01*
X937644Y601654D01*
X937057Y601907D01*
X936464Y602144D01*
X935865Y602367D01*
X935261Y602575D01*
X934652Y602769D01*
X934039Y602947D01*
X933421Y603110D01*
X932800Y603258D01*
X932175Y603391D01*
X931547Y603508D01*
X930916Y603610D01*
X930283Y603697D01*
X929648Y603768D01*
X929012Y603823D01*
X928374Y603863D01*
X927736Y603887D01*
X927736Y540387D02*
X928374Y540363D01*
X929011Y540323D01*
X929648Y540267D01*
X930282Y540196D01*
X930915Y540109D01*
X931545Y540006D01*
X932173Y539889D01*
X932797Y539756D01*
X933418Y539607D01*
X934036Y539444D01*
X934649Y539265D01*
X935257Y539071D01*
X935861Y538863D01*
X936459Y538640D01*
X937052Y538402D01*
X937638Y538150D01*
X938219Y537883D01*
X938792Y537602D01*
X939359Y537308D01*
X939918Y536999D01*
X940469Y536677D01*
X941012Y536341D01*
X941547Y535993D01*
X942074Y535631D01*
X942591Y535256D01*
X943099Y534869D01*
X943597Y534470D01*
X944085Y534058D01*
X944563Y533635D01*
X945031Y533200D01*
X945487Y532754D01*
X945933Y532296D01*
X946367Y531828D01*
X946790Y531349D01*
X947201Y530860D01*
X947599Y530362D01*
X947986Y529853D01*
X948359Y529335D01*
X948720Y528809D01*
X949068Y528273D01*
X949403Y527729D01*
X949724Y527177D01*
X950032Y526618D01*
X950326Y526051D01*
X950605Y525477D01*
X950871Y524896D01*
X951122Y524309D01*
X951359Y523716D01*
X951582Y523118D01*
X951789Y522514D01*
X951982Y521905D01*
X952159Y521292D01*
X952322Y520674D01*
X952469Y520053D01*
X952602Y519428D01*
X952718Y518800D01*
X952820Y518170D01*
X952906Y517537D01*
X952976Y516902D01*
X953031Y516266D01*
X953070Y515629D01*
X953093Y514991D01*
X953101Y514352D01*
X953093Y513713D01*
X953070Y513075D01*
X953031Y512438D01*
X952976Y511802D01*
X952906Y511167D01*
X952820Y510534D01*
X952718Y509904D01*
X952602Y509276D01*
X952469Y508651D01*
X952322Y508030D01*
X952159Y507412D01*
X951982Y506799D01*
X951789Y506190D01*
X951582Y505586D01*
X951359Y504988D01*
X951122Y504395D01*
X950871Y503808D01*
X950605Y503227D01*
X950326Y502653D01*
X950032Y502086D01*
X949724Y501527D01*
X949403Y500975D01*
X949068Y500431D01*
X948720Y499895D01*
X948359Y499369D01*
X947986Y498851D01*
X947599Y498342D01*
X947201Y497844D01*
X946790Y497355D01*
X946367Y496876D01*
X945933Y496408D01*
X945487Y495950D01*
X945031Y495504D01*
X944563Y495069D01*
X944085Y494646D01*
X943597Y494234D01*
X943099Y493835D01*
X942591Y493448D01*
X942074Y493073D01*
X941547Y492711D01*
X941012Y492363D01*
X940469Y492027D01*
X939918Y491705D01*
X939359Y491396D01*
X938792Y491102D01*
X938219Y490821D01*
X937638Y490554D01*
X937052Y490302D01*
X936459Y490064D01*
X935861Y489841D01*
X935257Y489633D01*
X934649Y489439D01*
X934036Y489260D01*
X933418Y489097D01*
X932797Y488948D01*
X932173Y488815D01*
X931545Y488698D01*
X930915Y488595D01*
X930282Y488508D01*
X929648Y488437D01*
X929011Y488381D01*
X928374Y488341D01*
X927736Y488317D01*
X927736Y540387D02*
X927100Y540387D01*
X927100Y544197D02*
X927736Y544197D01*
X927736Y548007D02*
X927100Y548007D01*
X927100Y551817D02*
X927736Y551817D01*
X964100Y614850D02*
X964100Y477350D01*
X938850Y477350D01*
X938600Y477350D01*
X938850Y477350D02*
X938850Y473850D01*
X915350Y473850D01*
X915350Y477350D01*
X890100Y477350D01*
X890100Y614850D01*
X915350Y614850D01*
X915350Y618350D01*
X938850Y618350D01*
X938850Y614850D01*
X964100Y614850D01*
X938850Y618600D02*
X938850Y640350D01*
X915350Y640350D01*
X915350Y618600D01*
X938850Y473600D02*
X938850Y451850D01*
X915350Y451850D01*
X915350Y473600D01*
X889600Y477350D02*
X877350Y477350D01*
X877350Y487850D01*
X888850Y487850D01*
X889350Y540850D02*
X877350Y540850D01*
X877350Y551350D01*
X889350Y551350D01*
X889850Y614850D02*
X877350Y614850D01*
X877350Y604350D01*
X889100Y604350D01*
D22*
X952881Y553791D02*
X955492Y555879D01*
X955492Y546481D01*
X958102Y546481D02*
X952881Y546481D01*
X955753Y491110D02*
X955848Y491108D01*
X955942Y491102D01*
X956036Y491093D01*
X956130Y491080D01*
X956223Y491063D01*
X956315Y491042D01*
X956407Y491017D01*
X956497Y490989D01*
X956586Y490957D01*
X956674Y490922D01*
X956760Y490883D01*
X956845Y490841D01*
X956928Y490795D01*
X957009Y490746D01*
X957088Y490694D01*
X957165Y490639D01*
X957239Y490580D01*
X957311Y490519D01*
X957381Y490455D01*
X957448Y490388D01*
X957512Y490318D01*
X957573Y490246D01*
X957632Y490172D01*
X957687Y490095D01*
X957739Y490016D01*
X957788Y489935D01*
X957834Y489852D01*
X957876Y489767D01*
X957915Y489681D01*
X957950Y489593D01*
X957982Y489504D01*
X958010Y489414D01*
X958035Y489322D01*
X958056Y489230D01*
X958073Y489137D01*
X958086Y489043D01*
X958095Y488949D01*
X958101Y488855D01*
X958103Y488760D01*
X955753Y491109D02*
X955645Y491107D01*
X955536Y491101D01*
X955428Y491091D01*
X955321Y491078D01*
X955214Y491060D01*
X955107Y491039D01*
X955002Y491014D01*
X954897Y490985D01*
X954794Y490953D01*
X954692Y490916D01*
X954591Y490876D01*
X954492Y490833D01*
X954394Y490786D01*
X954298Y490735D01*
X954204Y490681D01*
X954112Y490624D01*
X954022Y490563D01*
X953934Y490499D01*
X953849Y490433D01*
X953766Y490363D01*
X953686Y490290D01*
X953608Y490214D01*
X953533Y490136D01*
X953461Y490055D01*
X953392Y489971D01*
X953326Y489885D01*
X953263Y489797D01*
X953204Y489706D01*
X953147Y489614D01*
X953094Y489519D01*
X953045Y489423D01*
X952999Y489324D01*
X952956Y489225D01*
X952917Y489123D01*
X952882Y489021D01*
X957319Y486932D02*
X957388Y487001D01*
X957454Y487072D01*
X957518Y487145D01*
X957579Y487221D01*
X957637Y487300D01*
X957691Y487380D01*
X957743Y487463D01*
X957791Y487547D01*
X957837Y487633D01*
X957878Y487721D01*
X957917Y487811D01*
X957952Y487902D01*
X957983Y487994D01*
X958011Y488087D01*
X958035Y488181D01*
X958055Y488276D01*
X958072Y488372D01*
X958085Y488469D01*
X958094Y488566D01*
X958100Y488663D01*
X958102Y488760D01*
X957319Y486932D02*
X952881Y481711D01*
X958102Y481711D01*
D14*
X972058Y603678D02*
X981146Y603678D01*
X981146Y603677D02*
X981245Y603675D01*
X981345Y603669D01*
X981444Y603660D01*
X981542Y603647D01*
X981640Y603630D01*
X981738Y603609D01*
X981834Y603584D01*
X981929Y603556D01*
X982023Y603524D01*
X982116Y603489D01*
X982208Y603450D01*
X982298Y603407D01*
X982386Y603362D01*
X982473Y603312D01*
X982557Y603260D01*
X982640Y603204D01*
X982720Y603146D01*
X982798Y603084D01*
X982873Y603019D01*
X982946Y602951D01*
X983016Y602881D01*
X983084Y602808D01*
X983149Y602733D01*
X983211Y602655D01*
X983269Y602575D01*
X983325Y602492D01*
X983377Y602408D01*
X983427Y602321D01*
X983472Y602233D01*
X983515Y602143D01*
X983554Y602051D01*
X983589Y601958D01*
X983621Y601864D01*
X983649Y601769D01*
X983674Y601673D01*
X983695Y601575D01*
X983712Y601477D01*
X983725Y601379D01*
X983734Y601280D01*
X983740Y601180D01*
X983742Y601081D01*
X983742Y599783D01*
X983742Y608951D02*
X983742Y612196D01*
X983740Y612309D01*
X983734Y612422D01*
X983724Y612535D01*
X983710Y612648D01*
X983693Y612760D01*
X983671Y612871D01*
X983646Y612981D01*
X983616Y613091D01*
X983583Y613199D01*
X983546Y613306D01*
X983506Y613412D01*
X983461Y613516D01*
X983413Y613619D01*
X983362Y613720D01*
X983307Y613819D01*
X983249Y613916D01*
X983187Y614011D01*
X983122Y614104D01*
X983054Y614194D01*
X982983Y614282D01*
X982908Y614368D01*
X982831Y614451D01*
X982751Y614531D01*
X982668Y614608D01*
X982582Y614683D01*
X982494Y614754D01*
X982404Y614822D01*
X982311Y614887D01*
X982216Y614949D01*
X982119Y615007D01*
X982020Y615062D01*
X981919Y615113D01*
X981816Y615161D01*
X981712Y615206D01*
X981606Y615246D01*
X981499Y615283D01*
X981391Y615316D01*
X981281Y615346D01*
X981171Y615371D01*
X981060Y615393D01*
X980948Y615410D01*
X980835Y615424D01*
X980722Y615434D01*
X980609Y615440D01*
X980496Y615442D01*
X980383Y615440D01*
X980270Y615434D01*
X980157Y615424D01*
X980044Y615410D01*
X979932Y615393D01*
X979821Y615371D01*
X979711Y615346D01*
X979601Y615316D01*
X979493Y615283D01*
X979386Y615246D01*
X979280Y615206D01*
X979176Y615161D01*
X979073Y615113D01*
X978972Y615062D01*
X978873Y615007D01*
X978776Y614949D01*
X978681Y614887D01*
X978588Y614822D01*
X978498Y614754D01*
X978410Y614683D01*
X978324Y614608D01*
X978241Y614531D01*
X978161Y614451D01*
X978084Y614368D01*
X978009Y614282D01*
X977938Y614194D01*
X977870Y614104D01*
X977805Y614011D01*
X977743Y613916D01*
X977685Y613819D01*
X977630Y613720D01*
X977579Y613619D01*
X977531Y613516D01*
X977486Y613412D01*
X977446Y613306D01*
X977409Y613199D01*
X977376Y613091D01*
X977346Y612981D01*
X977321Y612871D01*
X977299Y612760D01*
X977282Y612648D01*
X977268Y612535D01*
X977258Y612422D01*
X977252Y612309D01*
X977250Y612196D01*
X972058Y612846D02*
X972058Y608951D01*
X972058Y612846D02*
X972060Y612947D01*
X972066Y613047D01*
X972076Y613147D01*
X972089Y613247D01*
X972107Y613346D01*
X972128Y613445D01*
X972153Y613542D01*
X972182Y613639D01*
X972215Y613734D01*
X972251Y613828D01*
X972291Y613920D01*
X972334Y614011D01*
X972381Y614100D01*
X972431Y614187D01*
X972485Y614273D01*
X972542Y614356D01*
X972602Y614436D01*
X972665Y614515D01*
X972732Y614591D01*
X972801Y614664D01*
X972873Y614734D01*
X972947Y614802D01*
X973024Y614867D01*
X973104Y614928D01*
X973186Y614987D01*
X973270Y615042D01*
X973356Y615094D01*
X973444Y615143D01*
X973534Y615188D01*
X973626Y615230D01*
X973719Y615268D01*
X973814Y615302D01*
X973909Y615333D01*
X974006Y615360D01*
X974104Y615383D01*
X974203Y615403D01*
X974303Y615418D01*
X974403Y615430D01*
X974503Y615438D01*
X974604Y615442D01*
X974704Y615442D01*
X974805Y615438D01*
X974905Y615430D01*
X975005Y615418D01*
X975105Y615403D01*
X975204Y615383D01*
X975302Y615360D01*
X975399Y615333D01*
X975494Y615302D01*
X975589Y615268D01*
X975682Y615230D01*
X975774Y615188D01*
X975864Y615143D01*
X975952Y615094D01*
X976038Y615042D01*
X976122Y614987D01*
X976204Y614928D01*
X976284Y614867D01*
X976361Y614802D01*
X976435Y614734D01*
X976507Y614664D01*
X976576Y614591D01*
X976643Y614515D01*
X976706Y614436D01*
X976766Y614356D01*
X976823Y614273D01*
X976877Y614187D01*
X976927Y614100D01*
X976974Y614011D01*
X977017Y613920D01*
X977057Y613828D01*
X977093Y613734D01*
X977126Y613639D01*
X977155Y613542D01*
X977180Y613445D01*
X977201Y613346D01*
X977219Y613247D01*
X977232Y613147D01*
X977242Y613047D01*
X977248Y612947D01*
X977250Y612846D01*
X977251Y612846D02*
X977251Y610249D01*
M02*
