M48
;GenerationSoftware,Autodesk,EAGLE,9.6.2*%
;CreationDate,2024-01-09T17:12:26Z*%
FMAT,2
ICI,OFF
METRIC,TZ,000.000
T7C0.350
T6C0.813
T5C0.850
T4C1.118
T3C1.397
T2C1.800
T1C2.800
%
G90
M71
T1
X17780Y76200
X17780Y31750
X97790Y76200
X97790Y31750
T2
X20320Y48895
X20320Y55245
X92710Y57785
X92710Y51435
T3
X66421Y71755
X60960Y71755
X55499Y71755
T4
X26670Y62230
X36830Y62230
X26671Y51990
X36829Y52150
X40640Y62230
X50800Y62230
X40640Y52070
X50800Y52070
T5
X54610Y44450
X59690Y44450
X77470Y44450
X82550Y44450
T6
X68580Y45720
X68580Y43180
X73660Y58420
X74930Y60325
X76200Y58420
X58420Y58420
X66040Y58420
T7
X74930Y64770
M30